{
copyright = "Copyright 2014 Eczar Project Authors (info@rosettatype.com)";
customParameters = (
{
name = openTypeOS2VendorID;
value = " RST";
},
{
name = glyphOrder;
value = (
    ".notdef",
    NULL,
    CR,
    space,
    nbspace,
    enspace,
    emspace,
    thinspace,
    exclam,
    quotedbl,
    numbersign,
    dollar,
    percent,
    ampersand,
    quotesingle,
    parenleft,
    parenright,
    asterisk,
    plus,
    comma,
    hyphen,
    period,
    slash,
    zero,
    one,
    two,
    three,
    four,
    five,
    six,
    seven,
    eight,
    nine,
    colon,
    semicolon,
    less,
    equal,
    greater,
    question,
    at,
    A,
    B,
    C,
    D,
    E,
    F,
    G,
    H,
    I,
    J,
    K,
    L,
    M,
    N,
    O,
    P,
    Q,
    R,
    S,
    T,
    U,
    V,
    W,
    X,
    Y,
    Z,
    bracketleft,
    backslash,
    bracketright,
    asciicircum,
    underscore,
    grave,
    a,
    b,
    c,
    d,
    e,
    f,
    g,
    h,
    i,
    j,
    k,
    l,
    m,
    n,
    o,
    p,
    q,
    r,
    s,
    t,
    u,
    v,
    w,
    x,
    y,
    z,
    braceleft,
    bar,
    braceright,
    asciitilde,
    exclamdown,
    cent,
    sterling,
    currency,
    yen,
    brokenbar,
    section,
    dieresis,
    copyright,
    ordfeminine,
    guillemetleft,
    logicalnot,
    softhyphen,
    registered,
    macron,
    degree,
    plusminus,
    twosuperior,
    threesuperior,
    foursuperior,
    acute,
    micro,
    paragraph,
    periodcentered,
    cedilla,
    onesuperior,
    ordmasculine,
    guillemetright,
    onequarter,
    onehalf,
    threequarters,
    questiondown,
    Agrave,
    Aacute,
    Acircumflex,
    Atilde,
    Adieresis,
    Aring,
    AE,
    Ccedilla,
    Egrave,
    Eacute,
    Ecircumflex,
    Edieresis,
    Igrave,
    Iacute,
    Icircumflex,
    Idieresis,
    Eth,
    Ntilde,
    Ograve,
    Oacute,
    Ocircumflex,
    Otilde,
    Odieresis,
    multiply,
    Oslash,
    Ugrave,

glyphs = (
{
glyphname = .notdef;
layers = (
{
layerId = "C1B4D31E-EC41-4663-B02D-6CE46EF34CA2";
name = Regular;
paths = (
{
closed = 1;
nodes = (
"47 23 LINE",
"465 23 LINE",
"465 458 LINE",
"47 458 LINE"
);
},
{
closed = 1;
nodes = (
"137 361 LINE",
"376 361 LINE",
"376 122 LINE",
"137 122 LINE"
);
}
);
width = 512;
}
);
},
{
color = 3;
glyphname = exclam;
layers = (
{
layerId = "C1B4D31E-EC41-4663-B02D-6CE46EF34CA2";
name = Regular;
paths = (
{
closed = 1;
nodes = (
"214 238 LINE",
"256 675 LINE",
"217 703 OFFCURVE",
"123 701 OFFCURVE",
"77 677 CURVE",
"117 238 LINE"
);
},
{
closed = 1;
nodes = (
"117 140 OFFCURVE",
"87 106 OFFCURVE",
"80 57 CURVE",
"99 18 OFFCURVE",
"131 -8 OFFCURVE",
"176 -20 CURVE",
"214 -1 OFFCURVE",
"240 30 OFFCURVE",
"253 71 CURVE",
"242 112 OFFCURVE",
"207 144 OFFCURVE",
"161 163 CURVE"
);
}
);
width = 332;
}
);
unicode = 0021;
},
{
color = 3;
glyphname = quotedbl;
layers = (
{
layerId = "C1B4D31E-EC41-4663-B02D-6CE46EF34CA2";
name = Regular;
paths = (
{
closed = 1;
nodes = (
"104 419 LINE",
"169 510 OFFCURVE",
"201 641 OFFCURVE",
"197 674 CURVE",
"99 694 LINE",
"59 655 LINE",
"60 616 OFFCURVE",
"50 534 OFFCURVE",
"17 450 CURVE"
);
},
{
closed = 1;
nodes = (
"312 419 LINE",
"377 510 OFFCURVE",
"409 641 OFFCURVE",
"405 674 CURVE",
"307 694 LINE",
"267 655 LINE",
"268 616 OFFCURVE",
"258 534 OFFCURVE",
"225 450 CURVE"
);
}
);
width = 409;
}
);
unicode = 0022;
},
{
color = 3;
glyphname = numbersign;
layers = (
{
layerId = "C1B4D31E-EC41-4663-B02D-6CE46EF34CA2";
name = Regular;
paths = (
{
closed = 1;
nodes = (
"130 0 LINE",
"211 -11 LINE",
"292 521 LINE",
"211 530 LINE"
);
},
{
closed = 1;
nodes = (
"332 0 LINE",
"413 -11 LINE",
"494 521 LINE",
"413 530 LINE"
);
},
{
closed = 1;
nodes = (
"85 334 LINE",
"566 334 LINE",
"566 407 LINE",
"85 407 LINE"
);
},
{
closed = 1;
nodes = (
"56 128 LINE",
"537 128 LINE",
"537 201 LINE",
"56 201 LINE"
);
}
);
width = 622;
}
);
leftMetricsKey = minus;
rightMetricsKey = minus;
unicode = 0023;
},
{
color = 3;
glyphname = dollar;
layers = (
{
components = (
{
name = S;
}
);
layerId = "C1B4D31E-EC41-4663-B02D-6CE46EF34CA2";
name = Regular;
paths = (
{
closed = 1;
nodes = (
"254 633 LINE",
"356 633 LINE",
"356 785 LINE",
"254 785 LINE"
);
},
{
closed = 1;
nodes = (
"357 -145 LINE",
"357 35 LINE",
"254 35 LINE",
"254 -145 LINE"
);
}
);
width = 576;
}
);
leftKerningGroup = S;
leftMetricsKey = S;
rightKerningGroup = S;
rightMetricsKey = S;
unicode = 0024;
},
{
color = 3;
glyphname = percent;
layers = (
{
layerId = "C1B4D31E-EC41-4663-B02D-6CE46EF34CA2";
name = Regular;
paths = (
{
closed = 1;
nodes = (
"211 -29 LINE",
"664 543 LINE",
"600 595 LINE",
"146 24 LINE"
);
},
{
closed = 1;
nodes = (
"167 340 OFFCURVE",
"139 387 OFFCURVE",
"139 436 CURVE SMOOTH",
"139 466 OFFCURVE",
"150 496 OFFCURVE",
"169 516 CURVE",
"231 534 OFFCURVE",
"262 484 OFFCURVE",
"262 432 CURVE SMOOTH",
"262 401 OFFCURVE",
"251 368 OFFCURVE",
"228 350 CURVE"
);
},
{
closed = 1;
nodes = (
"48 343 OFFCURVE",
"120 271 OFFCURVE",
"206 271 CURVE SMOOTH",
"292 271 OFFCURVE",
"355 343 OFFCURVE",
"355 431 CURVE SMOOTH",
"355 523 OFFCURVE",
"287 600 OFFCURVE",
"201 600 CURVE SMOOTH",
"115 600 OFFCURVE",
"48 522 OFFCURVE",
"48 434 CURVE SMOOTH"
);
},
{
closed = 1;
nodes = (
"592 49 OFFCURVE",
"564 95 OFFCURVE",
"564 144 CURVE SMOOTH",
"564 175 OFFCURVE",
"575 205 OFFCURVE",
"594 225 CURVE",
"656 242 OFFCURVE",
"687 193 OFFCURVE",
"687 141 CURVE SMOOTH",
"687 109 OFFCURVE",
"676 77 OFFCURVE",
"653 58 CURVE"
);
},
{
closed = 1;
nodes = (
"473 52 OFFCURVE",
"545 -20 OFFCURVE",
"631 -20 CURVE SMOOTH",
"717 -20 OFFCURVE",
"780 52 OFFCURVE",
"780 140 CURVE SMOOTH",
"780 231 OFFCURVE",
"712 309 OFFCURVE",
"626 309 CURVE SMOOTH",
"540 309 OFFCURVE",
"473 230 OFFCURVE",
"473 143 CURVE SMOOTH"
);
}
);
width = 828;
}
);
unicode = 0025;
},
{
color = 3;
glyphname = ampersand;
layers = (
{
layerId = "C1B4D31E-EC41-4663-B02D-6CE46EF34CA2";
name = Regular;
paths = (
{
closed = 1;
nodes = (
"243 372 LINE",
"195 394 OFFCURVE",
"173 438 OFFCURVE",
"173 478 CURVE SMOOTH",
"173 520 OFFCURVE",
"198 561 OFFCURVE",
"237 578 CURVE",
"423 506 LINE",
"468 626 LINE",
"400 655 OFFCURVE",
"327 668 OFFCURVE",
"267 668 CURVE SMOOTH",
"114 668 OFFCURVE",
"37 582 OFFCURVE",
"37 498 CURVE SMOOTH",
"37 424 OFFCURVE",
"96 351 OFFCURVE",
"217 339 CURVE"
);
},
{
closed = 1;
nodes = (
"404 377 LINE",
"447 335 OFFCURVE",
"471 273 OFFCURVE",
"471 214 CURVE SMOOTH",
"471 162 OFFCURVE",
"452 112 OFFCURVE",
"408 80 CURVE",
"376 64 OFFCURVE",
"336 58 OFFCURVE",
"307 58 CURVE SMOOTH",
"227 58 OFFCURVE",
"154 99 OFFCURVE",
"154 177 CURVE SMOOTH",
"154 243 OFFCURVE",
"206 297 OFFCURVE",
"299 296 CURVE",
"313 362 LINE",
"182 404 LINE",
"179 380 LINE",
"91 367 OFFCURVE",
"16 302 OFFCURVE",
"16 200 CURVE SMOOTH",
"16 64 OFFCURVE",
"146 -27 OFFCURVE",
"310 -27 CURVE SMOOTH",
"490 -27 OFFCURVE",
"595 84 OFFCURVE",
"595 223 CURVE SMOOTH",
"595 288 OFFCURVE",
"572 359 OFFCURVE",
"523 420 CURVE"
);
},
{
closed = 1;
nodes = (
"379 294 LINE",
"543 402 OFFCURVE",
"610 362 OFFCURVE",
"685 316 CURVE",
"721 429 LINE",
"640 500 OFFCURVE",
"537 473 OFFCURVE",
"344 357 CURVE"
);
}
);
width = 689;
}
);
unicode = 0026;
},
{
color = 3;
glyphname = quotesingle;
layers = (
{
layerId = "C1B4D31E-EC41-4663-B02D-6CE46EF34CA2";
name = Regular;
paths = (
{
closed = 1;
nodes = (
"61 477 LINE",
"109 549 OFFCURVE",
"144 653 OFFCURVE",
"146 732 CURVE",
"48 748 LINE",
"8 709 LINE",
"10 670 OFFCURVE",
"8 592 OFFCURVE",
"-25 508 CURVE"
);
}
);
width = 181;
}
);
unicode = 0027;
},
{
color = 3;
glyphname = parenleft;
layers = (
{
layerId = "C1B4D31E-EC41-4663-B02D-6CE46EF34CA2";
name = Regular;
paths = (
{
closed = 1;
nodes = (
"294 -108 LINE",
"222 27 OFFCURVE",
"176 165 OFFCURVE",
"176 305 CURVE SMOOTH",
"176 427 OFFCURVE",
"215 555 OFFCURVE",
"299 686 CURVE",
"215 732 LINE",
"85 590 OFFCURVE",
"28 444 OFFCURVE",
"28 300 CURVE SMOOTH",
"28 136 OFFCURVE",
"96 -16 OFFCURVE",
"208 -155 CURVE"
);
}
);
width = 331;
}
);
unicode = 0028;
},
{
color = 3;
glyphname = parenright;
layers = (
{
layerId = "C1B4D31E-EC41-4663-B02D-6CE46EF34CA2";
name = Regular;
paths = (
{
closed = 1;
nodes = (
"234 -16 OFFCURVE",
"302 136 OFFCURVE",
"302 300 CURVE SMOOTH",
"302 444 OFFCURVE",
"245 590 OFFCURVE",
"115 732 CURVE",
"31 686 LINE",
"115 555 OFFCURVE",
"154 427 OFFCURVE",
"154 305 CURVE SMOOTH",
"154 165 OFFCURVE",
"108 27 OFFCURVE",
"36 -108 CURVE",
"122 -155 LINE"
);
}
);
width = 330;
}
);
unicode = 0029;
},
{
color = 3;
glyphname = asterisk;
layers = (
{
layerId = "C1B4D31E-EC41-4663-B02D-6CE46EF34CA2";
name = Regular;
paths = (
{
closed = 1;
nodes = (
"51 679 LINE",
"137 591 LINE",
"170 628 LINE",
"112 768 LINE"
);
},
{
closed = 1;
nodes = (
"226 750 LINE",
"167 641 LINE",
"213 620 LINE",
"329 717 LINE"
);
},
{
closed = 1;
nodes = (
"351 605 LINE",
"229 626 LINE",
"224 577 LINE",
"352 498 LINE"
);
},
{
closed = 1;
nodes = (
"252 443 LINE",
"235 566 LINE",
"186 556 LINE",
"149 409 LINE"
);
},
{
closed = 1;
nodes = (
"67 491 LINE",
"180 546 LINE",
"154 589 LINE",
"4 580 LINE"
);
}
);
width = 402;
}
);
unicode = 002A;
},
{
color = 3;
glyphname = plus;
layers = (
{
layerId = "C1B4D31E-EC41-4663-B02D-6CE46EF34CA2";
name = Regular;
paths = (
{
closed = 1;
nodes = (
"334 293 LINE",
"334 482 LINE",
"237 482 LINE",
"237 293 LINE",
"56 293 LINE",
"56 205 LINE",
"237 205 LINE",
"237 16 LINE",
"334 16 LINE",
"334 205 LINE",
"514 205 LINE",
"514 293 LINE"
);
}
);
width = 570;
}
);
leftMetricsKey = minus;
rightMetricsKey = minus;
unicode = 002B;
},
{
color = 3;
glyphname = comma;
layers = (
{
layerId = "C1B4D31E-EC41-4663-B02D-6CE46EF34CA2";
name = Regular;
paths = (
{
closed = 1;
nodes = (
"84 -143 LINE",
"167 -104 OFFCURVE",
"230 -23 OFFCURVE",
"230 48 CURVE SMOOTH",
"230 96 OFFCURVE",
"200 139 OFFCURVE",
"141 161 CURVE",
"100 139 OFFCURVE",
"69 106 OFFCURVE",
"62 57 CURVE",
"115 14 LINE",
"112 -21 OFFCURVE",
"87 -62 OFFCURVE",
"46 -97 CURVE"
);
}
);
width = 287;
}
);
unicode = 002C;
},
{
color = 3;
glyphname = hyphen;
layers = (
{
layerId = "C1B4D31E-EC41-4663-B02D-6CE46EF34CA2";
name = Regular;
paths = (
{
closed = 1;
nodes = (
"367 231 LINE",
"384 266 LINE",
"336 342 LINE",
"49 342 LINE",
"32 308 LINE",
"80 231 LINE"
);
}
);
width = 427;
}
);
unicode = 002D;
},
{
color = 3;
glyphname = period;
layers = (
{
layerId = "C1B4D31E-EC41-4663-B02D-6CE46EF34CA2";
name = Regular;
paths = (
{
closed = 1;
nodes = (
"216 -19 OFFCURVE",
"247 21 OFFCURVE",
"260 55 CURVE",
"242 80 OFFCURVE",
"202 116 OFFCURVE",
"168 129 CURVE",
"139 112 OFFCURVE",
"110 72 OFFCURVE",
"91 35 CURVE",
"111 7 OFFCURVE",
"157 -27 OFFCURVE",
"187 -39 CURVE"
);
}
);
width = 260;
}
);
unicode = 002E;
},
{
color = 3;
glyphname = slash;
layers = (
{
layerId = "C1B4D31E-EC41-4663-B02D-6CE46EF34CA2";
name = Regular;
paths = (
{
closed = 1;
nodes = (
"111 -122 LINE",
"417 684 LINE",
"328 723 LINE",
"20 -85 LINE"
);
}
);
width = 416;
}
);
unicode = 002F;
},
{
color = 3;
glyphname = zero;
layers = (
{
layerId = "C1B4D31E-EC41-4663-B02D-6CE46EF34CA2";
name = Regular;
paths = (
{
closed = 1;
nodes = (
"31 149 OFFCURVE",
"120 -14 OFFCURVE",
"293 -14 CURVE SMOOTH",
"463 -14 OFFCURVE",
"555 142 OFFCURVE",
"555 334 CURVE SMOOTH",
"555 531 OFFCURVE",
"453 665 OFFCURVE",
"300 665 CURVE SMOOTH",
"134 665 OFFCURVE",
"31 506 OFFCURVE",
"31 321 CURVE SMOOTH"
);
},
{
closed = 1;
nodes = (
"258 578 OFFCURVE",
"269 580 OFFCURVE",
"279 580 CURVE SMOOTH",
"367 580 OFFCURVE",
"405 451 OFFCURVE",
"405 320 CURVE SMOOTH",
"405 233 OFFCURVE",
"388 126 OFFCURVE",
"343 77 CURVE",
"331 73 OFFCURVE",
"320 72 OFFCURVE",
"311 72 CURVE SMOOTH",
"217 72 OFFCURVE",
"182 221 OFFCURVE",
"182 333 CURVE SMOOTH",
"182 416 OFFCURVE",
"201 529 OFFCURVE",
"246 575 CURVE"
);
}
);
width = 589;
}
);
unicode = 0030;
},
{
color = 3;
glyphname = one;
layers = (
{
layerId = "C1B4D31E-EC41-4663-B02D-6CE46EF34CA2";
name = Regular;
paths = (
{
closed = 1;
nodes = (
"238 549 LINE",
"263 632 LINE",
"247 670 LINE",
"15 527 LINE",
"48 469 LINE"
);
},
{
closed = 1;
nodes = (
"312 627 LINE",
"247 670 LINE",
"222 597 LINE"
);
},
{
closed = 1;
nodes = (
"167 0 LINE",
"312 0 LINE",
"312 627 LINE",
"167 612 LINE"
);
},
{
closed = 1;
nodes = (
"178 0 LINE",
"186 88 LINE",
"133 75 OFFCURVE",
"73 55 OFFCURVE",
"30 33 CURVE",
"36 0 LINE"
);
},
{
closed = 1;
nodes = (
"428 0 LINE",
"432 52 LINE",
"293 74 LINE",
"291 0 LINE"
);
}
);
width = 438;
}
);
unicode = 0031;
},
{
color = 3;
glyphname = two;
layers = (
{
layerId = "C1B4D31E-EC41-4663-B02D-6CE46EF34CA2";
name = Regular;
paths = (
{
closed = 1;
nodes = (
"160 422 LINE",
"202 597 LINE",
"53 604 LINE",
"49 554 OFFCURVE",
"56 472 OFFCURVE",
"68 422 CURVE"
);
},
{
closed = 1;
nodes = (
"58 0 LINE",
"491 0 LINE",
"491 111 LINE",
"211 75 LINE",
"208 83 LINE",
"354 234 LINE",
"453 337 OFFCURVE",
"500 401 OFFCURVE",
"500 479 CURVE SMOOTH",
"500 585 OFFCURVE",
"412 667 OFFCURVE",
"287 670 CURVE SMOOTH",
"213 673 OFFCURVE",
"122 646 OFFCURVE",
"53 604 CURVE",
"139 565 LINE",
"176 580 OFFCURVE",
"219 588 OFFCURVE",
"246 588 CURVE SMOOTH",
"319 588 OFFCURVE",
"350 540 OFFCURVE",
"350 492 CURVE SMOOTH",
"350 441 OFFCURVE",
"315 383 OFFCURVE",
"220 281 CURVE SMOOTH",
"38 81 LINE"
);
},
{
closed = 1;
nodes = (
"465 209 LINE",
"359 24 LINE",
"502 0 LINE",
"520 60 OFFCURVE",
"531 134 OFFCURVE",
"534 193 CURVE"
);
}
);
width = 581;
}
);
unicode = 0032;
},
{
color = 3;
glyphname = three;
layers = (
{
layerId = "C1B4D31E-EC41-4663-B02D-6CE46EF34CA2";
name = Regular;
paths = (
{
closed = 1;
nodes = (
"200 609 LINE",
"61 611 LINE",
"57 561 OFFCURVE",
"60 500 OFFCURVE",
"72 450 CURVE",
"159 450 LINE"
);
},
{
closed = 1;
nodes = (
"343 423 OFFCURVE",
"294 358 OFFCURVE",
"172 355 CURVE",
"180 278 LINE",
"348 325 LINE",
"348 341 LINE",
"447 369 OFFCURVE",
"494 436 OFFCURVE",
"494 502 CURVE SMOOTH",
"494 587 OFFCURVE",
"419 670 OFFCURVE",
"272 670 CURVE SMOOTH",
"199 670 OFFCURVE",
"116 649 OFFCURVE",
"60 611 CURVE",
"97 555 LINE",
"139 579 OFFCURVE",
"179 590 OFFCURVE",
"217 590 CURVE SMOOTH",
"295 590 OFFCURVE",
"343 543 OFFCURVE",
"343 483 CURVE SMOOTH"
);
},
{
closed = 1;
nodes = (
"48 31 LINE",
"114 -1 OFFCURVE",
"197 -20 OFFCURVE",
"271 -20 CURVE SMOOTH",
"433 -20 OFFCURVE",
"524 72 OFFCURVE",
"524 173 CURVE SMOOTH",
"524 268 OFFCURVE",
"444 349 OFFCURVE",
"344 350 CURVE",
"335 358 LINE",
"173 355 LINE",
"165 355 LINE",
"168 275 LINE",
"229 277 LINE",
"324 277 OFFCURVE",
"373 221 OFFCURVE",
"373 161 CURVE SMOOTH",
"373 132 OFFCURVE",
"361 102 OFFCURVE",
"338 78 CURVE",
"262 78 OFFCURVE",
"163 123 OFFCURVE",
"86 167 CURVE"
);
}
);
width = 571;
}
);
unicode = 0033;
},
{
color = 3;
glyphname = four;
layers = (
{
layerId = "C1B4D31E-EC41-4663-B02D-6CE46EF34CA2";
name = Regular;
paths = (
{
closed = 1;
nodes = (
"129 219 LINE",
"370 580 LINE",
"405 553 LINE",
"419 656 LINE",
"346 670 LINE",
"17 244 LINE",
"48 163 LINE",
"543 163 LINE",
"573 191 LINE",
"570 261 LINE",
"93 250 LINE"
);
},
{
closed = 1;
nodes = (
"317 0 LINE",
"458 0 LINE",
"458 656 LINE",
"340 649 LINE",
"330 561 LINE",
"317 428 LINE"
);
},
{
closed = 1;
nodes = (
"341 0 LINE",
"349 88 LINE",
"300 74 OFFCURVE",
"243 55 OFFCURVE",
"201 33 CURVE",
"207 0 LINE"
);
},
{
closed = 1;
nodes = (
"531 0 LINE",
"535 52 LINE",
"396 74 LINE",
"394 0 LINE"
);
}
);
width = 598;
}
);
unicode = 0034;
},
{
color = 3;
glyphname = five;
layers = (
{
layerId = "C1B4D31E-EC41-4663-B02D-6CE46EF34CA2";
name = Regular;
paths = (
{
closed = 1;
nodes = (
"486 511 OFFCURVE",
"493 601 OFFCURVE",
"489 650 CURVE",
"349 643 LINE",
"384 461 LINE",
"474 462 LINE"
);
},
{
closed = 1;
nodes = (
"39 48 LINE",
"111 3 OFFCURVE",
"205 -22 OFFCURVE",
"279 -22 CURVE SMOOTH",
"429 -22 OFFCURVE",
"521 74 OFFCURVE",
"521 194 CURVE SMOOTH",
"521 334 OFFCURVE",
"395 399 OFFCURVE",
"283 400 CURVE SMOOTH",
"256 400 OFFCURVE",
"223 397 OFFCURVE",
"200 387 CURVE",
"216 567 LINE",
"447 555 LINE",
"457 650 LINE",
"104 650 LINE",
"72 323 LINE",
"124 272 LINE",
"155 283 OFFCURVE",
"190 289 OFFCURVE",
"221 289 CURVE SMOOTH",
"312 289 OFFCURVE",
"388 251 OFFCURVE",
"388 166 CURVE SMOOTH",
"388 140 OFFCURVE",
"381 109 OFFCURVE",
"346 76 CURVE",
"266 76 OFFCURVE",
"169 117 OFFCURVE",
"87 180 CURVE"
);
}
);
width = 565;
}
);
unicode = 0035;
},
{
color = 3;
glyphname = six;
layers = (
{
layerId = "C1B4D31E-EC41-4663-B02D-6CE46EF34CA2";
name = Regular;
paths = (
{
closed = 1;
nodes = (
"235 273 LINE",
"261 292 OFFCURVE",
"287 301 OFFCURVE",
"308 301 CURVE SMOOTH",
"361 301 OFFCURVE",
"395 243 OFFCURVE",
"395 178 CURVE SMOOTH",
"395 128 OFFCURVE",
"374 84 OFFCURVE",
"334 59 CURVE",
"232 53 OFFCURVE",
"182 154 OFFCURVE",
"182 275 CURVE SMOOTH",
"182 385 OFFCURVE",
"224 503 OFFCURVE",
"306 544 CURVE",
"479 517 LINE",
"479 661 LINE",
"163 662 OFFCURVE",
"36 443 OFFCURVE",
"36 263 CURVE SMOOTH",
"36 85 OFFCURVE",
"160 -20 OFFCURVE",
"304 -20 CURVE SMOOTH",
"449 -20 OFFCURVE",
"535 83 OFFCURVE",
"535 201 CURVE SMOOTH",
"535 313 OFFCURVE",
"457 396 OFFCURVE",
"359 396 CURVE SMOOTH",
"321 396 OFFCURVE",
"265 384 OFFCURVE",
"213 337 CURVE"
);
}
);
width = 564;
}
);
unicode = 0036;
},
{
color = 3;
glyphname = seven;
layers = (
{
layerId = "C1B4D31E-EC41-4663-B02D-6CE46EF34CA2";
name = Regular;
paths = (
{
closed = 1;
nodes = (
"451 650 LINE",
"30 650 LINE",
"76 546 LINE",
"356 557 LINE",
"363 549 LINE",
"252 387 OFFCURVE",
"163 213 OFFCURVE",
"83 28 CURVE",
"223 -19 LINE",
"298 187 OFFCURVE",
"385 377 OFFCURVE",
"494 562 CURVE"
);
},
{
closed = 1;
nodes = (
"133 450 LINE",
"164 643 LINE",
"24 650 LINE",
"20 601 OFFCURVE",
"27 500 OFFCURVE",
"39 451 CURVE"
);
}
);
width = 493;
}
);
unicode = 0037;
},
{
color = 3;
glyphname = eight;
layers = (
{
layerId = "C1B4D31E-EC41-4663-B02D-6CE46EF34CA2";
name = Regular;
paths = (
{
closed = 1;
nodes = (
"443 376 OFFCURVE",
"487 443 OFFCURVE",
"487 507 CURVE SMOOTH",
"487 593 OFFCURVE",
"410 668 OFFCURVE",
"277 668 CURVE SMOOTH",
"137 668 OFFCURVE",
"57 584 OFFCURVE",
"57 489 CURVE SMOOTH",
"57 419 OFFCURVE",
"101 364 OFFCURVE",
"174 322 CURVE",
"228 292 LINE",
"332 237 OFFCURVE",
"374 199 OFFCURVE",
"374 139 CURVE SMOOTH",
"374 113 OFFCURVE",
"366 91 OFFCURVE",
"349 63 CURVE",
"326 56 OFFCURVE",
"305 52 OFFCURVE",
"287 52 CURVE SMOOTH",
"217 52 OFFCURVE",
"180 101 OFFCURVE",
"180 158 CURVE SMOOTH",
"180 208 OFFCURVE",
"210 264 OFFCURVE",
"272 295 CURVE",
"220 352 LINE",
"104 318 OFFCURVE",
"38 242 OFFCURVE",
"38 157 CURVE SMOOTH",
"38 53 OFFCURVE",
"135 -21 OFFCURVE",
"273 -21 CURVE SMOOTH",
"413 -21 OFFCURVE",
"510 57 OFFCURVE",
"510 167 CURVE SMOOTH",
"510 273 OFFCURVE",
"422 329 OFFCURVE",
"331 378 CURVE SMOOTH",
"258 418 OFFCURVE",
"189 450 OFFCURVE",
"189 513 CURVE SMOOTH",
"189 534 OFFCURVE",
"197 559 OFFCURVE",
"217 583 CURVE",
"236 591 OFFCURVE",
"254 594 OFFCURVE",
"271 594 CURVE SMOOTH",
"327 594 OFFCURVE",
"366 553 OFFCURVE",
"366 500 CURVE SMOOTH",
"366 469 OFFCURVE",
"353 421 OFFCURVE",
"285 379 CURVE",
"344 335 LINE"
);
}
);
width = 548;
}
);
unicode = 0038;
},
{
color = 3;
glyphname = nine;
layers = (
{
layerId = "C1B4D31E-EC41-4663-B02D-6CE46EF34CA2";
name = Regular;
paths = (
{
closed = 1;
nodes = (
"237 308 OFFCURVE",
"176 375 OFFCURVE",
"176 460 CURVE SMOOTH",
"176 511 OFFCURVE",
"196 564 OFFCURVE",
"233 583 CURVE",
"337 606 OFFCURVE",
"378 490 OFFCURVE",
"378 370 CURVE SMOOTH",
"378 265 OFFCURVE",
"348 155 OFFCURVE",
"266 106 CURVE",
"85 140 LINE",
"108 -9 LINE",
"333 -20 OFFCURVE",
"519 137 OFFCURVE",
"519 373 CURVE SMOOTH",
"519 542 OFFCURVE",
"423 670 OFFCURVE",
"263 670 CURVE SMOOTH",
"128 670 OFFCURVE",
"28 580 OFFCURVE",
"28 450 CURVE SMOOTH",
"28 297 OFFCURVE",
"170 189 OFFCURVE",
"338 253 CURVE",
"327 331 LINE"
);
}
);
width = 547;
}
);
unicode = 0039;
},
{
color = 3;
glyphname = colon;
layers = (
{
layerId = "C1B4D31E-EC41-4663-B02D-6CE46EF34CA2";
name = Regular;
paths = (
{
closed = 1;
nodes = (
"244 112 OFFCURVE",
"209 144 OFFCURVE",
"163 163 CURVE",
"119 140 OFFCURVE",
"89 106 OFFCURVE",
"82 57 CURVE",
"101 18 OFFCURVE",
"133 -8 OFFCURVE",
"178 -20 CURVE",
"216 -1 OFFCURVE",
"242 30 OFFCURVE",
"255 71 CURVE"
);
},
{
closed = 1;
nodes = (
"244 420 OFFCURVE",
"209 452 OFFCURVE",
"163 471 CURVE",
"119 448 OFFCURVE",
"89 414 OFFCURVE",
"82 365 CURVE",
"101 326 OFFCURVE",
"133 301 OFFCURVE",
"178 288 CURVE",
"216 308 OFFCURVE",
"242 338 OFFCURVE",
"255 380 CURVE"
);
}
);
width = 351;
}
);
leftMetricsKey = period;
rightMetricsKey = period;
unicode = 003A;
},
{
color = 3;
glyphname = semicolon;
layers = (
{
layerId = "C1B4D31E-EC41-4663-B02D-6CE46EF34CA2";
name = Regular;
paths = (
{
closed = 1;
nodes = (
"222 420 OFFCURVE",
"187 452 OFFCURVE",
"141 471 CURVE",
"97 448 OFFCURVE",
"67 414 OFFCURVE",
"60 365 CURVE",
"79 326 OFFCURVE",
"111 301 OFFCURVE",
"156 288 CURVE",
"194 308 OFFCURVE",
"220 338 OFFCURVE",
"233 380 CURVE"
);
},
{
closed = 1;
nodes = (
"84 -143 LINE",
"167 -104 OFFCURVE",
"230 -23 OFFCURVE",
"230 48 CURVE SMOOTH",
"230 96 OFFCURVE",
"200 139 OFFCURVE",
"141 161 CURVE",
"100 139 OFFCURVE",
"69 106 OFFCURVE",
"62 57 CURVE",
"115 14 LINE",
"112 -21 OFFCURVE",
"87 -62 OFFCURVE",
"46 -97 CURVE"
);
}
);
width = 290;
}
);
leftMetricsKey = comma;
rightMetricsKey = comma;
unicode = 003B;
},
{
color = 3;
glyphname = less;
layers = (
{
layerId = "C1B4D31E-EC41-4663-B02D-6CE46EF34CA2";
name = Regular;
paths = (
{
closed = 1;
nodes = (
"68 272 LINE",
"73 202 LINE",
"462 -6 LINE",
"506 75 LINE",
"198 238 LINE",
"197 244 LINE",
"505 424 LINE",
"462 500 LINE"
);
}
);
width = 576;
}
);
unicode = 003C;
},
{
color = 3;
glyphname = equal;
layers = (
{
layerId = "C1B4D31E-EC41-4663-B02D-6CE46EF34CA2";
name = Regular;
paths = (
{
closed = 1;
nodes = (
"56 201 LINE",
"56 120 LINE",
"528 120 LINE",
"528 201 LINE"
);
},
{
closed = 1;
nodes = (
"56 385 LINE",
"56 304 LINE",
"528 304 LINE",
"528 385 LINE"
);
}
);
width = 584;
}
);
leftMetricsKey = minus;
rightMetricsKey = minus;
unicode = 003D;
},
{
color = 3;
glyphname = greater;
layers = (
{
layerId = "C1B4D31E-EC41-4663-B02D-6CE46EF34CA2";
name = Regular;
paths = (
{
closed = 1;
nodes = (
"379 244 LINE",
"378 238 LINE",
"70 75 LINE",
"114 -6 LINE",
"503 202 LINE",
"508 272 LINE",
"114 500 LINE",
"71 424 LINE"
);
}
);
width = 576;
}
);
unicode = 003E;
},
{
color = 3;
glyphname = question;
layers = (
{
layerId = "C1B4D31E-EC41-4663-B02D-6CE46EF34CA2";
name = Regular;
paths = (
{
closed = 1;
nodes = (
"198 460 LINE",
"249 626 LINE",
"93 627 LINE",
"91 608 OFFCURVE",
"99 524 OFFCURVE",
"112 460 CURVE"
);
},
{
closed = 1;
nodes = (
"360 359 OFFCURVE",
"522 367 OFFCURVE",
"522 510 CURVE SMOOTH",
"522 618 OFFCURVE",
"432 703 OFFCURVE",
"298 703 CURVE SMOOTH",
"214 703 OFFCURVE",
"145 670 OFFCURVE",
"93 628 CURVE",
"138 533 LINE",
"209 587 OFFCURVE",
"269 610 OFFCURVE",
"324 609 CURVE",
"359 591 OFFCURVE",
"378 557 OFFCURVE",
"378 519 CURVE SMOOTH",
"378 411 OFFCURVE",
"223 397 OFFCURVE",
"223 243 CURVE",
"347 243 LINE"
);
},
{
closed = 1;
nodes = (
"251 140 OFFCURVE",
"221 106 OFFCURVE",
"214 57 CURVE",
"233 18 OFFCURVE",
"265 -8 OFFCURVE",
"310 -20 CURVE",
"348 -1 OFFCURVE",
"374 30 OFFCURVE",
"387 71 CURVE",
"376 112 OFFCURVE",
"341 144 OFFCURVE",
"295 163 CURVE"
);
}
);
width = 622;
}
);
unicode = 003F;
},
{
color = 3;
glyphname = at;
layers = (
{
layerId = "C1B4D31E-EC41-4663-B02D-6CE46EF34CA2";
name = Regular;
paths = (
{
closed = 1;
nodes = (
"467 404 LINE",
"485 411 OFFCURVE",
"516 416 OFFCURVE",
"542 417 CURVE",
"570 403 OFFCURVE",
"590 378 OFFCURVE",
"590 315 CURVE SMOOTH",
"590 69 LINE",
"600 65 LINE",
"620 19 OFFCURVE",
"662 -19 OFFCURVE",
"735 -16 CURVE",
"915 11 OFFCURVE",
"1009 157 OFFCURVE",
"1009 311 CURVE SMOOTH",
"1009 503 OFFCURVE",
"862 709 OFFCURVE",
"548 709 CURVE SMOOTH",
"242 709 OFFCURVE",
"67 514 OFFCURVE",
"67 298 CURVE SMOOTH",
"67 183 OFFCURVE",
"117 62 OFFCURVE",
"221 -39 CURVE",
"302 12 LINE",
"241 95 OFFCURVE",
"211 188 OFFCURVE",
"211 275 CURVE SMOOTH",
"211 452 OFFCURVE",
"336 604 OFFCURVE",
"554 604 CURVE SMOOTH",
"762 604 OFFCURVE",
"867 465 OFFCURVE",
"867 306 CURVE SMOOTH",
"867 224 OFFCURVE",
"840 138 OFFCURVE",
"790 98 CURVE SMOOTH",
"767 80 OFFCURVE",
"735 69 OFFCURVE",
"735 112 CURVE SMOOTH",
"735 321 LINE SMOOTH",
"735 384 OFFCURVE",
"732 407 OFFCURVE",
"723 424 CURVE SMOOTH",
"699 461 OFFCURVE",
"643 495 OFFCURVE",
"592 495 CURVE SMOOTH",
"540 495 OFFCURVE",
"420 467 OFFCURVE",
"344 434 CURVE",
"341 387 OFFCURVE",
"349 341 OFFCURVE",
"365 293 CURVE",
"449 296 LINE"
);
},
{
closed = 1;
nodes = (
"343 196 OFFCURVE",
"320 150 OFFCURVE",
"320 110 CURVE SMOOTH",
"320 46 OFFCURVE",
"380 -29 OFFCURVE",
"496 -13 CURVE",
"619 64 LINE",
"610 106 LINE",
"582 95 OFFCURVE",
"530 75 OFFCURVE",
"486 74 CURVE",
"472 85 OFFCURVE",
"465 102 OFFCURVE",
"465 118 CURVE SMOOTH",
"465 167 OFFCURVE",
"535 174 OFFCURVE",
"593 171 CURVE",
"617 170 LINE",
"613 230 LINE",
"398 225 LINE"
);
}
);
width = 1067;
}
);
unicode = 0040;
},
{
color = 3;
glyphname = A;
layers = (
{
anchors = (
{
name = ogonek;
position = "{673, 1}";
},
{
name = top;
position = "{347, 650}";
}
);
layerId = "C1B4D31E-EC41-4663-B02D-6CE46EF34CA2";
name = Regular;
paths = (
{
closed = 1;
nodes = (
"33 0 LINE",
"142 0 LINE",
"378 620 LINE",
"295 642 LINE"
);
},
{
closed = 1;
nodes = (
"272 646 LINE",
"519 0 LINE",
"680 0 LINE",
"403 682 LINE"
);
},
{
closed = 1;
nodes = (
"183 258 LINE",
"183 182 LINE",
"495 182 LINE",
"495 258 LINE"
);
},
{
closed = 1;
nodes = (
"44 65 OFFCURVE",
"9 50 OFFCURVE",
"-20 32 CURVE",
"-14 0 LINE",
"80 0 LINE",
"79 79 LINE"
);
},
{
closed = 1;
nodes = (
"118 0 LINE",
"258 0 LINE",
"259 51 LINE",
"121 71 LINE"
);
},
{
closed = 1;
nodes = (
"468 65 OFFCURVE",
"433 50 OFFCURVE",
"404 32 CURVE",
"410 0 LINE",
"535 0 LINE",
"503 79 LINE"
);
},
{
closed = 1;
nodes = (
"585 0 LINE",
"725 0 LINE",
"726 51 LINE",
"588 71 LINE"
);
}
);
width = 719;
}
);
leftKerningGroup = A;
rightKerningGroup = A;
unicode = 0041;
},
{
color = 3;
glyphname = B;
layers = (
{
layerId = "C1B4D31E-EC41-4663-B02D-6CE46EF34CA2";
name = Regular;
paths = (
{
closed = 1;
nodes = (
"267 666 OFFCURVE",
"132 663 OFFCURVE",
"41 658 CURVE",
"254 572 LINE",
"372 588 LINE",
"419 577 OFFCURVE",
"451 527 OFFCURVE",
"451 481 CURVE SMOOTH",
"451 428 OFFCURVE",
"411 376 OFFCURVE",
"309 376 CURVE SMOOTH",
"235 376 LINE",
"235 314 LINE",
"317 322 LINE",
"448 345 LINE",
"557 351 OFFCURVE",
"605 429 OFFCURVE",
"605 497 CURVE SMOOTH",
"605 581 OFFCURVE",
"527 666 OFFCURVE",
"353 666 CURVE"
);
},
{
closed = 1;
nodes = (
"90 65 OFFCURVE",
"55 50 OFFCURVE",
"26 32 CURVE",
"32 0 LINE",
"126 0 LINE",
"125 79 LINE"
);
},
{
closed = 1;
nodes = (
"111 657 LINE",
"111 0 LINE",
"263 0 LINE",
"263 657 LINE"
);
},
{
closed = 1;
nodes = (
"259 336 LINE",
"242 310 LINE",
"345 310 LINE SMOOTH",
"429 310 OFFCURVE",
"476 244 OFFCURVE",
"476 184 CURVE SMOOTH",
"476 126 OFFCURVE",
"434 69 OFFCURVE",
"343 77 CURVE SMOOTH",
"242 87 LINE",
"239 0 LINE",
"361 0 LINE SMOOTH",
"558 0 OFFCURVE",
"637 89 OFFCURVE",
"637 182 CURVE SMOOTH",
"637 279 OFFCURVE",
"552 365 OFFCURVE",
"391 352 CURVE"
);
},
{
closed = 1;
nodes = (
"41 658 LINE",
"40 607 LINE",
"153 593 LINE",
"153 658 LINE"
);
}
);
width = 668;
}
);
leftKerningGroup = I;
leftMetricsKey = I;
unicode = 0042;
},
{
color = 3;
glyphname = C;
layers = (
{
anchors = (
{
name = bottom;
position = "{328, 0}";
},
{
name = top;
position = "{328, 650}";
}
);
layerId = "C1B4D31E-EC41-4663-B02D-6CE46EF34CA2";
name = Regular;
paths = (
{
closed = 1;
nodes = (
"546 143 LINE",
"381 89 LINE",
"239 84 OFFCURVE",
"166 200 OFFCURVE",
"166 345 CURVE SMOOTH",
"166 435 OFFCURVE",
"194 537 OFFCURVE",
"264 590 CURVE",
"371 590 OFFCURVE",
"451 552 OFFCURVE",
"523 490 CURVE",
"553 615 LINE",
"513 643 OFFCURVE",
"447 678 OFFCURVE",
"347 678 CURVE SMOOTH",
"120 678 OFFCURVE",
"11 498 OFFCURVE",
"11 321 CURVE SMOOTH",
"11 155 OFFCURVE",
"105 -24 OFFCURVE",
"365 -16 CURVE",
"570 72 LINE"
);
},
{
closed = 1;
nodes = (
"531 435 LINE",
"548 491 OFFCURVE",
"556 575 OFFCURVE",
"553 615 CURVE",
"409 593 LINE",
"439 435 LINE"
);
}
);
width = 582;
}
);
leftKerningGroup = O;
leftMetricsKey = O;
rightKerningGroup = C;
unicode = 0043;
},
{
color = 3;
glyphname = D;
layers = (
{
anchors = (
{
name = bottom;
position = "{181, 0}";
},
{
name = center;
position = "{362, 325}";
},
{
name = top;
position = "{342, 650}";
}
);
layerId = "C1B4D31E-EC41-4663-B02D-6CE46EF34CA2";
name = Regular;
paths = (
{
closed = 1;
nodes = (
"254 666 OFFCURVE",
"149 664 OFFCURVE",
"41 658 CURVE",
"251 572 LINE",
"408 588 LINE",
"482 544 OFFCURVE",
"532 438 OFFCURVE",
"532 328 CURVE SMOOTH",
"532 207 OFFCURVE",
"471 83 OFFCURVE",
"339 83 CURVE SMOOTH",
"307 83 OFFCURVE",
"272 90 OFFCURVE",
"232 105 CURVE",
"240 0 LINE",
"346 0 LINE SMOOTH",
"584 0 OFFCURVE",
"692 164 OFFCURVE",
"692 334 CURVE SMOOTH",
"692 496 OFFCURVE",
"577 666 OFFCURVE",
"362 666 CURVE SMOOTH"
);
},
{
closed = 1;
nodes = (
"90 65 OFFCURVE",
"55 50 OFFCURVE",
"26 32 CURVE",
"32 0 LINE",
"126 0 LINE",
"125 79 LINE"
);
},
{
closed = 1;
nodes = (
"111 657 LINE",
"111 0 LINE",
"263 0 LINE",
"263 657 LINE"
);
},
{
closed = 1;
nodes = (
"41 658 LINE",
"40 607 LINE",
"153 593 LINE",
"153 658 LINE"
);
}
);
width = 706;
}
);
leftKerningGroup = I;
leftMetricsKey = I;
rightKerningGroup = O;
rightMetricsKey = O;
unicode = 0044;
},
{
color = 3;
glyphname = E;
layers = (
{
anchors = (
{
name = bottom;
position = "{311, 0}";
},
{
name = ogonek;
position = "{578, 1}";
},
{
name = top;
position = "{311, 650}";
}
);
layerId = "C1B4D31E-EC41-4663-B02D-6CE46EF34CA2";
name = Regular;
paths = (
{
closed = 1;
nodes = (
"111 658 LINE",
"111 0 LINE",
"263 0 LINE",
"263 658 LINE"
);
},
{
closed = 1;
nodes = (
"90 65 OFFCURVE",
"55 50 OFFCURVE",
"26 32 CURVE",
"32 0 LINE",
"126 0 LINE",
"125 79 LINE"
);
},
{
closed = 1;
nodes = (
"233 81 LINE",
"158 0 LINE",
"555 0 LINE",
"546 102 LINE"
);
},
{
closed = 1;
nodes = (
"238 363 LINE",
"238 291 LINE",
"478 281 LINE",
"478 382 LINE"
);
},
{
closed = 1;
nodes = (
"154 658 LINE",
"229 582 LINE",
"544 560 LINE",
"559 658 LINE"
);
},
{
closed = 1;
nodes = (
"38 658 LINE",
"37 607 LINE",
"150 593 LINE",
"150 658 LINE"
);
},
{
closed = 1;
nodes = (
"428 24 LINE",
"555 0 LINE",
"563 54 OFFCURVE",
"569 143 OFFCURVE",
"567 199 CURVE",
"483 205 LINE"
);
},
{
closed = 1;
nodes = (
"544 468 LINE",
"557 533 OFFCURVE",
"562 619 OFFCURVE",
"560 658 CURVE",
"432 631 LINE",
"460 468 LINE"
);
}
);
width = 617;
}
);
leftKerningGroup = I;
leftMetricsKey = I;
rightKerningGroup = E;
unicode = 0045;
},
{
color = 3;
glyphname = F;
layers = (
{
anchors = (
{
name = bottom;
position = "{174, 0}";
},
{
name = top;
position = "{174, 390}";
}
);
layerId = "C1B4D31E-EC41-4663-B02D-6CE46EF34CA2";
name = Regular;
paths = (
{
closed = 1;
nodes = (
"108 658 LINE",
"108 0 LINE",
"260 0 LINE",
"260 658 LINE"
);
},
{
closed = 1;
nodes = (
"91 65 OFFCURVE",
"56 50 OFFCURVE",
"27 32 CURVE",
"33 0 LINE",
"127 0 LINE",
"126 79 LINE"
);
},
{
closed = 1;
nodes = (
"239 0 LINE",
"379 0 LINE",
"380 51 LINE",
"242 71 LINE"
);
},
{
closed = 1;
nodes = (
"243 345 LINE",
"243 268 LINE",
"483 257 LINE",
"483 362 LINE"
);
},
{
closed = 1;
nodes = (
"159 658 LINE",
"234 582 LINE",
"530 561 LINE",
"556 658 LINE"
);
},
{
closed = 1;
nodes = (
"35 658 LINE",
"34 607 LINE",
"147 593 LINE",
"147 658 LINE"
);
},
{
closed = 1;
nodes = (
"541 464 LINE",
"554 529 OFFCURVE",
"559 619 OFFCURVE",
"557 658 CURVE",
"429 631 LINE",
"457 464 LINE"
);
}
);
width = 599;
}
);
leftKerningGroup = I;
leftMetricsKey = I;
rightMetricsKey = E;
unicode = 0046;
},
{
color = 3;
glyphname = G;
layers = (
{
anchors = (
{
name = bottom;
position = "{348, 0}";
},
{
name = top;
position = "{348, 650}";
}
);
layerId = "C1B4D31E-EC41-4663-B02D-6CE46EF34CA2";
name = Regular;
paths = (
{
closed = 1;
nodes = (
"136 678 OFFCURVE",
"11 501 OFFCURVE",
"11 316 CURVE SMOOTH",
"11 154 OFFCURVE",
"113 -35 OFFCURVE",
"384 -20 CURVE",
"597 69 LINE",
"553 113 LINE",
"510 96 OFFCURVE",
"432 76 OFFCURVE",
"370 78 CURVE SMOOTH",
"233 81 OFFCURVE",
"166 206 OFFCURVE",
"166 336 CURVE SMOOTH",
"166 437 OFFCURVE",
"197 538 OFFCURVE",
"270 590 CURVE",
"428 599 OFFCURVE",
"530 519 OFFCURVE",
"559 495 CURVE",
"589 617 LINE",
"555 641 OFFCURVE",
"481 678 OFFCURVE",
"376 678 CURVE SMOOTH"
);
},
{
closed = 1;
nodes = (
"357 269 LINE",
"394 248 OFFCURVE",
"439 230 OFFCURVE",
"477 216 CURVE",
"468 303 LINE",
"363 303 LINE"
);
},
{
closed = 1;
nodes = (
"457 62 LINE",
"597 69 LINE",
"597 303 LINE",
"457 303 LINE"
);
},
{
closed = 1;
nodes = (
"507 303 LINE",
"527 225 LINE",
"673 255 LINE",
"672 303 LINE"
);
},
{
closed = 1;
nodes = (
"568 447 LINE",
"585 506 OFFCURVE",
"592 578 OFFCURVE",
"589 617 CURVE",
"445 596 LINE",
"477 447 LINE"
);
}
);
width = 695;
}
);
leftKerningGroup = O;
leftMetricsKey = O;
rightKerningGroup = G;
unicode = 0047;
},
{
color = 3;
glyphname = H;
layers = (
{
anchors = (
{
name = center;
position = "{402, 325}";
},
{
name = top;
position = "{402, 650}";
}
);
layerId = "C1B4D31E-EC41-4663-B02D-6CE46EF34CA2";
name = Regular;
paths = (
{
closed = 1;
nodes = (
"172 587 LINE",
"175 658 LINE",
"35 658 LINE",
"34 607 LINE"
);
},
{
closed = 1;
nodes = (
"111 658 LINE",
"111 0 LINE",
"263 0 LINE",
"263 658 LINE"
);
},
{
closed = 1;
nodes = (
"247 658 LINE",
"248 579 LINE",
"284 593 OFFCURVE",
"318 608 OFFCURVE",
"347 626 CURVE",
"341 658 LINE"
);
},
{
closed = 1;
nodes = (
"456 658 LINE",
"455 607 LINE",
"593 587 LINE",
"596 658 LINE"
);
},
{
closed = 1;
nodes = (
"532 658 LINE",
"532 0 LINE",
"684 0 LINE",
"684 658 LINE"
);
},
{
closed = 1;
nodes = (
"669 658 LINE",
"670 579 LINE",
"706 593 OFFCURVE",
"740 608 OFFCURVE",
"769 626 CURVE",
"763 658 LINE"
);
},
{
closed = 1;
nodes = (
"224 370 LINE",
"224 284 LINE",
"588 284 LINE",
"588 370 LINE"
);
},
{
closed = 1;
nodes = (
"90 65 OFFCURVE",
"55 50 OFFCURVE",
"26 32 CURVE",
"32 0 LINE",
"126 0 LINE",
"125 79 LINE"
);
},
{
closed = 1;
nodes = (
"214 0 LINE",
"354 0 LINE",
"355 51 LINE",
"217 71 LINE"
);
},
{
closed = 1;
nodes = (
"511 65 OFFCURVE",
"476 50 OFFCURVE",
"447 32 CURVE",
"453 0 LINE",
"547 0 LINE",
"546 79 LINE"
);
},
{
closed = 1;
nodes = (
"636 0 LINE",
"776 0 LINE",
"777 51 LINE",
"639 71 LINE"
);
}
);
width = 803;
}
);
leftKerningGroup = I;
leftMetricsKey = I;
rightKerningGroup = I;
rightMetricsKey = I;
unicode = 0048;
},
{
color = 3;
glyphname = I;
layers = (
{
anchors = (
{
name = ogonek;
position = "{291, 1}";
},
{
name = top;
position = "{188, 650}";
}
);
layerId = "C1B4D31E-EC41-4663-B02D-6CE46EF34CA2";
name = Regular;
paths = (
{
closed = 1;
nodes = (
"263 0 LINE",
"263 658 LINE",
"111 658 LINE",
"111 0 LINE"
);
},
{
closed = 1;
nodes = (
"126 0 LINE",
"125 79 LINE",
"90 65 OFFCURVE",
"55 50 OFFCURVE",
"26 32 CURVE",
"32 0 LINE"
);
},
{
closed = 1;
nodes = (
"354 0 LINE",
"355 51 LINE",
"217 71 LINE",
"214 0 LINE"
);
},
{
closed = 1;
nodes = (
"35 658 LINE",
"34 607 LINE",
"172 587 LINE",
"175 658 LINE"
);
},
{
closed = 1;
nodes = (
"247 658 LINE",
"248 579 LINE",
"284 593 OFFCURVE",
"318 608 OFFCURVE",
"347 626 CURVE",
"341 658 LINE"
);
}
);
width = 382;
}
);
leftKerningGroup = I;
rightKerningGroup = I;
unicode = 0049;
},
{
color = 3;
glyphname = J;
layers = (
{
anchors = (
{
name = top;
position = "{203, 650}";
}
);
layerId = "C1B4D31E-EC41-4663-B02D-6CE46EF34CA2";
name = Regular;
paths = (
{
closed = 1;
nodes = (
"37 658 LINE",
"36 607 LINE",
"174 587 LINE",
"177 658 LINE"
);
},
{
closed = 1;
nodes = (
"125 658 LINE",
"125 140 LINE SMOOTH",
"125 -16 OFFCURVE",
"66 -78 OFFCURVE",
"-18 -131 CURVE",
"17 -186 LINE",
"163 -128 OFFCURVE",
"276 -47 OFFCURVE",
"276 129 CURVE SMOOTH",
"276 658 LINE"
);
},
{
closed = 1;
nodes = (
"262 658 LINE",
"263 579 LINE",
"299 593 OFFCURVE",
"333 608 OFFCURVE",
"362 626 CURVE",
"356 658 LINE"
);
}
);
width = 386;
}
);
unicode = 004A;
},
{
color = 3;
glyphname = K;
layers = (
{
anchors = (
{
name = bottom;
position = "{387, 0}";
},
{
name = top;
position = "{363, 650}";
}
);
layerId = "C1B4D31E-EC41-4663-B02D-6CE46EF34CA2";
name = Regular;
paths = (
{
closed = 1;
nodes = (
"540 658 LINE",
"211 305 LINE",
"228 206 LINE",
"616 617 LINE",
"620 658 LINE"
);
},
{
closed = 1;
nodes = (
"90 65 OFFCURVE",
"55 50 OFFCURVE",
"26 32 CURVE",
"32 0 LINE",
"126 0 LINE",
"125 79 LINE"
);
},
{
closed = 1;
nodes = (
"206 0 LINE",
"346 0 LINE",
"347 51 LINE",
"209 71 LINE"
);
},
{
closed = 1;
nodes = (
"111 658 LINE",
"111 0 LINE",
"263 0 LINE",
"263 658 LINE"
);
},
{
closed = 1;
nodes = (
"247 658 LINE",
"248 579 LINE",
"284 593 OFFCURVE",
"318 608 OFFCURVE",
"347 626 CURVE",
"341 658 LINE"
);
},
{
closed = 1;
nodes = (
"419 658 LINE",
"418 607 LINE",
"556 587 LINE",
"559 658 LINE"
);
},
{
closed = 1;
nodes = (
"561 658 LINE",
"562 579 LINE",
"598 592 OFFCURVE",
"644 608 OFFCURVE",
"673 626 CURVE",
"667 658 LINE"
);
},
{
closed = 1;
nodes = (
"34 658 LINE",
"33 607 LINE",
"171 587 LINE",
"174 658 LINE"
);
},
{
closed = 1;
nodes = (
"293 301 LINE",
"508 0 LINE",
"694 0 LINE",
"398 398 LINE"
);
},
{
closed = 1;
nodes = (
"597 0 LINE",
"709 0 LINE",
"710 52 LINE",
"597 70 LINE"
);
}
);
width = 719;
}
);
leftKerningGroup = I;
leftMetricsKey = I;
rightKerningGroup = K;
unicode = 004B;
},
{
color = 3;
glyphname = L;
layers = (
{
anchors = (
{
name = bottom;
position = "{302, 0}";
},
{
name = top;
position = "{195, 650}";
},
{
name = topright;
position = "{527, 650}";
}
);
layerId = "C1B4D31E-EC41-4663-B02D-6CE46EF34CA2";
name = Regular;
paths = (
{
closed = 1;
nodes = (
"35 658 LINE",
"34 607 LINE",
"172 587 LINE",
"175 658 LINE"
);
},
{
closed = 1;
nodes = (
"247 658 LINE",
"248 579 LINE",
"284 593 OFFCURVE",
"318 608 OFFCURVE",
"347 626 CURVE",
"341 658 LINE"
);
},
{
closed = 1;
nodes = (
"90 65 OFFCURVE",
"55 50 OFFCURVE",
"26 32 CURVE",
"32 0 LINE",
"126 0 LINE",
"125 79 LINE"
);
},
{
closed = 1;
nodes = (
"237 82 LINE",
"162 0 LINE",
"575 0 LINE",
"558 107 LINE"
);
},
{
closed = 1;
nodes = (
"111 658 LINE",
"111 0 LINE",
"263 0 LINE",
"263 658 LINE"
);
},
{
closed = 1;
nodes = (
"441 24 LINE",
"576 0 LINE",
"587 61 OFFCURVE",
"591 163 OFFCURVE",
"589 230 CURVE",
"502 238 LINE"
);
}
);
width = 596;
}
);
leftKerningGroup = I;
leftMetricsKey = I;
rightKerningGroup = L;
unicode = 004C;
},
{
color = 3;
glyphname = M;
layers = (
{
layerId = "C1B4D31E-EC41-4663-B02D-6CE46EF34CA2";
name = Regular;
paths = (
{
closed = 1;
nodes = (
"47 650 LINE",
"46 603 LINE",
"184 575 LINE",
"187 650 LINE"
);
},
{
closed = 1;
nodes = (
"130 650 LINE",
"112 0 LINE",
"223 0 LINE",
"229 342 LINE",
"208 561 LINE",
"311 650 LINE"
);
},
{
closed = 1;
nodes = (
"89 65 OFFCURVE",
"54 50 OFFCURVE",
"25 32 CURVE",
"31 0 LINE",
"125 0 LINE",
"124 79 LINE"
);
},
{
closed = 1;
nodes = (
"167 0 LINE",
"307 0 LINE",
"308 47 LINE SMOOTH",
"170 75 LINE"
);
},
{
closed = 1;
nodes = (
"178 605 LINE",
"399 -7 LINE",
"514 16 LINE",
"505 105 LINE",
"310 650 LINE"
);
},
{
closed = 1;
nodes = (
"443 36 LINE",
"514 16 LINE",
"736 613 LINE",
"668 650 LINE"
);
},
{
closed = 1;
nodes = (
"668 650 LINE",
"703 566 LINE",
"685 342 LINE",
"689 0 LINE",
"835 0 LINE",
"824 650 LINE"
);
},
{
closed = 1;
nodes = (
"807 650 LINE",
"808 571 LINE",
"844 585 OFFCURVE",
"878 600 OFFCURVE",
"907 618 CURVE",
"901 650 LINE"
);
},
{
closed = 1;
nodes = (
"667 65 OFFCURVE",
"632 50 OFFCURVE",
"603 32 CURVE",
"609 0 LINE",
"703 0 LINE",
"702 79 LINE"
);
},
{
closed = 1;
nodes = (
"787 0 LINE",
"927 0 LINE",
"928 47 LINE",
"790 75 LINE"
);
}
);
width = 954;
}
);
leftKerningGroup = I;
leftMetricsKey = I;
rightKerningGroup = I;
rightMetricsKey = I;
unicode = 004D;
},
{
color = 3;
glyphname = N;
layers = (
{
anchors = (
{
name = bottom;
position = "{389, 0}";
},
{
name = top;
position = "{367, 650}";
}
);
layerId = "C1B4D31E-EC41-4663-B02D-6CE46EF34CA2";
name = Regular;
paths = (
{
closed = 1;
nodes = (
"167 0 LINE",
"307 0 LINE",
"308 51 LINE",
"170 71 LINE"
);
},
{
closed = 1;
nodes = (
"90 65 OFFCURVE",
"55 50 OFFCURVE",
"26 32 CURVE",
"32 0 LINE",
"126 0 LINE",
"125 79 LINE"
);
},
{
closed = 1;
nodes = (
"111 658 LINE",
"111 0 LINE",
"220 0 LINE",
"220 349 LINE",
"194 567 LINE",
"264 658 LINE"
);
},
{
closed = 1;
nodes = (
"42 658 LINE",
"41 607 LINE",
"171 587 LINE",
"174 658 LINE"
);
},
{
closed = 1;
nodes = (
"141 658 LINE",
"139 574 LINE",
"521 -13 LINE",
"620 19 LINE",
"629 86 LINE",
"263 658 LINE"
);
},
{
closed = 1;
nodes = (
"461 658 LINE",
"460 607 LINE",
"598 587 LINE",
"601 658 LINE"
);
},
{
closed = 1;
nodes = (
"557 658 LINE",
"557 301 LINE",
"588 46 LINE",
"521 -13 LINE",
"662 0 LINE",
"666 658 LINE"
);
},
{
closed = 1;
nodes = (
"647 658 LINE",
"648 579 LINE",
"684 593 OFFCURVE",
"718 608 OFFCURVE",
"747 626 CURVE",
"741 658 LINE"
);
}
);
width = 774;
}
);
leftKerningGroup = I;
leftMetricsKey = I;
rightKerningGroup = I;
rightMetricsKey = I;
unicode = 004E;
},
{
color = 3;
glyphname = O;
layers = (
{
anchors = (
{
name = top;
position = "{337, 650}";
}
);
layerId = "C1B4D31E-EC41-4663-B02D-6CE46EF34CA2";
name = Regular;
paths = (
{
closed = 1;
nodes = (
"154 678 OFFCURVE",
"14 539 OFFCURVE",
"14 325 CURVE SMOOTH",
"14 96 OFFCURVE",
"173 -20 OFFCURVE",
"342 -20 CURVE SMOOTH",
"506 -20 OFFCURVE",
"661 91 OFFCURVE",
"661 320 CURVE SMOOTH",
"661 549 OFFCURVE",
"508 678 OFFCURVE",
"334 678 CURVE SMOOTH"
);
},
{
closed = 1;
nodes = (
"273 585 OFFCURVE",
"298 590 OFFCURVE",
"321 590 CURVE SMOOTH",
"444 590 OFFCURVE",
"500 456 OFFCURVE",
"500 317 CURVE SMOOTH",
"500 209 OFFCURVE",
"466 117 OFFCURVE",
"416 77 CURVE",
"397 72 OFFCURVE",
"380 68 OFFCURVE",
"359 68 CURVE SMOOTH",
"235 68 OFFCURVE",
"174 190 OFFCURVE",
"174 343 CURVE SMOOTH",
"174 450 OFFCURVE",
"205 539 OFFCURVE",
"248 576 CURVE"
);
}
);
width = 675;
}
);
leftKerningGroup = O;
rightKerningGroup = O;
unicode = 004F;
},
{
color = 3;
glyphname = P;
layers = (
{
layerId = "C1B4D31E-EC41-4663-B02D-6CE46EF34CA2";
name = Regular;
paths = (
{
closed = 1;
nodes = (
"35 658 LINE",
"247 572 LINE",
"399 588 LINE",
"440 565 OFFCURVE",
"460 505 OFFCURVE",
"460 451 CURVE SMOOTH",
"460 383 OFFCURVE",
"424 318 OFFCURVE",
"337 318 CURVE SMOOTH",
"315 318 OFFCURVE",
"269 322 OFFCURVE",
"232 333 CURVE",
"229 237 LINE",
"367 238 LINE SMOOTH",
"522 238 OFFCURVE",
"617 335 OFFCURVE",
"617 449 CURVE SMOOTH",
"617 559 OFFCURVE",
"529 667 OFFCURVE",
"358 666 CURVE SMOOTH"
);
},
{
closed = 1;
nodes = (
"91 65 OFFCURVE",
"56 50 OFFCURVE",
"27 32 CURVE",
"33 0 LINE",
"127 0 LINE",
"126 79 LINE"
);
},
{
closed = 1;
nodes = (
"239 0 LINE",
"379 0 LINE",
"380 51 LINE",
"242 71 LINE"
);
},
{
closed = 1;
nodes = (
"108 658 LINE",
"108 0 LINE",
"260 0 LINE",
"260 658 LINE"
);
},
{
closed = 1;
nodes = (
"35 658 LINE",
"34 607 LINE",
"147 593 LINE",
"147 658 LINE"
);
}
);
width = 632;
}
);
leftKerningGroup = I;
leftMetricsKey = I;
unicode = 0050;
},
{
color = 3;
glyphname = Q;
layers = (
{
components = (
{
name = O;
}
);
layerId = "C1B4D31E-EC41-4663-B02D-6CE46EF34CA2";
name = Regular;
paths = (
{
closed = 1;
nodes = (
"352 -3 LINE",
"676 -182 LINE",
"743 -48 LINE",
"387 42 LINE"
);
}
);
width = 713;
}
);
leftKerningGroup = O;
leftMetricsKey = O;
rightKerningGroup = O;
unicode = 0051;
},
{
color = 3;
glyphname = R;
layers = (
{
anchors = (
{
name = bottom;
position = "{336, 0}";
},
{
name = top;
position = "{318, 650}";
}
);
layerId = "C1B4D31E-EC41-4663-B02D-6CE46EF34CA2";
name = Regular;
paths = (
{
closed = 1;
nodes = (
"38 658 LINE",
"252 572 LINE",
"402 588 LINE",
"443 560 OFFCURVE",
"462 511 OFFCURVE",
"462 460 CURVE SMOOTH",
"462 393 OFFCURVE",
"430 331 OFFCURVE",
"328 331 CURVE SMOOTH",
"301 331 OFFCURVE",
"264 336 OFFCURVE",
"227 348 CURVE",
"232 254 LINE",
"374 255 LINE SMOOTH",
"524 256 OFFCURVE",
"619 356 OFFCURVE",
"619 463 CURVE SMOOTH",
"619 570 OFFCURVE",
"524 666 OFFCURVE",
"357 666 CURVE"
);
},
{
closed = 1;
nodes = (
"90 65 OFFCURVE",
"55 50 OFFCURVE",
"26 32 CURVE",
"32 0 LINE",
"126 0 LINE",
"125 79 LINE"
);
},
{
closed = 1;
nodes = (
"212 0 LINE",
"352 0 LINE",
"353 51 LINE",
"215 71 LINE"
);
},
{
closed = 1;
nodes = (
"111 658 LINE",
"111 0 LINE",
"263 0 LINE",
"263 658 LINE"
);
},
{
closed = 1;
nodes = (
"38 658 LINE",
"37 607 LINE",
"150 593 LINE",
"150 658 LINE"
);
},
{
closed = 1;
nodes = (
"325 294 LINE",
"482 0 LINE",
"656 0 LINE",
"469 303 LINE"
);
},
{
closed = 1;
nodes = (
"542 0 LINE",
"682 0 LINE",
"683 51 LINE",
"545 69 LINE"
);
}
);
width = 692;
}
);
leftKerningGroup = I;
leftMetricsKey = I;
rightKerningGroup = R;
unicode = 0052;
},
{
color = 3;
glyphname = S;
layers = (
{
anchors = (
{
name = bottom;
position = "{285, 0}";
},
{
name = top;
position = "{297, 650}";
}
);
layerId = "C1B4D31E-EC41-4663-B02D-6CE46EF34CA2";
name = Regular;
paths = (
{
closed = 1;
nodes = (
"167 678 OFFCURVE",
"54 602 OFFCURVE",
"54 481 CURVE SMOOTH",
"54 368 OFFCURVE",
"153 317 OFFCURVE",
"241 275 CURVE SMOOTH",
"325 236 OFFCURVE",
"388 208 OFFCURVE",
"388 145 CURVE SMOOTH",
"388 115 OFFCURVE",
"372 80 OFFCURVE",
"333 61 CURVE",
"254 61 OFFCURVE",
"156 84 OFFCURVE",
"90 166 CURVE",
"53 44 LINE",
"114 3 OFFCURVE",
"219 -20 OFFCURVE",
"291 -20 CURVE SMOOTH",
"423 -20 OFFCURVE",
"539 53 OFFCURVE",
"539 181 CURVE SMOOTH",
"539 300 OFFCURVE",
"445 350 OFFCURVE",
"353 393 CURVE SMOOTH",
"268 433 OFFCURVE",
"198 460 OFFCURVE",
"198 518 CURVE SMOOTH",
"198 546 OFFCURVE",
"213 580 OFFCURVE",
"244 599 CURVE",
"321 601 OFFCURVE",
"397 580 OFFCURVE",
"455 518 CURVE",
"509 642 LINE",
"460 660 OFFCURVE",
"381 678 OFFCURVE",
"311 678 CURVE SMOOTH"
);
},
{
closed = 1;
nodes = (
"492 459 LINE",
"505 519 OFFCURVE",
"509 595 OFFCURVE",
"509 642 CURVE",
"368 629 LINE",
"412 459 LINE"
);
},
{
closed = 1;
nodes = (
"56 174 OFFCURVE",
"49 84 OFFCURVE",
"53 44 CURVE",
"207 39 LINE",
"140 230 LINE",
"68 230 LINE"
);
}
);
width = 578;
}
);
leftKerningGroup = S;
rightKerningGroup = S;
unicode = 0053;
},
{
color = 3;
glyphname = T;
layers = (
{
anchors = (
{
name = bottom;
position = "{323, 0}";
},
{
name = center;
position = "{323, 325}";
},
{
name = top;
position = "{323, 650}";
}
);
layerId = "C1B4D31E-EC41-4663-B02D-6CE46EF34CA2";
name = Regular;
paths = (
{
closed = 1;
nodes = (
"247 658 LINE",
"247 0 LINE",
"399 0 LINE",
"399 658 LINE"
);
},
{
closed = 1;
nodes = (
"218 65 OFFCURVE",
"174 50 OFFCURVE",
"145 32 CURVE",
"151 0 LINE",
"254 0 LINE",
"253 79 LINE"
);
},
{
closed = 1;
nodes = (
"360 0 LINE",
"500 0 LINE",
"501 51 LINE",
"363 71 LINE"
);
},
{
closed = 1;
nodes = (
"400 658 OFFCURVE",
"249 658 OFFCURVE",
"9 664 CURVE",
"26 572 LINE",
"323 595 LINE",
"619 572 LINE",
"636 664 LINE"
);
},
{
closed = 1;
nodes = (
"620 453 LINE",
"633 517 OFFCURVE",
"640 625 OFFCURVE",
"636 664 CURVE",
"519 635 LINE",
"540 453 LINE SMOOTH"
);
},
{
closed = 1;
nodes = (
"126 635 LINE",
"9 664 LINE",
"5 625 OFFCURVE",
"12 517 OFFCURVE",
"25 453 CURVE",
"105 453 LINE"
);
}
);
width = 645;
}
);
leftKerningGroup = T;
rightKerningGroup = T;
unicode = 0054;
},
{
color = 3;
glyphname = U;
layers = (
{
anchors = (
{
name = ogonek;
position = "{504, 1}";
},
{
name = top;
position = "{370, 650}";
}
);
layerId = "C1B4D31E-EC41-4663-B02D-6CE46EF34CA2";
name = Regular;
paths = (
{
closed = 1;
nodes = (
"536 658 LINE",
"536 284 LINE SMOOTH",
"536 192 OFFCURVE",
"518 127 OFFCURVE",
"485 96 CURVE",
"461 81 OFFCURVE",
"433 72 OFFCURVE",
"398 72 CURVE SMOOTH",
"301 72 OFFCURVE",
"237 135 OFFCURVE",
"237 265 CURVE SMOOTH",
"237 658 LINE",
"85 658 LINE",
"85 295 LINE SMOOTH",
"85 84 OFFCURVE",
"213 -19 OFFCURVE",
"384 -19 CURVE SMOOTH",
"535 -19 OFFCURVE",
"644 62 OFFCURVE",
"644 291 CURVE SMOOTH",
"644 658 LINE"
);
},
{
closed = 1;
nodes = (
"9 658 LINE",
"8 607 LINE",
"146 587 LINE",
"149 658 LINE"
);
},
{
closed = 1;
nodes = (
"221 658 LINE",
"222 579 LINE",
"258 593 OFFCURVE",
"292 608 OFFCURVE",
"321 626 CURVE",
"315 658 LINE"
);
},
{
closed = 1;
nodes = (
"452 658 LINE",
"451 607 LINE",
"589 587 LINE",
"592 658 LINE"
);
},
{
closed = 1;
nodes = (
"628 658 LINE",
"629 579 LINE",
"665 593 OFFCURVE",
"699 608 OFFCURVE",
"728 626 CURVE",
"722 658 LINE"
);
}
);
width = 737;
}
);
leftKerningGroup = U;
rightKerningGroup = U;
unicode = 0055;
},
{
color = 3;
glyphname = V;
layers = (
{
layerId = "C1B4D31E-EC41-4663-B02D-6CE46EF34CA2";
name = Regular;
paths = (
{
closed = 1;
nodes = (
"51 658 LINE",
"287 -14 LINE",
"336 -12 OFFCURVE",
"388 -7 OFFCURVE",
"428 0 CURVE",
"384 101 LINE",
"359 102 LINE",
"347 232 LINE",
"208 658 LINE"
);
},
{
closed = 1;
nodes = (
"-1 658 LINE",
"-2 607 LINE",
"136 587 LINE",
"139 658 LINE"
);
},
{
closed = 1;
nodes = (
"428 0 LINE",
"658 658 LINE",
"553 658 LINE",
"344 35 LINE"
);
},
{
closed = 1;
nodes = (
"203 658 LINE",
"216 579 LINE",
"252 593 OFFCURVE",
"286 608 OFFCURVE",
"315 626 CURVE",
"309 658 LINE"
);
},
{
closed = 1;
nodes = (
"444 658 LINE",
"443 607 LINE",
"581 587 LINE",
"584 658 LINE"
);
},
{
closed = 1;
nodes = (
"599 658 LINE",
"612 579 LINE",
"648 593 OFFCURVE",
"682 608 OFFCURVE",
"711 626 CURVE",
"705 658 LINE"
);
}
);
width = 709;
}
);
leftKerningGroup = V;
rightKerningGroup = V;
unicode = 0056;
},
{
color = 3;
glyphname = W;
layers = (
{
anchors = (
{
name = top;
position = "{486, 650}";
}
);
layerId = "C1B4D31E-EC41-4663-B02D-6CE46EF34CA2";
name = Regular;
paths = (
{
closed = 1;
nodes = (
"3 658 LINE",
"2 607 LINE",
"140 587 LINE",
"143 658 LINE"
);
},
{
closed = 1;
nodes = (
"201 658 LINE",
"214 579 LINE",
"250 593 OFFCURVE",
"284 608 OFFCURVE",
"313 626 CURVE",
"307 658 LINE"
);
},
{
closed = 1;
nodes = (
"54 658 LINE",
"261 -14 LINE",
"313 -13 OFFCURVE",
"360 -9 OFFCURVE",
"402 -1 CURVE",
"365 101 LINE",
"334 102 LINE",
"326 235 LINE",
"211 658 LINE"
);
},
{
closed = 1;
nodes = (
"320 35 LINE",
"402 -1 LINE",
"471 222 LINE",
"494 343 LINE",
"512 344 LINE",
"550 465 LINE",
"457 509 LINE"
);
},
{
closed = 1;
nodes = (
"408 619 LINE",
"600 -14 LINE",
"652 -13 OFFCURVE",
"700 -9 OFFCURVE",
"742 -1 CURVE",
"709 101 LINE",
"673 102 LINE",
"662 244 LINE",
"553 652 LINE"
);
},
{
closed = 1;
nodes = (
"742 -1 LINE",
"930 658 LINE",
"827 658 LINE",
"657 35 LINE"
);
},
{
closed = 1;
nodes = (
"713 658 LINE",
"712 607 LINE",
"850 587 LINE",
"853 658 LINE"
);
},
{
closed = 1;
nodes = (
"874 658 LINE",
"887 579 LINE",
"923 593 OFFCURVE",
"957 608 OFFCURVE",
"986 626 CURVE",
"980 658 LINE"
);
}
);
width = 984;
}
);
leftKerningGroup = V;
leftMetricsKey = V;
rightKerningGroup = V;
rightMetricsKey = V;
unicode = 0057;
},
{
color = 3;
glyphname = X;
layers = (
{
layerId = "C1B4D31E-EC41-4663-B02D-6CE46EF34CA2";
name = Regular;
paths = (
{
closed = 1;
nodes = (
"170 587 LINE",
"173 658 LINE",
"33 658 LINE",
"32 607 LINE"
);
},
{
closed = 1;
nodes = (
"209 658 LINE",
"222 579 LINE",
"258 593 OFFCURVE",
"292 608 OFFCURVE",
"321 626 CURVE",
"315 658 LINE"
);
},
{
closed = 1;
nodes = (
"415 658 LINE",
"414 607 LINE",
"552 587 LINE",
"555 658 LINE"
);
},
{
closed = 1;
nodes = (
"560 658 LINE",
"573 579 LINE",
"609 593 OFFCURVE",
"643 608 OFFCURVE",
"672 626 CURVE",
"666 658 LINE"
);
},
{
closed = 1;
nodes = (
"66 65 OFFCURVE",
"31 50 OFFCURVE",
"2 32 CURVE",
"8 0 LINE",
"114 0 LINE",
"101 79 LINE"
);
},
{
closed = 1;
nodes = (
"141 0 LINE",
"281 0 LINE",
"282 51 LINE",
"144 71 LINE"
);
},
{
closed = 1;
nodes = (
"461 65 OFFCURVE",
"426 50 OFFCURVE",
"397 32 CURVE",
"403 0 LINE",
"509 0 LINE",
"496 79 LINE"
);
},
{
closed = 1;
nodes = (
"563 0 LINE",
"703 0 LINE",
"704 51 LINE",
"554 71 LINE"
);
},
{
closed = 1;
nodes = (
"57 658 LINE",
"500 0 LINE",
"674 0 LINE",
"227 658 LINE"
);
},
{
closed = 1;
nodes = (
"527 658 LINE",
"353 374 LINE",
"430 340 LINE",
"639 658 LINE"
);
},
{
closed = 1;
nodes = (
"35 0 LINE",
"158 0 LINE",
"380 340 LINE",
"301 384 LINE"
);
}
);
width = 699;
}
);
unicode = 0058;
},
{
color = 3;
glyphname = Y;
layers = (
{
anchors = (
{
name = top;
position = "{337, 650}";
}
);
layerId = "C1B4D31E-EC41-4663-B02D-6CE46EF34CA2";
name = Regular;
paths = (
{
closed = 1;
nodes = (
"29 658 LINE",
"258 230 LINE",
"375 302 LINE",
"358 336 LINE",
"337 335 LINE",
"310 420 LINE",
"184 658 LINE"
);
},
{
closed = 1;
nodes = (
"-1 658 LINE",
"-2 607 LINE",
"136 587 LINE",
"139 658 LINE"
);
},
{
closed = 1;
nodes = (
"160 658 LINE",
"173 579 LINE",
"209 593 OFFCURVE",
"243 608 OFFCURVE",
"272 626 CURVE",
"266 658 LINE"
);
},
{
closed = 1;
nodes = (
"505 658 LINE",
"316 281 LINE",
"387 244 LINE",
"610 658 LINE"
);
},
{
closed = 1;
nodes = (
"401 658 LINE",
"400 607 LINE",
"538 587 LINE",
"541 658 LINE"
);
},
{
closed = 1;
nodes = (
"539 658 LINE",
"552 579 LINE",
"588 593 OFFCURVE",
"622 608 OFFCURVE",
"651 626 CURVE",
"645 658 LINE"
);
},
{
closed = 1;
nodes = (
"249 0 LINE",
"397 0 LINE",
"397 306 LINE",
"249 306 LINE"
);
},
{
closed = 1;
nodes = (
"232 65 OFFCURVE",
"197 50 OFFCURVE",
"168 32 CURVE",
"174 0 LINE",
"268 0 LINE",
"267 79 LINE"
);
},
{
closed = 1;
nodes = (
"339 0 LINE",
"479 0 LINE",
"480 51 LINE",
"342 71 LINE"
);
}
);
width = 647;
}
);
leftKerningGroup = Y;
leftMetricsKey = V;
rightKerningGroup = Y;
rightMetricsKey = V;
unicode = 0059;
},
{
color = 3;
glyphname = Z;
layers = (
{
layerId = "C1B4D31E-EC41-4663-B02D-6CE46EF34CA2";
name = Regular;
paths = (
{
closed = 1;
nodes = (
"91 562 LINE",
"520 589 LINE",
"556 658 LINE",
"64 658 LINE"
);
},
{
closed = 1;
nodes = (
"499 615 LINE",
"425 603 LINE",
"33 68 LINE",
"73 -1 LINE",
"124 35 LINE",
"190 47 LINE",
"589 591 LINE",
"556 658 LINE"
);
},
{
closed = 1;
nodes = (
"132 86 LINE",
"72 -1 LINE",
"570 0 LINE",
"559 97 LINE"
);
},
{
closed = 1;
nodes = (
"196 604 LINE",
"64 658 LINE",
"59 603 OFFCURVE",
"60 510 OFFCURVE",
"72 442 CURVE",
"156 442 LINE"
);
},
{
closed = 1;
nodes = (
"435 26 LINE",
"570 0 LINE",
"583 75 OFFCURVE",
"592 138 OFFCURVE",
"596 210 CURVE",
"506 223 LINE"
);
}
);
width = 632;
}
);
leftKerningGroup = Z;
rightKerningGroup = Z;
unicode = 005A;
},
{
color = 3;
glyphname = bracketleft;
layers = (
{
layerId = "C1B4D31E-EC41-4663-B02D-6CE46EF34CA2";
name = Regular;
paths = (
{
closed = 1;
nodes = (
"91 712 LINE",
"91 -122 LINE",
"357 -122 LINE",
"363 -62 LINE",
"233 -32 LINE",
"233 622 LINE",
"363 652 LINE",
"357 712 LINE"
);
}
);
width = 393;
}
);
unicode = 005B;
},
{
color = 3;
glyphname = backslash;
layers = (
{
layerId = "C1B4D31E-EC41-4663-B02D-6CE46EF34CA2";
name = Regular;
paths = (
{
closed = 1;
nodes = (
"396 -86 LINE",
"88 723 LINE",
"-18 681 LINE",
"288 -126 LINE"
);
}
);
width = 403;
}
);
unicode = 005C;
},
{
color = 3;
glyphname = bracketright;
layers = (
{
layerId = "C1B4D31E-EC41-4663-B02D-6CE46EF34CA2";
name = Regular;
paths = (
{
closed = 1;
nodes = (
"30 652 LINE",
"160 622 LINE",
"160 -32 LINE",
"30 -62 LINE",
"36 -122 LINE",
"302 -122 LINE",
"302 712 LINE",
"36 712 LINE"
);
}
);
width = 395;
}
);
unicode = 005D;
},
{
color = 3;
glyphname = asciicircum;
layers = (
{
layerId = "C1B4D31E-EC41-4663-B02D-6CE46EF34CA2";
name = Regular;
paths = (
{
closed = 1;
nodes = (
"24 369 LINE",
"97 322 LINE",
"253 558 LINE",
"260 558 LINE",
"423 326 LINE",
"493 373 LINE",
"295 649 LINE",
"214 649 LINE"
);
}
);
width = 511;
}
);
unicode = 005E;
},
{
color = 3;
glyphname = underscore;
layers = (
{
layerId = "C1B4D31E-EC41-4663-B02D-6CE46EF34CA2";
name = Regular;
paths = (
{
closed = 1;
nodes = (
"10 -132 LINE",
"10 -213 LINE",
"522 -213 LINE",
"522 -132 LINE"
);
}
);
width = 532;
}
);
unicode = 005F;
},
{
color = 3;
glyphname = a;
layers = (
{
anchors = (
{
name = top;
position = "{259, 468}";
}
);
layerId = "C1B4D31E-EC41-4663-B02D-6CE46EF34CA2";
name = Regular;
paths = (
{
closed = 1;
nodes = (
"60 196 OFFCURVE",
"37 151 OFFCURVE",
"37 111 CURVE SMOOTH",
"37 46 OFFCURVE",
"97 -29 OFFCURVE",
"213 -13 CURVE",
"336 65 LINE",
"327 107 LINE",
"299 96 OFFCURVE",
"247 75 OFFCURVE",
"203 74 CURVE",
"189 85 OFFCURVE",
"182 103 OFFCURVE",
"182 118 CURVE SMOOTH",
"182 168 OFFCURVE",
"252 175 OFFCURVE",
"310 171 CURVE",
"334 171 LINE",
"336 231 LINE",
"115 225 LINE"
);
},
{
closed = 1;
nodes = (
"58 391 OFFCURVE",
"66 338 OFFCURVE",
"82 297 CURVE",
"166 300 LINE",
"184 408 LINE",
"202 414 OFFCURVE",
"234 420 OFFCURVE",
"259 421 CURVE",
"288 407 OFFCURVE",
"306 381 OFFCURVE",
"306 319 CURVE SMOOTH",
"306 78 LINE",
"316 69 LINE",
"334 22 OFFCURVE",
"379 -15 OFFCURVE",
"413 -16 CURVE",
"535 48 LINE",
"526 93 LINE",
"507 90 OFFCURVE",
"492 87 OFFCURVE",
"477 87 CURVE SMOOTH",
"461 87 OFFCURVE",
"452 96 OFFCURVE",
"452 110 CURVE",
"452 324 LINE",
"452 387 OFFCURVE",
"449 411 OFFCURVE",
"440 427 CURVE SMOOTH",
"412 468 OFFCURVE",
"361 499 OFFCURVE",
"310 499 CURVE SMOOTH",
"259 499 OFFCURVE",
"137 471 OFFCURVE",
"61 438 CURVE"
);
}
);
width = 544;
}
);
leftKerningGroup = a;
rightKerningGroup = a;
unicode = 0061;
},
{
color = 3;
glyphname = b;
layers = (
{
layerId = "C1B4D31E-EC41-4663-B02D-6CE46EF34CA2";
name = Regular;
paths = (
{
closed = 1;
nodes = (
"155 736 LINE",
"59 689 LINE",
"59 22 LINE",
"204 44 LINE",
"204 691 LINE"
);
},
{
closed = 1;
nodes = (
"157 331 LINE",
"200 360 OFFCURVE",
"241 383 OFFCURVE",
"278 383 CURVE SMOOTH",
"345 383 OFFCURVE",
"385 311 OFFCURVE",
"385 231 CURVE SMOOTH",
"385 168 OFFCURVE",
"360 101 OFFCURVE",
"316 67 CURVE",
"235 55 OFFCURVE",
"173 90 OFFCURVE",
"144 129 CURVE",
"59 22 LINE",
"126 -4 OFFCURVE",
"196 -19 OFFCURVE",
"256 -19 CURVE SMOOTH",
"436 -19 OFFCURVE",
"536 111 OFFCURVE",
"536 258 CURVE SMOOTH",
"536 394 OFFCURVE",
"451 513 OFFCURVE",
"315 488 CURVE",
"148 372 LINE"
);
},
{
closed = 1;
nodes = (
"-15 653 LINE",
"94 641 LINE",
"160 681 LINE",
"156 736 LINE",
"95 734 OFFCURVE",
"30 721 OFFCURVE",
"-22 701 CURVE"
);
}
);
width = 555;
}
);
leftKerningGroup = b;
rightKerningGroup = o;
rightMetricsKey = o;
unicode = 0062;
},
{
color = 3;
glyphname = c;
layers = (
{
anchors = (
{
name = bottom;
position = "{246, 0}";
},
{
name = top;
position = "{254, 468}";
}
);
layerId = "C1B4D31E-EC41-4663-B02D-6CE46EF34CA2";
name = Regular;
paths = (
{
closed = 1;
nodes = (
"411 111 LINE",
"373 93 OFFCURVE",
"336 84 OFFCURVE",
"303 84 CURVE SMOOTH",
"208 84 OFFCURVE",
"156 159 OFFCURVE",
"156 262 CURVE SMOOTH",
"156 313 OFFCURVE",
"170 371 OFFCURVE",
"209 414 CURVE",
"255 399 OFFCURVE",
"297 362 OFFCURVE",
"333 313 CURVE",
"442 388 LINE",
"410 460 OFFCURVE",
"338 496 OFFCURVE",
"259 496 CURVE SMOOTH",
"120 496 OFFCURVE",
"14 392 OFFCURVE",
"14 237 CURVE SMOOTH",
"14 76 OFFCURVE",
"134 -30 OFFCURVE",
"290 -14 CURVE",
"432 61 LINE"
);
}
);
width = 447;
}
);
leftKerningGroup = o;
leftMetricsKey = o;
rightKerningGroup = c;
unicode = 0063;
},
{
color = 3;
glyphname = d;
layers = (
{
anchors = (
{
name = center;
position = "{161, 141}";
},
{
name = topright;
position = "{312, 390}";
}
);
layerId = "C1B4D31E-EC41-4663-B02D-6CE46EF34CA2";
name = Regular;
paths = (
{
closed = 1;
nodes = (
"560 93 LINE",
"541 90 OFFCURVE",
"525 87 OFFCURVE",
"510 87 CURVE SMOOTH",
"495 87 OFFCURVE",
"485 96 OFFCURVE",
"485 110 CURVE SMOOTH",
"485 691 LINE",
"436 736 LINE",
"340 689 LINE",
"340 78 LINE",
"350 69 LINE",
"368 22 OFFCURVE",
"412 -15 OFFCURVE",
"446 -16 CURVE",
"569 48 LINE"
);
},
{
closed = 1;
nodes = (
"411 153 LINE",
"359 113 OFFCURVE",
"311 96 OFFCURVE",
"277 96 CURVE SMOOTH",
"206 96 OFFCURVE",
"166 164 OFFCURVE",
"166 249 CURVE SMOOTH",
"166 311 OFFCURVE",
"187 374 OFFCURVE",
"227 411 CURVE",
"302 418 OFFCURVE",
"371 380 OFFCURVE",
"406 330 CURVE",
"438 437 LINE",
"399 470 OFFCURVE",
"342 495 OFFCURVE",
"276 495 CURVE SMOOTH",
"117 495 OFFCURVE",
"14 378 OFFCURVE",
"14 234 CURVE SMOOTH",
"14 99 OFFCURVE",
"102 -18 OFFCURVE",
"239 -16 CURVE",
"406 104 LINE"
);
},
{
closed = 1;
nodes = (
"374 641 LINE",
"440 681 LINE",
"436 736 LINE",
"375 734 OFFCURVE",
"310 721 OFFCURVE",
"258 701 CURVE",
"265 653 LINE"
);
}
);
width = 575;
}
);
leftKerningGroup = o;
leftMetricsKey = o;
rightKerningGroup = l;
unicode = 0064;
},
{
color = 3;
glyphname = e;
layers = (
{
anchors = (
{
name = bottom;
position = "{257, 0}";
},
{
name = ogonek;
position = "{451, 35}";
},
{
name = top;
position = "{255, 468}";
}
);
layerId = "C1B4D31E-EC41-4663-B02D-6CE46EF34CA2";
name = Regular;
paths = (
{
closed = 1;
nodes = (
"434 121 LINE",
"387 98 OFFCURVE",
"347 85 OFFCURVE",
"306 85 CURVE SMOOTH",
"219 85 OFFCURVE",
"153 144 OFFCURVE",
"153 252 CURVE SMOOTH",
"153 314 OFFCURVE",
"174 390 OFFCURVE",
"226 420 CURVE",
"295 420 OFFCURVE",
"343 349 OFFCURVE",
"333 275 CURVE",
"466 296 LINE",
"467 431 OFFCURVE",
"362 496 OFFCURVE",
"261 496 CURVE SMOOTH",
"125 496 OFFCURVE",
"14 381 OFFCURVE",
"14 231 CURVE SMOOTH",
"14 78 OFFCURVE",
"134 -29 OFFCURVE",
"298 -13 CURVE",
"455 68 LINE"
);
},
{
closed = 1;
nodes = (
"120 241 LINE",
"408 238 LINE",
"466 296 LINE",
"406 323 LINE",
"112 307 LINE"
);
}
);
width = 484;
}
);
leftKerningGroup = o;
leftMetricsKey = o;
rightKerningGroup = e;
unicode = 0065;
},
{
color = 3;
glyphname = f;
layers = (
{
layerId = "C1B4D31E-EC41-4663-B02D-6CE46EF34CA2";
name = Regular;
paths = (
{
closed = 1;
nodes = (
"410 702 LINE",
"367 735 OFFCURVE",
"316 751 OFFCURVE",
"273 751 CURVE SMOOTH",
"171 751 OFFCURVE",
"82 666 OFFCURVE",
"82 545 CURVE SMOOTH",
"82 0 LINE",
"228 0 LINE",
"228 436 LINE",
"231 463 LINE",
"181 649 LINE",
"234 643 OFFCURVE",
"287 618 OFFCURVE",
"331 575 CURVE"
);
},
{
closed = 1;
nodes = (
"166 373 LINE",
"189 435 LINE",
"137 484 LINE",
"96 467 OFFCURVE",
"53 449 OFFCURVE",
"9 423 CURVE",
"13 371 LINE"
);
},
{
closed = 1;
nodes = (
"119 0 LINE",
"130 78 LINE",
"97 70 OFFCURVE",
"48 53 OFFCURVE",
"15 34 CURVE",
"18 0 LINE"
);
},
{
closed = 1;
nodes = (
"315 0 LINE",
"319 49 LINE",
"286 67 OFFCURVE",
"243 79 OFFCURVE",
"204 87 CURVE",
"187 0 LINE"
);
},
{
closed = 1;
nodes = (
"177 370 LINE",
"291 370 LINE",
"341 429 LINE",
"339 471 LINE",
"177 471 LINE"
);
}
);
width = 366;
}
);
leftKerningGroup = f;
leftMetricsKey = n;
rightKerningGroup = f;
unicode = 0066;
},
{
color = 3;
glyphname = g;
layers = (
{
anchors = (
{
name = top;
position = "{261, 468}";
}
);
layerId = "C1B4D31E-EC41-4663-B02D-6CE46EF34CA2";
name = Regular;
paths = (
{
closed = 1;
nodes = (
"422 546 OFFCURVE",
"380 456 OFFCURVE",
"391 369 CURVE",
"414 386 LINE",
"453 418 OFFCURVE",
"500 431 OFFCURVE",
"556 426 CURVE",
"531 555 LINE"
);
},
{
closed = 1;
nodes = (
"391 155 OFFCURVE",
"489 226 OFFCURVE",
"489 327 CURVE SMOOTH",
"489 430 OFFCURVE",
"390 501 OFFCURVE",
"264 501 CURVE SMOOTH",
"133 501 OFFCURVE",
"36 425 OFFCURVE",
"36 326 CURVE SMOOTH",
"36 228 OFFCURVE",
"128 155 OFFCURVE",
"261 155 CURVE SMOOTH"
);
},
{
closed = 1;
nodes = (
"288 457 OFFCURVE",
"346 388 OFFCURVE",
"346 318 CURVE SMOOTH",
"346 284 OFFCURVE",
"335 247 OFFCURVE",
"308 227 CURVE",
"225 201 OFFCURVE",
"178 256 OFFCURVE",
"178 330 CURVE SMOOTH",
"178 364 OFFCURVE",
"186 401 OFFCURVE",
"206 421 CURVE"
);
},
{
closed = 1;
nodes = (
"175 48 LINE",
"20 -92 LINE",
"23 -199 OFFCURVE",
"128 -242 OFFCURVE",
"228 -242 CURVE SMOOTH",
"412 -242 OFFCURVE",
"572 -98 OFFCURVE",
"519 52 CURVE",
"425 83 OFFCURVE",
"283 110 OFFCURVE",
"175 112 CURVE",
"197 135 OFFCURVE",
"231 161 OFFCURVE",
"264 182 CURVE",
"206 198 LINE",
"152 173 OFFCURVE",
"92 124 OFFCURVE",
"47 75 CURVE",
"67 11 LINE",
"208 6 OFFCURVE",
"355 -21 OFFCURVE",
"430 -54 CURVE",
"397 -104 OFFCURVE",
"316 -130 OFFCURVE",
"248 -130 CURVE SMOOTH",
"186 -130 OFFCURVE",
"136 -110 OFFCURVE",
"136 -72 CURVE SMOOTH",
"136 -36 OFFCURVE",
"193 11 OFFCURVE",
"265 50 CURVE"
);
}
);
width = 569;
}
);
leftKerningGroup = g;
rightKerningGroup = g;
unicode = 0067;
},
{
color = 3;
glyphname = h;
layers = (
{
anchors = (
{
name = center;
position = "{313, 234}";
},
{
name = top;
position = "{133, 710}";
}
);
layerId = "C1B4D31E-EC41-4663-B02D-6CE46EF34CA2";
name = Regular;
paths = (
{
closed = 1;
nodes = (
"125 641 LINE",
"191 681 LINE",
"187 736 LINE",
"126 734 OFFCURVE",
"61 721 OFFCURVE",
"9 701 CURVE",
"16 653 LINE"
);
},
{
closed = 1;
nodes = (
"91 0 LINE",
"236 0 LINE",
"236 692 LINE",
"187 736 LINE",
"91 689 LINE"
);
},
{
closed = 1;
nodes = (
"121 0 LINE",
"132 78 LINE",
"99 70 OFFCURVE",
"50 53 OFFCURVE",
"17 34 CURVE",
"20 0 LINE"
);
},
{
closed = 1;
nodes = (
"293 0 LINE",
"297 49 LINE",
"264 69 OFFCURVE",
"221 83 OFFCURVE",
"182 91 CURVE",
"165 0 LINE"
);
},
{
closed = 1;
nodes = (
"442 0 LINE",
"453 78 LINE",
"420 70 OFFCURVE",
"371 53 OFFCURVE",
"338 34 CURVE",
"341 0 LINE"
);
},
{
closed = 1;
nodes = (
"606 0 LINE",
"610 49 LINE",
"577 68 OFFCURVE",
"531 82 OFFCURVE",
"491 90 CURVE",
"478 0 LINE"
);
},
{
closed = 1;
nodes = (
"393 0 LINE",
"538 0 LINE",
"538 297 LINE SMOOTH",
"538 377 OFFCURVE",
"535 403 OFFCURVE",
"525 421 CURVE SMOOTH",
"497 467 OFFCURVE",
"441 489 OFFCURVE",
"403 491 CURVE",
"342 476 OFFCURVE",
"251 420 OFFCURVE",
"164 343 CURVE",
"174 311 LINE",
"222 348 OFFCURVE",
"283 385 OFFCURVE",
"326 387 CURVE SMOOTH",
"366 388 OFFCURVE",
"393 357 OFFCURVE",
"393 289 CURVE SMOOTH"
);
}
);
width = 622;
}
);
leftKerningGroup = l;
leftMetricsKey = n;
rightKerningGroup = n;
rightMetricsKey = n;
unicode = 0068;
},
{
color = 3;
glyphname = i;
layers = (
{
anchors = (
{
name = ogonek;
position = "{138, 0}";
}
);
layerId = "C1B4D31E-EC41-4663-B02D-6CE46EF34CA2";
name = Regular;
paths = (
{
closed = 1;
nodes = (
"204 582 OFFCURVE",
"235 619 OFFCURVE",
"253 657 CURVE",
"229 690 OFFCURVE",
"191 725 OFFCURVE",
"152 745 CURVE",
"118 720 OFFCURVE",
"87 681 OFFCURVE",
"66 639 CURVE",
"91 607 OFFCURVE",
"133 575 OFFCURVE",
"171 558 CURVE"
);
},
{
closed = 1;
nodes = (
"125 398 LINE",
"191 438 LINE",
"187 494 LINE",
"126 492 OFFCURVE",
"61 479 OFFCURVE",
"9 459 CURVE",
"16 411 LINE"
);
},
{
closed = 1;
nodes = (
"91 0 LINE",
"236 0 LINE",
"236 450 LINE",
"187 494 LINE",
"91 446 LINE"
);
},
{
closed = 1;
nodes = (
"305 0 LINE",
"309 49 LINE",
"276 69 OFFCURVE",
"225 83 OFFCURVE",
"186 91 CURVE",
"169 0 LINE"
);
},
{
closed = 1;
nodes = (
"119 0 LINE",
"130 78 LINE",
"97 70 OFFCURVE",
"48 53 OFFCURVE",
"15 34 CURVE",
"18 0 LINE"
);
}
);
width = 325;
}
);
leftKerningGroup = n;
leftMetricsKey = n;
rightKerningGroup = i;
rightMetricsKey = n;
unicode = 0069;
},
{
color = 3;
glyphname = j;
layers = (
{
anchors = (
{
name = top;
position = "{90, 300}";
}
);
layerId = "C1B4D31E-EC41-4663-B02D-6CE46EF34CA2";
name = Regular;
paths = (
{
closed = 1;
nodes = (
"207 581 OFFCURVE",
"238 618 OFFCURVE",
"256 656 CURVE",
"232 689 OFFCURVE",
"194 724 OFFCURVE",
"155 744 CURVE",
"121 720 OFFCURVE",
"90 681 OFFCURVE",
"69 639 CURVE",
"94 606 OFFCURVE",
"136 575 OFFCURVE",
"174 558 CURVE"
);
},
{
closed = 1;
nodes = (
"189 494 LINE",
"94 446 LINE",
"94 -40 LINE SMOOTH",
"94 -114 OFFCURVE",
"61 -150 OFFCURVE",
"-7 -173 CURVE",
"8 -216 LINE",
"182 -193 OFFCURVE",
"239 -109 OFFCURVE",
"239 -50 CURVE SMOOTH",
"239 450 LINE"
);
},
{
closed = 1;
nodes = (
"128 398 LINE",
"194 438 LINE",
"190 494 LINE",
"129 492 OFFCURVE",
"64 479 OFFCURVE",
"12 459 CURVE",
"19 411 LINE"
);
}
);
width = 309;
}
);
leftKerningGroup = j;
rightKerningGroup = j;
unicode = 006A;
},
{
color = 3;
glyphname = k;
layers = (
{
anchors = (
{
name = bottom;
position = "{304, 0}";
}
);
layerId = "C1B4D31E-EC41-4663-B02D-6CE46EF34CA2";
name = Regular;
paths = (
{
closed = 1;
nodes = (
"125 641 LINE",
"191 681 LINE",
"187 736 LINE",
"126 734 OFFCURVE",
"61 721 OFFCURVE",
"9 701 CURVE",
"16 653 LINE"
);
},
{
closed = 1;
nodes = (
"91 0 LINE",
"236 0 LINE",
"236 692 LINE",
"187 736 LINE",
"91 689 LINE"
);
},
{
closed = 1;
nodes = (
"121 0 LINE",
"132 78 LINE",
"99 70 OFFCURVE",
"50 53 OFFCURVE",
"17 34 CURVE",
"20 0 LINE"
);
},
{
closed = 1;
nodes = (
"287 0 LINE",
"291 49 LINE",
"258 69 OFFCURVE",
"215 83 OFFCURVE",
"176 91 CURVE",
"159 0 LINE"
);
},
{
closed = 1;
nodes = (
"315 411 LINE",
"444 404 LINE",
"502 433 LINE",
"505 494 LINE",
"444 492 OFFCURVE",
"366 479 OFFCURVE",
"308 459 CURVE"
);
},
{
closed = 1;
nodes = (
"505 494 LINE",
"416 446 LINE",
"273 267 LINE",
"192 214 LINE",
"216 189 LINE",
"353 200 LINE",
"545 432 LINE"
);
},
{
closed = 1;
nodes = (
"537 72 OFFCURVE",
"515 76 OFFCURVE",
"488 115 CURVE SMOOTH",
"381 271 LINE",
"256 232 LINE",
"367 53 LINE SMOOTH",
"387 22 OFFCURVE",
"401 3 OFFCURVE",
"424 -9 CURVE",
"586 21 LINE",
"577 75 LINE"
);
}
);
width = 610;
}
);
leftKerningGroup = l;
leftMetricsKey = n;
rightKerningGroup = k;
unicode = 006B;
},
{
color = 3;
glyphname = l;
layers = (
{
anchors = (
{
name = bottom;
position = "{172, 0}";
},
{
name = top;
position = "{158, 735}";
},
{
name = topright;
position = "{311, 468}";
}
);
layerId = "C1B4D31E-EC41-4663-B02D-6CE46EF34CA2";
name = Regular;
paths = (
{
closed = 1;
nodes = (
"91 0 LINE",
"236 0 LINE",
"236 692 LINE",
"187 736 LINE",
"91 689 LINE"
);
},
{
closed = 1;
nodes = (
"125 641 LINE",
"191 681 LINE",
"187 736 LINE",
"126 734 OFFCURVE",
"61 721 OFFCURVE",
"9 701 CURVE",
"16 653 LINE"
);
},
{
closed = 1;
nodes = (
"305 0 LINE",
"309 49 LINE",
"276 69 OFFCURVE",
"225 83 OFFCURVE",
"186 91 CURVE",
"169 0 LINE"
);
},
{
closed = 1;
nodes = (
"119 0 LINE",
"130 78 LINE",
"97 70 OFFCURVE",
"48 53 OFFCURVE",
"15 34 CURVE",
"18 0 LINE"
);
}
);
width = 334;
}
);
leftKerningGroup = l;
leftMetricsKey = n;
rightKerningGroup = l;
unicode = 006C;
},
{
color = 3;
glyphname = m;
layers = (
{
layerId = "C1B4D31E-EC41-4663-B02D-6CE46EF34CA2";
name = Regular;
paths = (
{
closed = 1;
nodes = (
"125 398 LINE",
"191 438 LINE",
"187 494 LINE",
"126 492 OFFCURVE",
"61 479 OFFCURVE",
"9 459 CURVE",
"16 411 LINE"
);
},
{
closed = 1;
nodes = (
"91 0 LINE",
"236 0 LINE",
"236 446 LINE",
"187 494 LINE",
"91 446 LINE"
);
},
{
closed = 1;
nodes = (
"389 0 LINE",
"534 0 LINE",
"534 297 LINE SMOOTH",
"534 377 OFFCURVE",
"531 403 OFFCURVE",
"521 421 CURVE SMOOTH",
"493 467 OFFCURVE",
"437 489 OFFCURVE",
"399 491 CURVE",
"338 476 OFFCURVE",
"247 420 OFFCURVE",
"160 343 CURVE",
"170 311 LINE",
"218 348 OFFCURVE",
"279 385 OFFCURVE",
"322 387 CURVE SMOOTH",
"362 388 OFFCURVE",
"389 357 OFFCURVE",
"389 289 CURVE SMOOTH"
);
},
{
closed = 1;
nodes = (
"687 0 LINE",
"832 0 LINE",
"832 297 LINE SMOOTH",
"832 377 OFFCURVE",
"829 403 OFFCURVE",
"819 421 CURVE SMOOTH",
"791 467 OFFCURVE",
"735 489 OFFCURVE",
"697 491 CURVE",
"636 476 OFFCURVE",
"545 420 OFFCURVE",
"458 343 CURVE",
"468 311 LINE",
"516 348 OFFCURVE",
"577 385 OFFCURVE",
"620 387 CURVE SMOOTH",
"660 388 OFFCURVE",
"687 357 OFFCURVE",
"687 289 CURVE SMOOTH"
);
},
{
closed = 1;
nodes = (
"122 0 LINE",
"133 78 LINE",
"100 70 OFFCURVE",
"51 53 OFFCURVE",
"18 34 CURVE",
"21 0 LINE"
);
},
{
closed = 1;
nodes = (
"293 0 LINE",
"297 49 LINE",
"264 69 OFFCURVE",
"221 83 OFFCURVE",
"182 91 CURVE",
"165 0 LINE"
);
},
{
closed = 1;
nodes = (
"438 0 LINE",
"449 78 LINE",
"416 70 OFFCURVE",
"367 53 OFFCURVE",
"334 34 CURVE",
"337 0 LINE"
);
},
{
closed = 1;
nodes = (
"593 0 LINE",
"597 49 LINE",
"565 69 OFFCURVE",
"519 83 OFFCURVE",
"480 91 CURVE",
"463 0 LINE"
);
},
{
closed = 1;
nodes = (
"735 0 LINE",
"746 78 LINE",
"713 70 OFFCURVE",
"664 53 OFFCURVE",
"631 34 CURVE",
"634 0 LINE"
);
},
{
closed = 1;
nodes = (
"898 0 LINE",
"902 49 LINE",
"870 69 OFFCURVE",
"816 83 OFFCURVE",
"777 91 CURVE",
"760 0 LINE"
);
}
);
width = 915;
}
);
leftKerningGroup = n;
leftMetricsKey = n;
rightKerningGroup = n;
rightMetricsKey = n;
unicode = 006D;
},
{
color = 3;
glyphname = n;
layers = (
{
anchors = (
{
name = bottom;
position = "{323, 0}";
},
{
name = top;
position = "{311, 468}";
}
);
layerId = "C1B4D31E-EC41-4663-B02D-6CE46EF34CA2";
name = Regular;
paths = (
{
closed = 1;
nodes = (
"125 398 LINE",
"191 438 LINE",
"187 494 LINE",
"126 492 OFFCURVE",
"61 479 OFFCURVE",
"9 459 CURVE",
"16 411 LINE"
);
},
{
closed = 1;
nodes = (
"91 0 LINE",
"236 0 LINE",
"236 446 LINE",
"187 494 LINE",
"91 446 LINE"
);
},
{
closed = 1;
nodes = (
"122 0 LINE",
"133 78 LINE",
"100 70 OFFCURVE",
"51 53 OFFCURVE",
"18 34 CURVE",
"21 0 LINE"
);
},
{
closed = 1;
nodes = (
"293 0 LINE",
"297 49 LINE",
"264 69 OFFCURVE",
"221 83 OFFCURVE",
"182 91 CURVE",
"165 0 LINE"
);
},
{
closed = 1;
nodes = (
"444 0 LINE",
"455 78 LINE",
"422 70 OFFCURVE",
"373 53 OFFCURVE",
"340 34 CURVE",
"343 0 LINE"
);
},
{
closed = 1;
nodes = (
"607 0 LINE",
"611 49 LINE",
"579 69 OFFCURVE",
"525 83 OFFCURVE",
"486 91 CURVE",
"469 0 LINE"
);
},
{
closed = 1;
nodes = (
"395 0 LINE",
"540 0 LINE",
"540 297 LINE SMOOTH",
"540 377 OFFCURVE",
"537 403 OFFCURVE",
"527 421 CURVE SMOOTH",
"499 467 OFFCURVE",
"443 489 OFFCURVE",
"405 491 CURVE",
"344 476 OFFCURVE",
"253 420 OFFCURVE",
"166 343 CURVE",
"176 311 LINE",
"224 348 OFFCURVE",
"285 385 OFFCURVE",
"328 387 CURVE SMOOTH",
"368 388 OFFCURVE",
"395 357 OFFCURVE",
"395 289 CURVE SMOOTH"
);
}
);
width = 623;
}
);
leftKerningGroup = n;
rightKerningGroup = n;
unicode = 006E;
},
{
color = 3;
glyphname = o;
layers = (
{
anchors = (
{
name = top;
position = "{255, 468}";
}
);
layerId = "C1B4D31E-EC41-4663-B02D-6CE46EF34CA2";
name = Regular;
paths = (
{
closed = 1;
nodes = (
"14 78 OFFCURVE",
"130 -20 OFFCURVE",
"260 -20 CURVE SMOOTH",
"386 -20 OFFCURVE",
"496 69 OFFCURVE",
"496 236 CURVE SMOOTH",
"496 403 OFFCURVE",
"384 496 OFFCURVE",
"257 496 CURVE SMOOTH",
"129 496 OFFCURVE",
"14 404 OFFCURVE",
"14 241 CURVE SMOOTH"
);
},
{
closed = 1;
nodes = (
"288 63 OFFCURVE",
"277 62 OFFCURVE",
"267 62 CURVE SMOOTH",
"192 62 OFFCURVE",
"162 145 OFFCURVE",
"162 243 CURVE SMOOTH",
"162 306 OFFCURVE",
"173 364 OFFCURVE",
"198 397 CURVE",
"210 405 OFFCURVE",
"229 411 OFFCURVE",
"249 411 CURVE SMOOTH",
"320 411 OFFCURVE",
"348 325 OFFCURVE",
"348 224 CURVE SMOOTH",
"348 162 OFFCURVE",
"339 94 OFFCURVE",
"301 67 CURVE"
);
}
);
width = 515;
}
);
leftKerningGroup = o;
rightKerningGroup = o;
unicode = 006F;
},
{
color = 3;
glyphname = p;
layers = (
{
layerId = "C1B4D31E-EC41-4663-B02D-6CE46EF34CA2";
name = Regular;
paths = (
{
closed = 1;
nodes = (
"90 -203 LINE",
"235 -203 LINE",
"235 450 LINE",
"186 494 LINE",
"90 446 LINE"
);
},
{
closed = 1;
nodes = (
"128 -203 LINE",
"139 -125 LINE",
"106 -137 OFFCURVE",
"57 -154 OFFCURVE",
"24 -168 CURVE",
"27 -203 LINE"
);
},
{
closed = 1;
nodes = (
"322 -203 LINE",
"326 -154 LINE",
"293 -138 OFFCURVE",
"250 -124 OFFCURVE",
"211 -112 CURVE",
"194 -203 LINE"
);
},
{
closed = 1;
nodes = (
"185 330 LINE",
"228 359 OFFCURVE",
"269 383 OFFCURVE",
"306 383 CURVE SMOOTH",
"371 383 OFFCURVE",
"409 310 OFFCURVE",
"409 231 CURVE SMOOTH",
"409 167 OFFCURVE",
"385 101 OFFCURVE",
"344 69 CURVE",
"269 62 OFFCURVE",
"201 90 OFFCURVE",
"171 119 CURVE",
"109 39 LINE",
"173 9 OFFCURVE",
"246 -10 OFFCURVE",
"307 -10 CURVE SMOOTH",
"469 -10 OFFCURVE",
"563 114 OFFCURVE",
"563 258 CURVE SMOOTH",
"563 394 OFFCURVE",
"479 513 OFFCURVE",
"342 488 CURVE",
"176 370 LINE"
);
},
{
closed = 1;
nodes = (
"125 398 LINE",
"195 457 LINE",
"187 494 LINE",
"126 492 OFFCURVE",
"61 479 OFFCURVE",
"9 459 CURVE",
"16 411 LINE"
);
}
);
width = 585;
}
);
leftKerningGroup = n;
leftMetricsKey = n;
rightKerningGroup = o;
rightMetricsKey = o;
unicode = 0070;
},
{
color = 3;
glyphname = q;
layers = (
{
layerId = "C1B4D31E-EC41-4663-B02D-6CE46EF34CA2";
name = Regular;
paths = (
{
closed = 1;
nodes = (
"542 425 LINE",
"525 473 LINE",
"361 449 LINE",
"339 426 LINE",
"339 -203 LINE",
"484 -203 LINE",
"484 380 LINE"
);
},
{
closed = 1;
nodes = (
"353 -203 LINE",
"355 -125 LINE",
"322 -133 OFFCURVE",
"273 -150 OFFCURVE",
"240 -168 CURVE",
"243 -203 LINE"
);
},
{
closed = 1;
nodes = (
"536 -203 LINE",
"540 -154 LINE",
"507 -134 OFFCURVE",
"464 -120 OFFCURVE",
"425 -112 CURVE",
"408 -203 LINE"
);
},
{
closed = 1;
nodes = (
"412 156 LINE",
"359 116 OFFCURVE",
"312 98 OFFCURVE",
"277 98 CURVE SMOOTH",
"207 98 OFFCURVE",
"166 167 OFFCURVE",
"166 252 CURVE SMOOTH",
"166 314 OFFCURVE",
"188 377 OFFCURVE",
"227 413 CURVE",
"302 421 OFFCURVE",
"371 383 OFFCURVE",
"406 333 CURVE",
"489 437 LINE",
"421 472 OFFCURVE",
"355 497 OFFCURVE",
"285 497 CURVE SMOOTH",
"125 497 OFFCURVE",
"14 381 OFFCURVE",
"14 235 CURVE SMOOTH",
"14 106 OFFCURVE",
"100 -16 OFFCURVE",
"240 -13 CURVE",
"406 107 LINE"
);
}
);
width = 569;
}
);
leftKerningGroup = o;
leftMetricsKey = o;
unicode = 0071;
},
{
color = 3;
glyphname = r;
layers = (
{
anchors = (
{
name = bottom;
position = "{188, 0}";
},
{
name = top;
position = "{250, 468}";
}
);
layerId = "C1B4D31E-EC41-4663-B02D-6CE46EF34CA2";
name = Regular;
paths = (
{
closed = 1;
nodes = (
"125 398 LINE",
"191 438 LINE",
"187 494 LINE",
"126 492 OFFCURVE",
"61 479 OFFCURVE",
"9 459 CURVE",
"16 411 LINE"
);
},
{
closed = 1;
nodes = (
"91 0 LINE",
"236 0 LINE",
"236 450 LINE",
"187 494 LINE",
"91 446 LINE"
);
},
{
closed = 1;
nodes = (
"121 0 LINE",
"132 78 LINE",
"99 70 OFFCURVE",
"50 53 OFFCURVE",
"17 34 CURVE",
"20 0 LINE"
);
},
{
closed = 1;
nodes = (
"340 0 LINE",
"344 49 LINE",
"311 67 OFFCURVE",
"256 80 OFFCURVE",
"217 87 CURVE",
"200 0 LINE"
);
},
{
closed = 1;
nodes = (
"165 289 LINE",
"200 233 LINE",
"235 293 OFFCURVE",
"293 349 OFFCURVE",
"337 382 CURVE",
"357 270 LINE",
"433 270 LINE",
"456 325 OFFCURVE",
"468 401 OFFCURVE",
"470 459 CURVE",
"441 486 OFFCURVE",
"386 498 OFFCURVE",
"336 480 CURVE"
);
}
);
width = 472;
}
);
leftKerningGroup = n;
leftMetricsKey = n;
rightKerningGroup = r;
unicode = 0072;
},
{
color = 3;
glyphname = s;
layers = (
{
layerId = "C1B4D31E-EC41-4663-B02D-6CE46EF34CA2";
name = Regular;
paths = (
{
closed = 1;
nodes = (
"20 33 LINE",
"90 -4 OFFCURVE",
"159 -20 OFFCURVE",
"218 -20 CURVE SMOOTH",
"337 -20 OFFCURVE",
"412 44 OFFCURVE",
"412 132 CURVE SMOOTH",
"412 289 OFFCURVE",
"167 286 OFFCURVE",
"167 377 CURVE SMOOTH",
"167 393 OFFCURVE",
"174 413 OFFCURVE",
"205 424 CURVE",
"252 426 OFFCURVE",
"316 410 OFFCURVE",
"358 379 CURVE",
"392 464 LINE",
"350 486 OFFCURVE",
"296 496 OFFCURVE",
"246 496 CURVE SMOOTH",
"128 496 OFFCURVE",
"36 438 OFFCURVE",
"36 344 CURVE SMOOTH",
"36 191 OFFCURVE",
"277 196 OFFCURVE",
"277 102 CURVE SMOOTH",
"277 85 OFFCURVE",
"270 69 OFFCURVE",
"256 57 CURVE",
"189 75 OFFCURVE",
"123 111 OFFCURVE",
"70 150 CURVE"
);
},
{
closed = 1;
nodes = (
"376 328 LINE",
"391 372 OFFCURVE",
"395 419 OFFCURVE",
"392 464 CURVE",
"262 466 LINE",
"299 328 LINE"
);
}
);
width = 446;
}
);
leftKerningGroup = s;
rightKerningGroup = s;
unicode = 0073;
},
{
color = 3;
glyphname = t;
layers = (
{
anchors = (
{
name = bottom;
position = "{194, 0}";
},
{
name = center;
position = "{194, 234}";
},
{
name = topright;
position = "{370, 468}";
}
);
layerId = "C1B4D31E-EC41-4663-B02D-6CE46EF34CA2";
name = Regular;
paths = (
{
closed = 1;
nodes = (
"347 110 LINE",
"321 104 OFFCURVE",
"287 97 OFFCURVE",
"263 97 CURVE SMOOTH",
"237 97 OFFCURVE",
"227 108 OFFCURVE",
"227 143 CURVE SMOOTH",
"227 445 LINE",
"207 601 LINE",
"139 601 LINE",
"82 453 LINE",
"82 84 LINE SMOOTH",
"82 31 OFFCURVE",
"146 -19 OFFCURVE",
"204 -16 CURVE",
"358 61 LINE"
);
},
{
closed = 1;
nodes = (
"165 373 LINE",
"189 435 LINE",
"164 505 LINE",
"105 481 OFFCURVE",
"53 455 OFFCURVE",
"8 423 CURVE",
"12 371 LINE"
);
},
{
closed = 1;
nodes = (
"169 370 LINE",
"314 370 LINE",
"363 428 LINE",
"361 471 LINE",
"169 471 LINE"
);
}
);
width = 382;
}
);
leftKerningGroup = t;
rightKerningGroup = t;
unicode = 0074;
},
{
color = 3;
glyphname = u;
layers = (
{
anchors = (
{
name = ogonek;
position = "{549, 11}";
},
{
name = top;
position = "{282, 468}";
}
);
layerId = "C1B4D31E-EC41-4663-B02D-6CE46EF34CA2";
name = Regular;
paths = (
{
closed = 1;
nodes = (
"116 398 LINE",
"182 438 LINE",
"178 494 LINE",
"117 492 OFFCURVE",
"52 479 OFFCURVE",
"0 459 CURVE",
"7 411 LINE"
);
},
{
closed = 1;
nodes = (
"449 157 LINE",
"399 123 OFFCURVE",
"344 91 OFFCURVE",
"296 89 CURVE SMOOTH",
"249 87 OFFCURVE",
"227 115 OFFCURVE",
"227 177 CURVE SMOOTH",
"227 450 LINE",
"178 494 LINE",
"82 448 LINE",
"82 179 LINE SMOOTH",
"82 100 OFFCURVE",
"85 74 OFFCURVE",
"97 55 CURVE SMOOTH",
"126 11 OFFCURVE",
"179 -14 OFFCURVE",
"218 -16 CURVE",
"284 -1 OFFCURVE",
"383 52 OFFCURVE",
"459 125 CURVE"
);
},
{
closed = 1;
nodes = (
"411 398 LINE",
"477 438 LINE",
"473 494 LINE",
"416 492 OFFCURVE",
"355 480 OFFCURVE",
"307 461 CURVE",
"314 413 LINE"
);
},
{
closed = 1;
nodes = (
"578 90 OFFCURVE",
"562 87 OFFCURVE",
"547 87 CURVE SMOOTH",
"532 87 OFFCURVE",
"522 96 OFFCURVE",
"522 110 CURVE",
"522 450 LINE",
"473 494 LINE",
"377 448 LINE",
"377 80 LINE",
"387 71 LINE",
"405 24 OFFCURVE",
"449 -15 OFFCURVE",
"483 -16 CURVE",
"606 48 LINE",
"597 93 LINE"
);
}
);
width = 612;
}
);
leftKerningGroup = u;
rightKerningGroup = u;
rightMetricsKey = d;
unicode = 0075;
},
{
color = 3;
glyphname = v;
layers = (
{
layerId = "C1B4D31E-EC41-4663-B02D-6CE46EF34CA2";
name = Regular;
paths = (
{
closed = 1;
nodes = (
"-22 423 LINE",
"134 354 LINE",
"171 475 LINE",
"-22 475 LINE"
);
},
{
closed = 1;
nodes = (
"137 475 LINE",
"162 395 LINE",
"190 404 OFFCURVE",
"216 416 OFFCURVE",
"241 431 CURVE",
"238 475 LINE"
);
},
{
closed = 1;
nodes = (
"222 -10 OFFCURVE",
"291 -10 OFFCURVE",
"330 3 CURVE",
"396 159 OFFCURVE",
"457 323 OFFCURVE",
"515 475 CURVE",
"362 475 LINE",
"341 365 OFFCURVE",
"313 236 OFFCURVE",
"285 126 CURVE",
"267 126 LINE",
"253 213 LINE",
"170 475 LINE",
"16 459 LINE",
"182 -3 LINE"
);
},
{
closed = 1;
nodes = (
"431 373 LINE",
"437 475 LINE",
"298 475 LINE",
"297 423 LINE"
);
},
{
closed = 1;
nodes = (
"408 475 LINE",
"461 395 LINE",
"489 404 OFFCURVE",
"515 416 OFFCURVE",
"540 431 CURVE",
"537 475 LINE"
);
}
);
width = 533;
}
);
leftKerningGroup = v;
rightKerningGroup = v;
unicode = 0076;
},
{
color = 3;
glyphname = w;
layers = (
{
anchors = (
{
name = top;
position = "{375, 468}";
}
);
layerId = "C1B4D31E-EC41-4663-B02D-6CE46EF34CA2";
name = Regular;
paths = (
{
closed = 1;
nodes = (
"-22 423 LINE",
"130 354 LINE",
"159 475 LINE",
"-22 475 LINE"
);
},
{
closed = 1;
nodes = (
"133 475 LINE",
"158 395 LINE",
"186 404 OFFCURVE",
"212 416 OFFCURVE",
"237 431 CURVE",
"234 475 LINE"
);
},
{
closed = 1;
nodes = (
"748 475 LINE",
"598 475 LINE",
"538 110 LINE",
"530 110 LINE",
"511 212 LINE",
"423 471 LINE",
"283 457 LINE",
"445 -3 LINE",
"484 -11 OFFCURVE",
"551 -9 OFFCURVE",
"593 5 CURVE"
);
},
{
closed = 1;
nodes = (
"663 373 LINE",
"669 475 LINE",
"530 475 LINE",
"529 423 LINE"
);
},
{
closed = 1;
nodes = (
"644 475 LINE",
"697 395 LINE",
"725 404 OFFCURVE",
"751 416 OFFCURVE",
"776 431 CURVE",
"773 475 LINE"
);
},
{
closed = 1;
nodes = (
"355 329 LINE",
"277 110 LINE",
"269 110 LINE",
"245 212 LINE",
"161 475 LINE",
"13 459 LINE",
"169 -3 LINE",
"209 -10 OFFCURVE",
"277 -9 OFFCURVE",
"317 5 CURVE",
"390 176 LINE",
"412 274 LINE"
);
}
);
width = 768;
}
);
leftKerningGroup = v;
leftMetricsKey = v;
rightKerningGroup = v;
rightMetricsKey = v;
unicode = 0077;
},
{
color = 3;
glyphname = x;
layers = (
{
layerId = "C1B4D31E-EC41-4663-B02D-6CE46EF34CA2";
name = Regular;
paths = (
{
closed = 1;
nodes = (
"20 423 LINE",
"176 354 LINE",
"206 475 LINE",
"21 475 LINE"
);
},
{
closed = 1;
nodes = (
"213 404 OFFCURVE",
"239 416 OFFCURVE",
"264 431 CURVE",
"261 475 LINE",
"160 475 LINE",
"185 395 LINE SMOOTH"
);
},
{
closed = 1;
nodes = (
"428 388 LINE",
"506 475 LINE",
"314 475 LINE",
"313 423 LINE"
);
},
{
closed = 1;
nodes = (
"410 475 LINE",
"451 392 LINE",
"481 401 OFFCURVE",
"517 417 OFFCURVE",
"542 431 CURVE",
"539 475 LINE"
);
},
{
closed = 1;
nodes = (
"386 0 LINE",
"542 0 LINE",
"194 475 LINE",
"51 442 LINE"
);
},
{
closed = 1;
nodes = (
"493 415 LINE",
"507 475 LINE",
"384 475 LINE",
"294 289 LINE",
"330 222 LINE"
);
},
{
closed = 1;
nodes = (
"18 12 LINE",
"61 0 LINE",
"169 0 LINE",
"265 191 LINE",
"220 257 LINE"
);
},
{
closed = 1;
nodes = (
"103 0 LINE",
"114 78 LINE",
"81 70 OFFCURVE",
"32 53 OFFCURVE",
"-1 34 CURVE",
"2 0 LINE"
);
},
{
closed = 1;
nodes = (
"253 0 LINE",
"257 49 LINE",
"224 69 OFFCURVE",
"181 83 OFFCURVE",
"142 91 CURVE",
"119 0 LINE"
);
},
{
closed = 1;
nodes = (
"438 0 LINE",
"419 78 LINE",
"386 70 OFFCURVE",
"337 53 OFFCURVE",
"304 34 CURVE",
"307 0 LINE"
);
},
{
closed = 1;
nodes = (
"559 0 LINE",
"563 49 LINE",
"530 69 OFFCURVE",
"487 83 OFFCURVE",
"448 91 CURVE",
"425 0 LINE"
);
}
);
width = 569;
}
);
leftKerningGroup = x;
rightKerningGroup = x;
unicode = 0078;
},
{
color = 3;
glyphname = y;
layers = (
{
anchors = (
{
name = top;
position = "{273, 468}";
}
);
layerId = "C1B4D31E-EC41-4663-B02D-6CE46EF34CA2";
name = Regular;
paths = (
{
closed = 1;
nodes = (
"-22 423 LINE",
"138 354 LINE",
"171 475 LINE",
"-22 475 LINE"
);
},
{
closed = 1;
nodes = (
"143 475 LINE",
"168 395 LINE",
"196 404 OFFCURVE",
"222 416 OFFCURVE",
"247 431 CURVE",
"244 475 LINE"
);
},
{
closed = 1;
nodes = (
"294 423 LINE",
"428 373 LINE",
"434 475 LINE",
"295 475 LINE"
);
},
{
closed = 1;
nodes = (
"413 475 LINE",
"466 395 LINE",
"494 404 OFFCURVE",
"524 416 OFFCURVE",
"549 431 CURVE",
"546 475 LINE"
);
},
{
closed = 1;
nodes = (
"260 -145 OFFCURVE",
"338 -49 OFFCURVE",
"389 74 CURVE",
"435 198 OFFCURVE",
"477 349 OFFCURVE",
"514 475 CURVE",
"356 475 LINE",
"345 369 OFFCURVE",
"314 229 OFFCURVE",
"282 127 CURVE",
"264 127 LINE",
"252 214 LINE",
"174 475 LINE",
"24 453 LINE",
"175 38 LINE",
"197 23 OFFCURVE",
"225 11 OFFCURVE",
"250 5 CURVE",
"194 -42 OFFCURVE",
"123 -70 OFFCURVE",
"47 -91 CURVE",
"124 -222 LINE"
);
}
);
width = 541;
}
);
leftKerningGroup = v;
leftMetricsKey = v;
rightKerningGroup = y;
rightMetricsKey = v;
unicode = 0079;
},
{
color = 3;
glyphname = z;
layers = (
{
anchors = (
{
name = top;
position = "{260, 468}";
}
);
layerId = "C1B4D31E-EC41-4663-B02D-6CE46EF34CA2";
name = Regular;
paths = (
{
closed = 1;
nodes = (
"45 384 LINE",
"387 423 LINE",
"428 475 LINE",
"42 475 LINE"
);
},
{
closed = 1;
nodes = (
"442 497 LINE",
"387 460 LINE",
"335 460 LINE",
"19 29 LINE",
"74 -17 LINE",
"140 35 LINE",
"194 51 LINE",
"490 451 LINE"
);
},
{
closed = 1;
nodes = (
"430 173 LINE",
"397 102 LINE",
"122 80 LINE",
"89 24 LINE",
"454 -15 LINE",
"470 37 OFFCURVE",
"482 99 OFFCURVE",
"485 163 CURVE"
);
},
{
closed = 1;
nodes = (
"126 296 LINE",
"169 435 LINE",
"42 475 LINE",
"35 423 OFFCURVE",
"38 347 OFFCURVE",
"48 296 CURVE"
);
}
);
width = 509;
}
);
leftKerningGroup = z;
rightKerningGroup = z;
unicode = 007A;
},
{
color = 3;
glyphname = braceleft;
layers = (
{
layerId = "C1B4D31E-EC41-4663-B02D-6CE46EF34CA2";
name = Regular;
paths = (
{
closed = 1;
nodes = (
"405 -48 LINE",
"299 -36 LINE",
"307 149 LINE SMOOTH",
"310 202 OFFCURVE",
"291 250 OFFCURVE",
"253 295 CURVE",
"253 304 LINE",
"291 348 OFFCURVE",
"310 398 OFFCURVE",
"307 449 CURVE SMOOTH",
"299 632 LINE",
"408 632 LINE",
"402 729 LINE",
"225 715 OFFCURVE",
"152 628 OFFCURVE",
"152 549 CURVE SMOOTH",
"152 443 LINE SMOOTH",
"152 374 OFFCURVE",
"145 333 OFFCURVE",
"71 327 CURVE",
"65 268 LINE",
"147 262 OFFCURVE",
"152 223 OFFCURVE",
"152 142 CURVE SMOOTH",
"152 22 LINE SMOOTH",
"152 -48 OFFCURVE",
"239 -135 OFFCURVE",
"395 -145 CURVE"
);
}
);
width = 492;
}
);
unicode = 007B;
},
{
color = 3;
glyphname = bar;
layers = (
{
layerId = "C1B4D31E-EC41-4663-B02D-6CE46EF34CA2";
name = Regular;
paths = (
{
closed = 1;
nodes = (
"212 -225 LINE",
"211 735 LINE",
"100 735 LINE",
"100 -225 LINE"
);
}
);
width = 313;
}
);
unicode = 007C;
},
{
color = 3;
glyphname = braceright;
layers = (
{
layerId = "C1B4D31E-EC41-4663-B02D-6CE46EF34CA2";
name = Regular;
paths = (
{
closed = 1;
nodes = (
"254 -135 OFFCURVE",
"341 -48 OFFCURVE",
"341 22 CURVE SMOOTH",
"341 142 LINE SMOOTH",
"341 223 OFFCURVE",
"346 262 OFFCURVE",
"428 268 CURVE",
"422 327 LINE",
"348 333 OFFCURVE",
"341 374 OFFCURVE",
"341 443 CURVE SMOOTH",
"341 549 LINE SMOOTH",
"341 628 OFFCURVE",
"268 715 OFFCURVE",
"91 729 CURVE",
"85 632 LINE",
"194 632 LINE",
"186 449 LINE SMOOTH",
"183 398 OFFCURVE",
"202 348 OFFCURVE",
"240 304 CURVE",
"240 295 LINE",
"202 250 OFFCURVE",
"183 202 OFFCURVE",
"186 149 CURVE SMOOTH",
"194 -36 LINE",
"88 -48 LINE",
"98 -145 LINE"
);
}
);
width = 496;
}
);
unicode = 007D;
},
{
color = 3;
glyphname = cent;
layers = (
{
components = (
{
name = c;
transform = "{1, 0, 0, 0.931, 0, 22}";
}
);
layerId = "C1B4D31E-EC41-4663-B02D-6CE46EF34CA2";
name = Regular;
paths = (
{
closed = 1;
nodes = (
"214 462 LINE",
"300 462 LINE",
"300 601 LINE",
"214 601 LINE"
);
},
{
closed = 1;
nodes = (
"214 -116 LINE",
"300 -116 LINE",
"300 24 LINE",
"214 24 LINE"
);
}
);
width = 455;
}
);
leftMetricsKey = c;
rightMetricsKey = c;
unicode = 00A2;
},
{
color = 3;
glyphname = sterling;
layers = (
{
layerId = "C1B4D31E-EC41-4663-B02D-6CE46EF34CA2";
name = Regular;
paths = (
{
closed = 1;
nodes = (
"156 670 OFFCURVE",
"75 562 OFFCURVE",
"75 472 CURVE SMOOTH",
"75 352 OFFCURVE",
"219 226 OFFCURVE",
"48 0 CURVE",
"136 0 LINE",
"368 206 OFFCURVE",
"227 362 OFFCURVE",
"227 492 CURVE SMOOTH",
"227 525 OFFCURVE",
"236 565 OFFCURVE",
"269 587 CURVE",
"337 583 OFFCURVE",
"397 565 OFFCURVE",
"445 512 CURVE",
"502 627 LINE",
"454 650 OFFCURVE",
"385 670 OFFCURVE",
"316 670 CURVE SMOOTH"
);
},
{
closed = 1;
nodes = (
"78 65 OFFCURVE",
"43 50 OFFCURVE",
"14 32 CURVE",
"20 0 LINE",
"114 0 LINE",
"113 79 LINE"
);
},
{
closed = 1;
nodes = (
"205 86 LINE",
"114 0 LINE",
"523 0 LINE",
"506 103 LINE"
);
},
{
closed = 1;
nodes = (
"409 305 LINE",
"403 338 LINE",
"235 338 LINE",
"199 324 LINE",
"67 324 LINE",
"24 286 LINE",
"30 253 LINE",
"187 253 LINE",
"225 267 LINE",
"366 267 LINE"
);
},
{
closed = 1;
nodes = (
"503 499 OFFCURVE",
"506 588 OFFCURVE",
"503 627 CURVE",
"350 606 LINE",
"414 444 LINE",
"491 443 LINE"
);
},
{
closed = 1;
nodes = (
"448 212 LINE",
"375 24 LINE",
"523 0 LINE",
"529 46 OFFCURVE",
"529 149 OFFCURVE",
"522 206 CURVE"
);
}
);
width = 564;
}
);
unicode = 00A3;
},
{
color = 3;
glyphname = currency;
layers = (
{
layerId = "C1B4D31E-EC41-4663-B02D-6CE46EF34CA2";
name = Regular;
paths = (
{
closed = 1;
nodes = (
"73 249 OFFCURVE",
"149 165 OFFCURVE",
"254 165 CURVE SMOOTH",
"343 165 OFFCURVE",
"434 233 OFFCURVE",
"434 358 CURVE SMOOTH",
"434 481 OFFCURVE",
"350 545 OFFCURVE",
"258 545 CURVE SMOOTH",
"166 545 OFFCURVE",
"73 473 OFFCURVE",
"73 357 CURVE SMOOTH"
);
},
{
closed = 1;
nodes = (
"293 247 OFFCURVE",
"280 246 OFFCURVE",
"270 246 CURVE SMOOTH",
"195 246 OFFCURVE",
"164 305 OFFCURVE",
"164 362 CURVE SMOOTH",
"164 402 OFFCURVE",
"180 441 OFFCURVE",
"202 459 CURVE",
"215 462 OFFCURVE",
"225 463 OFFCURVE",
"236 463 CURVE SMOOTH",
"317 463 OFFCURVE",
"343 402 OFFCURVE",
"343 348 CURVE SMOOTH",
"343 304 OFFCURVE",
"325 262 OFFCURVE",
"306 250 CURVE"
);
},
{
closed = 1;
nodes = (
"132 255 LINE",
"58 170 LINE",
"108 125 LINE",
"181 213 LINE"
);
},
{
closed = 1;
nodes = (
"330 212 LINE",
"408 127 LINE",
"456 174 LINE",
"378 259 LINE"
);
},
{
closed = 1;
nodes = (
"177 500 LINE",
"103 583 LINE",
"52 538 LINE",
"129 451 LINE"
);
},
{
closed = 1;
nodes = (
"380 450 LINE",
"458 539 LINE",
"406 582 LINE",
"333 495 LINE"
);
}
);
width = 510;
}
);
unicode = 00A4;
},
{
color = 3;
glyphname = yen;
layers = (
{
components = (
{
name = Y;
transform = "{1, 0, 0, 1, -22, 0}";
}
);
layerId = "C1B4D31E-EC41-4663-B02D-6CE46EF34CA2";
name = Regular;
paths = (
{
closed = 1;
nodes = (
"511 269 LINE",
"505 302 LINE",
"142 302 LINE",
"99 270 LINE",
"105 237 LINE",
"468 237 LINE"
);
},
{
closed = 1;
nodes = (
"511 149 LINE",
"505 182 LINE",
"142 182 LINE",
"99 150 LINE",
"105 117 LINE",
"468 117 LINE"
);
}
);
width = 641;
}
);
leftMetricsKey = y;
rightMetricsKey = Y;
unicode = 00A5;
},
{
color = 3;
glyphname = brokenbar;
layers = (
{
layerId = "C1B4D31E-EC41-4663-B02D-6CE46EF34CA2";
name = Regular;
paths = (
{
closed = 1;
nodes = (
"211 358 LINE",
"211 616 LINE",
"100 616 LINE",
"100 358 LINE"
);
},
{
closed = 1;
nodes = (
"211 -76 LINE",
"211 182 LINE",
"100 182 LINE",
"100 -76 LINE"
);
}
);
width = 313;
}
);
leftMetricsKey = bar;
rightMetricsKey = bar;
unicode = 00A6;
},
{
color = 3;
glyphname = section;
layers = (
{
layerId = "C1B4D31E-EC41-4663-B02D-6CE46EF34CA2";
name = Regular;
paths = (
{
closed = 1;
nodes = (
"466 533 OFFCURVE",
"469 598 OFFCURVE",
"466 638 CURVE",
"337 616 LINE",
"377 478 LINE",
"454 477 LINE"
);
},
{
closed = 1;
nodes = (
"383 109 LINE",
"455 145 OFFCURVE",
"493 190 OFFCURVE",
"493 251 CURVE SMOOTH",
"493 347 OFFCURVE",
"396 391 OFFCURVE",
"321 424 CURVE SMOOTH",
"244 456 OFFCURVE",
"195 474 OFFCURVE",
"195 521 CURVE SMOOTH",
"195 548 OFFCURVE",
"212 576 OFFCURVE",
"238 591 CURVE",
"314 602 OFFCURVE",
"384 578 OFFCURVE",
"426 539 CURVE",
"466 638 LINE",
"421 656 OFFCURVE",
"356 671 OFFCURVE",
"298 671 CURVE SMOOTH",
"172 671 OFFCURVE",
"71 605 OFFCURVE",
"71 503 CURVE SMOOTH",
"71 424 OFFCURVE",
"134 376 OFFCURVE",
"232 334 CURVE SMOOTH",
"303 305 OFFCURVE",
"381 282 OFFCURVE",
"381 218 CURVE SMOOTH",
"381 192 OFFCURVE",
"368 175 OFFCURVE",
"338 150 CURVE"
);
},
{
closed = 1;
nodes = (
"194 411 LINE",
"117 383 OFFCURVE",
"62 331 OFFCURVE",
"62 259 CURVE SMOOTH",
"62 172 OFFCURVE",
"143 130 OFFCURVE",
"232 90 CURVE SMOOTH",
"301 62 OFFCURVE",
"364 46 OFFCURVE",
"364 -5 CURVE SMOOTH",
"364 -23 OFFCURVE",
"354 -43 OFFCURVE",
"335 -59 CURVE",
"272 -55 OFFCURVE",
"191 -26 OFFCURVE",
"126 23 CURVE",
"68 -89 LINE",
"133 -131 OFFCURVE",
"218 -149 OFFCURVE",
"275 -149 CURVE SMOOTH",
"387 -149 OFFCURVE",
"475 -82 OFFCURVE",
"475 13 CURVE SMOOTH",
"475 91 OFFCURVE",
"415 139 OFFCURVE",
"317 178 CURVE SMOOTH",
"240 209 OFFCURVE",
"171 229 OFFCURVE",
"171 284 CURVE SMOOTH",
"171 314 OFFCURVE",
"192 339 OFFCURVE",
"223 360 CURVE"
);
}
);
width = 534;
}
);
leftMetricsKey = S;
rightMetricsKey = S;
unicode = 00A7;
},
{
color = 3;
glyphname = copyright;
layers = (
{
layerId = "C1B4D31E-EC41-4663-B02D-6CE46EF34CA2";
name = Regular;
paths = (
{
closed = 1;
nodes = (
"600 -23 OFFCURVE",
"756 135 OFFCURVE",
"756 331 CURVE SMOOTH",
"756 531 OFFCURVE",
"595 689 OFFCURVE",
"398 689 CURVE SMOOTH",
"201 689 OFFCURVE",
"43 532 OFFCURVE",
"43 332 CURVE SMOOTH",
"43 130 OFFCURVE",
"203 -23 OFFCURVE",
"400 -23 CURVE SMOOTH"
);
},
{
closed = 1;
nodes = (
"240 50 OFFCURVE",
"116 171 OFFCURVE",
"116 330 CURVE SMOOTH",
"116 491 OFFCURVE",
"244 617 OFFCURVE",
"400 617 CURVE SMOOTH",
"557 617 OFFCURVE",
"684 490 OFFCURVE",
"684 333 CURVE SMOOTH",
"684 177 OFFCURVE",
"559 50 OFFCURVE",
"398 50 CURVE SMOOTH"
);
},
{
closed = 1;
nodes = (
"543 244 LINE",
"509 230 OFFCURVE",
"482 224 OFFCURVE",
"453 224 CURVE SMOOTH",
"367 224 OFFCURVE",
"322 280 OFFCURVE",
"322 346 CURVE SMOOTH",
"322 386 OFFCURVE",
"338 432 OFFCURVE",
"371 463 CURVE",
"421 449 OFFCURVE",
"452 420 OFFCURVE",
"478 375 CURVE",
"571 432 LINE",
"534 505 OFFCURVE",
"476 529 OFFCURVE",
"412 529 CURVE SMOOTH",
"291 529 OFFCURVE",
"210 442 OFFCURVE",
"210 330 CURVE SMOOTH",
"210 211 OFFCURVE",
"302 129 OFFCURVE",
"430 135 CURVE",
"560 199 LINE"
);
}
);
width = 800;
}
);
unicode = 00A9;
},
{
color = 3;
glyphname = ordfeminine;
layers = (
{
layerId = "C1B4D31E-EC41-4663-B02D-6CE46EF34CA2";
name = Regular;
paths = (
{
closed = 1;
nodes = (
"56 429 OFFCURVE",
"43 400 OFFCURVE",
"43 375 CURVE SMOOTH",
"43 329 OFFCURVE",
"84 287 OFFCURVE",
"163 295 CURVE",
"245 350 LINE",
"238 375 LINE",
"220 368 OFFCURVE",
"179 355 OFFCURVE",
"151 355 CURVE",
"144 361 OFFCURVE",
"139 369 OFFCURVE",
"139 380 CURVE SMOOTH",
"139 414 OFFCURVE",
"187 417 OFFCURVE",
"221 414 CURVE SMOOTH",
"242 412 LINE",
"243 454 LINE",
"90 451 LINE"
);
},
{
closed = 1;
nodes = (
"57 557 OFFCURVE",
"62 519 OFFCURVE",
"69 490 CURVE",
"132 493 LINE",
"144 567 LINE",
"156 570 OFFCURVE",
"174 573 OFFCURVE",
"195 573 CURVE",
"214 564 OFFCURVE",
"227 545 OFFCURVE",
"227 507 CURVE SMOOTH",
"227 354 LINE",
"232 350 LINE",
"245 317 OFFCURVE",
"275 294 OFFCURVE",
"300 293 CURVE",
"385 339 LINE",
"380 368 LINE",
"367 367 OFFCURVE",
"357 365 OFFCURVE",
"347 365 CURVE SMOOTH",
"336 365 OFFCURVE",
"330 372 OFFCURVE",
"330 381 CURVE",
"330 506 LINE SMOOTH",
"330 547 OFFCURVE",
"329 560 OFFCURVE",
"323 572 CURVE SMOOTH",
"306 600 OFFCURVE",
"275 626 OFFCURVE",
"234 627 CURVE SMOOTH",
"188 627 OFFCURVE",
"104 610 OFFCURVE",
"59 585 CURVE"
);
},
{
closed = 1;
nodes = (
"30 255 LINE",
"30 196 LINE",
"398 196 LINE",
"398 255 LINE"
);
}
);
width = 429;
}
);
unicode = 00AA;
},
{
color = 3;
glyphname = guillemetleft;
layers = (
{
layerId = "C1B4D31E-EC41-4663-B02D-6CE46EF34CA2";
name = Regular;
paths = (
{
closed = 1;
nodes = (
"56 220 LINE",
"214 38 LINE",
"291 90 LINE",
"196 253 LINE",
"285 424 LINE",
"211 472 LINE",
"56 286 LINE"
);
},
{
closed = 1;
nodes = (
"290 220 LINE",
"448 38 LINE",
"525 90 LINE",
"430 253 LINE",
"519 424 LINE",
"445 472 LINE",
"290 286 LINE"
);
}
);
width = 582;
}
);
leftMetricsKey = guilsinglleft;
rightMetricsKey = guilsinglleft;
unicode = 00AB;
},
{
color = 3;
glyphname = logicalnot;
layers = (
{
layerId = "C1B4D31E-EC41-4663-B02D-6CE46EF34CA2";
name = Regular;
paths = (
{
closed = 1;
nodes = (
"56 273 LINE",
"56 186 LINE",
"536 186 LINE",
"536 273 LINE"
);
},
{
closed = 1;
nodes = (
"536 273 LINE",
"439 273 LINE",
"439 0 LINE",
"536 0 LINE"
);
}
);
width = 592;
}
);
leftMetricsKey = minus;
rightMetricsKey = minus;
unicode = 00AC;
},
{
color = 3;
glyphname = softhyphen;
layers = (
{
layerId = "C1B4D31E-EC41-4663-B02D-6CE46EF34CA2";
name = Regular;
paths = (
{
closed = 1;
nodes = (
"367 231 LINE",
"384 266 LINE",
"336 342 LINE",
"49 342 LINE",
"32 308 LINE",
"80 231 LINE"
);
}
);
width = 427;
}
);
unicode = 00AD;
},
{
color = 3;
glyphname = registered;
layers = (
{
layerId = "C1B4D31E-EC41-4663-B02D-6CE46EF34CA2";
name = Regular;
paths = (
{
closed = 1;
nodes = (
"558 661 OFFCURVE",
"444 773 OFFCURVE",
"287 773 CURVE SMOOTH",
"130 773 OFFCURVE",
"13 661 OFFCURVE",
"13 504 CURVE SMOOTH",
"13 350 OFFCURVE",
"123 235 OFFCURVE",
"285 235 CURVE SMOOTH",
"446 235 OFFCURVE",
"558 350 OFFCURVE",
"558 504 CURVE SMOOTH"
);
},
{
closed = 1;
nodes = (
"504 374 OFFCURVE",
"412 286 OFFCURVE",
"281 286 CURVE SMOOTH",
"152 286 OFFCURVE",
"67 372 OFFCURVE",
"67 500 CURVE SMOOTH",
"67 631 OFFCURVE",
"158 723 OFFCURVE",
"286 723 CURVE SMOOTH",
"414 723 OFFCURVE",
"504 632 OFFCURVE",
"504 503 CURVE SMOOTH"
);
},
{
closed = 1;
nodes = (
"144 645 LINE",
"144 617 LINE",
"201 611 LINE",
"201 645 LINE"
);
},
{
closed = 1;
nodes = (
"179 376 LINE",
"249 376 LINE",
"249 645 LINE",
"179 645 LINE"
);
},
{
closed = 1;
nodes = (
"327 598 OFFCURVE",
"336 579 OFFCURVE",
"336 560 CURVE SMOOTH",
"336 533 OFFCURVE",
"320 513 OFFCURVE",
"270 513 CURVE SMOOTH",
"256 513 OFFCURVE",
"245 515 OFFCURVE",
"232 518 CURVE",
"231 477 LINE",
"296 477 LINE SMOOTH",
"375 477 OFFCURVE",
"411 519 OFFCURVE",
"411 561 CURVE SMOOTH",
"411 608 OFFCURVE",
"368 645 OFFCURVE",
"291 645 CURVE",
"219 645 LINE",
"240 602 LINE",
"303 609 LINE"
);
},
{
closed = 1;
nodes = (
"188 415 OFFCURVE",
"156 404 OFFCURVE",
"141 395 CURVE",
"145 376 LINE",
"189 376 LINE",
"194 418 LINE"
);
},
{
closed = 1;
nodes = (
"225 376 LINE",
"288 376 LINE",
"289 402 LINE",
"227 410 LINE"
);
},
{
closed = 1;
nodes = (
"271 500 LINE",
"341 376 LINE",
"423 376 LINE",
"341 504 LINE"
);
},
{
closed = 1;
nodes = (
"370 376 LINE",
"434 376 LINE",
"434 402 LINE",
"372 410 LINE"
);
}
);
width = 573;
}
);
unicode = 00AE;
},
{
color = 3;
glyphname = degree;
layers = (
{
layerId = "C1B4D31E-EC41-4663-B02D-6CE46EF34CA2";
name = Regular;
paths = (
{
closed = 1;
nodes = (
"193 445 OFFCURVE",
"183 444 OFFCURVE",
"174 444 CURVE SMOOTH",
"130 444 OFFCURVE",
"107 481 OFFCURVE",
"107 518 CURVE SMOOTH",
"107 538 OFFCURVE",
"114 558 OFFCURVE",
"126 574 CURVE",
"138 579 OFFCURVE",
"149 581 OFFCURVE",
"159 581 CURVE SMOOTH",
"201 581 OFFCURVE",
"225 543 OFFCURVE",
"225 505 CURVE SMOOTH",
"225 484 OFFCURVE",
"218 463 OFFCURVE",
"203 448 CURVE"
);
},
{
closed = 1;
nodes = (
"30 431 OFFCURVE",
"95 377 OFFCURVE",
"169 377 CURVE SMOOTH",
"248 377 OFFCURVE",
"304 430 OFFCURVE",
"304 513 CURVE SMOOTH",
"304 590 OFFCURVE",
"244 650 OFFCURVE",
"165 650 CURVE SMOOTH",
"89 650 OFFCURVE",
"30 590 OFFCURVE",
"30 513 CURVE SMOOTH"
);
}
);
width = 364;
}
);
unicode = 00B0;
},
{
color = 3;
glyphname = plusminus;
layers = (
{
layerId = "C1B4D31E-EC41-4663-B02D-6CE46EF34CA2";
name = Regular;
paths = (
{
closed = 1;
nodes = (
"322 417 LINE",
"322 595 LINE",
"225 595 LINE",
"225 417 LINE",
"56 417 LINE",
"56 332 LINE",
"225 332 LINE",
"225 153 LINE",
"322 153 LINE",
"322 332 LINE",
"490 332 LINE",
"490 417 LINE"
);
},
{
closed = 1;
nodes = (
"59 86 LINE",
"60 0 LINE",
"483 0 LINE",
"483 86 LINE"
);
}
);
width = 546;
}
);
leftMetricsKey = minus;
rightMetricsKey = minus;
unicode = 00B1;
},
{
color = 3;
glyphname = twosuperior;
layers = (
{
layerId = "C1B4D31E-EC41-4663-B02D-6CE46EF34CA2";
name = Regular;
paths = (
{
closed = 1;
nodes = (
"90 613 LINE",
"118 709 LINE",
"29 712 LINE",
"26 687 OFFCURVE",
"32 637 OFFCURVE",
"38 613 CURVE"
);
},
{
closed = 1;
nodes = (
"42 421 LINE",
"268 421 LINE",
"283 509 LINE",
"139 481 LINE",
"136 487 LINE",
"223 546 OFFCURVE",
"269 599 OFFCURVE",
"269 650 CURVE SMOOTH",
"269 703 OFFCURVE",
"224 751 OFFCURVE",
"149 751 CURVE SMOOTH",
"107 751 OFFCURVE",
"64 737 OFFCURVE",
"29 712 CURVE",
"76 693 LINE",
"93 701 OFFCURVE",
"113 705 OFFCURVE",
"125 705 CURVE SMOOTH",
"155 705 OFFCURVE",
"178 682 OFFCURVE",
"178 649 CURVE SMOOTH",
"178 627 OFFCURVE",
"165 597 OFFCURVE",
"104 540 CURVE SMOOTH",
"25 466 LINE"
);
}
);
width = 308;
}
);
unicode = 00B2;
},
{
color = 3;
glyphname = threesuperior;
layers = (
{
layerId = "C1B4D31E-EC41-4663-B02D-6CE46EF34CA2";
name = Regular;
paths = (
{
closed = 1;
nodes = (
"136 723 LINE",
"42 720 LINE",
"40 696 OFFCURVE",
"43 656 OFFCURVE",
"49 632 CURVE",
"94 631 LINE"
);
},
{
closed = 1;
nodes = (
"103 597 LINE",
"105 551 LINE",
"217 585 LINE",
"217 589 LINE",
"255 603 OFFCURVE",
"271 634 OFFCURVE",
"271 662 CURVE SMOOTH",
"271 710 OFFCURVE",
"223 751 OFFCURVE",
"155 751 CURVE SMOOTH",
"116 751 OFFCURVE",
"69 738 OFFCURVE",
"42 720 CURVE",
"61 688 LINE",
"81 700 OFFCURVE",
"107 705 OFFCURVE",
"124 705 CURVE SMOOTH",
"160 705 OFFCURVE",
"184 683 OFFCURVE",
"184 654 CURVE SMOOTH",
"184 630 OFFCURVE",
"167 597 OFFCURVE",
"111 597 CURVE SMOOTH"
);
},
{
closed = 1;
nodes = (
"30 437 LINE",
"69 419 OFFCURVE",
"116 411 OFFCURVE",
"154 411 CURVE SMOOTH",
"223 411 OFFCURVE",
"287 441 OFFCURVE",
"287 505 CURVE SMOOTH",
"287 558 OFFCURVE",
"242 595 OFFCURVE",
"188 588 CURVE",
"194 598 LINE",
"103 597 LINE",
"96 597 LINE",
"98 549 LINE",
"131 549 LINE SMOOTH",
"175 549 OFFCURVE",
"197 524 OFFCURVE",
"197 499 CURVE SMOOTH",
"197 485 OFFCURVE",
"190 470 OFFCURVE",
"175 461 CURVE",
"139 468 OFFCURVE",
"91 494 OFFCURVE",
"53 522 CURVE"
);
}
);
width = 316;
}
);
unicode = 00B3;
},
{
color = 3;
glyphname = foursuperior;
layers = (
{
layerId = "C1B4D31E-EC41-4663-B02D-6CE46EF34CA2";
name = Regular;
paths = (
{
closed = 1;
nodes = (
"69 523 LINE",
"193 700 LINE",
"208 691 LINE",
"202 739 LINE",
"164 751 LINE",
"0 535 LINE",
"18 492 LINE",
"278 492 LINE",
"295 513 LINE",
"295 546 LINE",
"48 544 LINE"
);
},
{
closed = 1;
nodes = (
"153 421 LINE",
"239 421 LINE",
"239 737 LINE",
"164 751 LINE",
"172 695 LINE",
"153 599 LINE"
);
},
{
closed = 1;
nodes = (
"276 421 LINE",
"277 448 LINE",
"213 460 LINE",
"212 421 LINE"
);
},
{
closed = 1;
nodes = (
"165 421 LINE",
"166 466 LINE",
"142 460 OFFCURVE",
"111 448 OFFCURVE",
"90 436 CURVE",
"93 421 LINE"
);
}
);
width = 316;
}
);
unicode = 2074;
},
{
color = 3;
glyphname = micro;
layers = (
{
layerId = "C1B4D31E-EC41-4663-B02D-6CE46EF34CA2";
name = Regular;
paths = (
{
closed = 1;
nodes = (
"548 90 OFFCURVE",
"532 87 OFFCURVE",
"517 87 CURVE SMOOTH",
"502 87 OFFCURVE",
"492 96 OFFCURVE",
"492 110 CURVE",
"492 491 LINE",
"438 492 OFFCURVE",
"373 479 OFFCURVE",
"347 471 CURVE",
"347 80 LINE",
"357 71 LINE",
"375 24 OFFCURVE",
"419 -15 OFFCURVE",
"453 -16 CURVE",
"576 48 LINE",
"567 93 LINE"
);
},
{
closed = 1;
nodes = (
"53 -226 LINE",
"111 -239 OFFCURVE",
"182 -217 OFFCURVE",
"204 -195 CURVE",
"130 31 LINE",
"149 4 OFFCURVE",
"173 -14 OFFCURVE",
"192 -14 CURVE",
"248 1 OFFCURVE",
"347 47 OFFCURVE",
"435 125 CURVE",
"425 157 LINE",
"378 126 OFFCURVE",
"319 91 OFFCURVE",
"270 90 CURVE SMOOTH",
"225 88 OFFCURVE",
"197 114 OFFCURVE",
"197 177 CURVE SMOOTH",
"197 491 LINE",
"143 492 OFFCURVE",
"78 479 OFFCURVE",
"52 471 CURVE"
);
},
{
closed = 1;
nodes = (
"101 20 LINE",
"169 20 LINE",
"169 58 LINE",
"101 58 LINE"
);
}
);
width = 582;
}
);
rightMetricsKey = u;
unicode = 00B5;
},
{
color = 3;
glyphname = paragraph;
layers = (
{
layerId = "C1B4D31E-EC41-4663-B02D-6CE46EF34CA2";
name = Regular;
paths = (
{
closed = 1;
nodes = (
"314 688 LINE",
"95 702 OFFCURVE",
"0 588 OFFCURVE",
"0 477 CURVE SMOOTH",
"0 387 OFFCURVE",
"64 299 OFFCURVE",
"173 265 CURVE",
"211 302 LINE",
"181 347 OFFCURVE",
"166 383 OFFCURVE",
"166 430 CURVE SMOOTH",
"166 548 OFFCURVE",
"259 604 OFFCURVE",
"381 596 CURVE SMOOTH",
"625 581 LINE",
"632 646 LINE"
);
},
{
closed = 1;
nodes = (
"299 -165 LINE",
"299 -87 LINE",
"299 -87 OFFCURVE",
"217 -104 OFFCURVE",
"169 -126 CURVE",
"175 -165 LINE"
);
},
{
closed = 1;
nodes = (
"633 -165 LINE",
"634 -115 LINE",
"496 -99 LINE",
"493 -165 LINE"
);
},
{
closed = 1;
nodes = (
"281 -166 LINE",
"376 -166 LINE",
"376 609 LINE",
"281 609 LINE"
);
},
{
closed = 1;
nodes = (
"451 -166 LINE",
"546 -166 LINE",
"546 609 LINE",
"451 609 LINE"
);
}
);
width = 666;
}
);
rightMetricsKey = l;
unicode = 00B6;
},
{
color = 3;
glyphname = periodcentered;
layers = (
{
layerId = "C1B4D31E-EC41-4663-B02D-6CE46EF34CA2";
name = Regular;
paths = (
{
closed = 1;
nodes = (
"155 205 OFFCURVE",
"186 245 OFFCURVE",
"199 279 CURVE",
"181 304 OFFCURVE",
"141 340 OFFCURVE",
"107 353 CURVE",
"78 336 OFFCURVE",
"49 296 OFFCURVE",
"30 259 CURVE",
"50 231 OFFCURVE",
"96 197 OFFCURVE",
"126 185 CURVE"
);
}
);
width = 254;
}
);
unicode = 00B7;
},
{
color = 3;
glyphname = onesuperior;
layers = (
{
layerId = "C1B4D31E-EC41-4663-B02D-6CE46EF34CA2";
name = Regular;
paths = (
{
closed = 1;
nodes = (
"138 682 LINE",
"148 727 LINE",
"138 747 LINE",
"8 672 LINE",
"26 637 LINE"
);
},
{
closed = 1;
nodes = (
"179 721 LINE",
"138 747 LINE",
"130 710 LINE"
);
},
{
closed = 1;
nodes = (
"86 421 LINE",
"178 421 LINE",
"178 721 LINE",
"86 712 LINE"
);
},
{
closed = 1;
nodes = (
"96 421 LINE",
"97 468 LINE",
"72 462 OFFCURVE",
"40 448 OFFCURVE",
"22 436 CURVE",
"25 421 LINE"
);
},
{
closed = 1;
nodes = (
"235 421 LINE",
"236 448 LINE",
"169 464 LINE",
"167 421 LINE"
);
}
);
width = 259;
}
);
unicode = 00B9;
},
{
color = 3;
glyphname = ordmasculine;
layers = (
{
layerId = "C1B4D31E-EC41-4663-B02D-6CE46EF34CA2";
name = Regular;
paths = (
{
closed = 1;
nodes = (
"32 353 OFFCURVE",
"108 285 OFFCURVE",
"199 285 CURVE SMOOTH",
"285 285 OFFCURVE",
"365 343 OFFCURVE",
"365 455 CURVE SMOOTH",
"365 565 OFFCURVE",
"286 630 OFFCURVE",
"202 630 CURVE SMOOTH",
"120 630 OFFCURVE",
"32 569 OFFCURVE",
"32 457 CURVE SMOOTH"
);
},
{
closed = 1;
nodes = (
"225 348 OFFCURVE",
"218 347 OFFCURVE",
"210 347 CURVE SMOOTH",
"161 347 OFFCURVE",
"139 392 OFFCURVE",
"139 458 CURVE SMOOTH",
"139 506 OFFCURVE",
"151 548 OFFCURVE",
"166 559 CURVE",
"174 561 OFFCURVE",
"180 563 OFFCURVE",
"189 563 CURVE SMOOTH",
"242 563 OFFCURVE",
"259 503 OFFCURVE",
"259 440 CURVE SMOOTH",
"259 384 OFFCURVE",
"242 354 OFFCURVE",
"232 350 CURVE"
);
},
{
closed = 1;
nodes = (
"18 255 LINE",
"18 196 LINE",
"382 196 LINE",
"382 255 LINE"
);
}
);
width = 428;
}
);
unicode = 00BA;
},
{
color = 3;
glyphname = guillemetright;
layers = (
{
layerId = "C1B4D31E-EC41-4663-B02D-6CE46EF34CA2";
name = Regular;
paths = (
{
closed = 1;
nodes = (
"525 286 LINE",
"370 472 LINE",
"296 424 LINE",
"385 253 LINE",
"290 90 LINE",
"367 38 LINE",
"525 220 LINE"
);
},
{
closed = 1;
nodes = (
"291 286 LINE",
"136 472 LINE",
"62 424 LINE",
"151 253 LINE",
"56 90 LINE",
"133 38 LINE",
"291 220 LINE"
);
}
);
width = 582;
}
);
leftMetricsKey = "=|";
rightMetricsKey = "=|guillemetleft";
unicode = 00BB;
},
{
color = 3;
glyphname = AE;
layers = (
{
anchors = (
{
name = top;
position = "{537, 650}";
}
);
layerId = "C1B4D31E-EC41-4663-B02D-6CE46EF34CA2";
name = Regular;
paths = (
{
closed = 1;
nodes = (
"306 658 LINE",
"305 607 LINE",
"418 593 LINE",
"479 658 LINE"
);
},
{
closed = 1;
nodes = (
"895 658 LINE",
"490 658 LINE",
"565 577 LINE",
"880 560 LINE"
);
},
{
closed = 1;
nodes = (
"398 651 LINE",
"55 0 LINE",
"160 0 LINE",
"481 626 LINE"
);
},
{
closed = 1;
nodes = (
"446 658 LINE",
"446 0 LINE",
"594 0 LINE",
"594 658 LINE"
);
},
{
closed = 1;
nodes = (
"230 258 LINE",
"230 182 LINE",
"542 182 LINE",
"542 258 LINE"
);
},
{
closed = 1;
nodes = (
"86 73 OFFCURVE",
"29 52 OFFCURVE",
"2 34 CURVE",
"8 0 LINE",
"102 0 LINE",
"101 81 LINE"
);
},
{
closed = 1;
nodes = (
"140 0 LINE",
"280 0 LINE",
"281 51 LINE",
"143 71 LINE"
);
},
{
closed = 1;
nodes = (
"445 73 OFFCURVE",
"388 52 OFFCURVE",
"361 34 CURVE",
"367 0 LINE",
"461 0 LINE",
"460 81 LINE"
);
},
{
closed = 1;
nodes = (
"568 85 LINE",
"493 0 LINE",
"882 0 LINE",
"879 102 LINE"
);
},
{
closed = 1;
nodes = (
"574 363 LINE",
"574 291 LINE",
"814 281 LINE",
"814 382 LINE"
);
},
{
closed = 1;
nodes = (
"764 24 LINE",
"891 0 LINE",
"899 54 OFFCURVE",
"905 143 OFFCURVE",
"903 199 CURVE",
"819 205 LINE"
);
},
{
closed = 1;
nodes = (
"879 468 LINE",
"892 533 OFFCURVE",
"897 619 OFFCURVE",
"895 658 CURVE",
"767 631 LINE",
"795 468 LINE"
);
}
);
width = 946;
}
);
leftKerningGroup = A;
leftMetricsKey = A;
rightKerningGroup = E;
rightMetricsKey = E;
unicode = 00C6;
},
{
color = 3;
glyphname = multiply;
layers = (
{
layerId = "C1B4D31E-EC41-4663-B02D-6CE46EF34CA2";
name = Regular;
paths = (
{
closed = 1;
nodes = (
"282 302 LINE",
"132 458 LINE",
"65 396 LINE",
"218 238 LINE",
"67 83 LINE",
"132 20 LINE",
"280 176 LINE",
"430 20 LINE",
"495 84 LINE",
"344 240 LINE",
"496 396 LINE",
"430 458 LINE"
);
}
);
width = 562;
}
);
unicode = 00D7;
},
{
color = 3;
glyphname = Oslash;
layers = (
{
components = (
{
name = O;
}
);
layerId = "C1B4D31E-EC41-4663-B02D-6CE46EF34CA2";
name = Regular;
paths = (
{
closed = 1;
nodes = (
"177 -87 LINE",
"601 700 LINE",
"532 740 LINE",
"107 -49 LINE"
);
}
);
width = 703;
}
);
leftKerningGroup = O;
leftMetricsKey = O;
rightKerningGroup = O;
rightMetricsKey = O;
unicode = 00D8;
},
{
color = 3;
glyphname = Thorn;
layers = (
{
layerId = "C1B4D31E-EC41-4663-B02D-6CE46EF34CA2";
name = Regular;
paths = (
{
closed = 1;
nodes = (
"37 650 LINE",
"36 599 LINE",
"174 579 LINE",
"177 650 LINE"
);
},
{
closed = 1;
nodes = (
"253 650 LINE",
"254 569 LINE",
"270 577 OFFCURVE",
"326 598 OFFCURVE",
"353 616 CURVE",
"347 650 LINE"
);
},
{
closed = 1;
nodes = (
"268 0 LINE",
"268 650 LINE",
"116 650 LINE",
"116 0 LINE"
);
},
{
closed = 1;
nodes = (
"128 0 LINE",
"127 81 LINE",
"112 73 OFFCURVE",
"55 52 OFFCURVE",
"28 34 CURVE",
"34 0 LINE"
);
},
{
closed = 1;
nodes = (
"359 0 LINE",
"360 51 LINE",
"222 71 LINE",
"219 0 LINE"
);
},
{
closed = 1;
nodes = (
"517 148 OFFCURVE",
"599 237 OFFCURVE",
"599 332 CURVE SMOOTH",
"599 424 OFFCURVE",
"521 522 OFFCURVE",
"358 522 CURVE SMOOTH",
"185 522 LINE",
"247 422 LINE",
"382 443 LINE",
"426 415 OFFCURVE",
"447 374 OFFCURVE",
"447 332 CURVE SMOOTH",
"447 275 OFFCURVE",
"410 225 OFFCURVE",
"315 225 CURVE SMOOTH",
"280 225 OFFCURVE",
"256 232 OFFCURVE",
"227 240 CURVE",
"224 147 LINE",
"354 148 LINE SMOOTH"
);
}
);
width = 626;
}
);
leftKerningGroup = I;
leftMetricsKey = I;
rightMetricsKey = P;
unicode = 00DE;
},
{
color = 3;
glyphname = germandbls;
layers = (
{
layerId = "C1B4D31E-EC41-4663-B02D-6CE46EF34CA2";
name = Regular;
paths = (
{
closed = 1;
nodes = (
"215 687 OFFCURVE",
"82 634 OFFCURVE",
"82 478 CURVE SMOOTH",
"82 0 LINE",
"226 0 LINE",
"226 436 LINE",
"218 573 LINE",
"256 598 OFFCURVE",
"313 599 OFFCURVE",
"344 590 CURVE",
"409 508 OFFCURVE",
"332 410 OFFCURVE",
"285 334 CURVE",
"293 226 OFFCURVE",
"456 207 OFFCURVE",
"456 122 CURVE SMOOTH",
"456 105 OFFCURVE",
"449 90 OFFCURVE",
"437 73 CURVE",
"389 83 OFFCURVE",
"341 111 OFFCURVE",
"311 136 CURVE",
"271 13 LINE",
"315 -6 OFFCURVE",
"367 -18 OFFCURVE",
"412 -18 CURVE SMOOTH",
"513 -18 OFFCURVE",
"593 37 OFFCURVE",
"593 131 CURVE SMOOTH",
"593 266 OFFCURVE",
"428 296 OFFCURVE",
"407 367 CURVE",
"476 413 OFFCURVE",
"506 461 OFFCURVE",
"506 513 CURVE SMOOTH",
"506 602 OFFCURVE",
"420 687 OFFCURVE",
"299 687 CURVE SMOOTH"
);
},
{
closed = 1;
nodes = (
"162 369 LINE",
"185 431 LINE",
"133 480 LINE",
"88 467 OFFCURVE",
"45 449 OFFCURVE",
"5 419 CURVE",
"9 367 LINE"
);
},
{
closed = 1;
nodes = (
"115 0 LINE",
"126 78 LINE",
"93 70 OFFCURVE",
"44 53 OFFCURVE",
"11 34 CURVE",
"14 0 LINE"
);
}
);
width = 612;
}
);
leftKerningGroup = f;
leftMetricsKey = f;
unicode = 00DF;
},
{
color = 3;
glyphname = ae;
layers = (
{
anchors = (
{
name = bottom;
position = "{315, 0}";
},
{
name = ogonek;
position = "{422, 31}";
},
{
name = top;
position = "{315, 281}";
}
);
layerId = "C1B4D31E-EC41-4663-B02D-6CE46EF34CA2";
name = Regular;
paths = (
{
closed = 1;
nodes = (
"58 388 OFFCURVE",
"64 339 OFFCURVE",
"78 297 CURVE",
"166 296 LINE",
"184 404 LINE",
"202 411 OFFCURVE",
"234 417 OFFCURVE",
"259 418 CURVE",
"288 403 OFFCURVE",
"306 378 OFFCURVE",
"306 316 CURVE SMOOTH",
"307 197 LINE",
"393 162 LINE",
"428 414 LINE",
"406 451 OFFCURVE",
"363 495 OFFCURVE",
"318 497 CURVE SMOOTH",
"253 497 OFFCURVE",
"138 468 OFFCURVE",
"61 434 CURVE"
);
},
{
closed = 1;
nodes = (
"60 196 OFFCURVE",
"37 151 OFFCURVE",
"37 111 CURVE SMOOTH",
"37 46 OFFCURVE",
"97 -29 OFFCURVE",
"213 -13 CURVE",
"370 71 LINE",
"361 119 LINE",
"333 108 OFFCURVE",
"247 75 OFFCURVE",
"203 74 CURVE",
"189 85 OFFCURVE",
"182 103 OFFCURVE",
"182 118 CURVE SMOOTH",
"182 168 OFFCURVE",
"252 175 OFFCURVE",
"310 171 CURVE",
"334 171 LINE",
"336 231 LINE",
"115 225 LINE"
);
},
{
closed = 1;
nodes = (
"410 241 LINE",
"698 238 LINE",
"756 296 LINE",
"696 323 LINE",
"402 307 LINE"
);
},
{
closed = 1;
nodes = (
"728 121 LINE",
"681 98 OFFCURVE",
"643 85 OFFCURVE",
"598 85 CURVE SMOOTH",
"513 85 OFFCURVE",
"444 133 OFFCURVE",
"444 254 CURVE SMOOTH",
"444 323 OFFCURVE",
"467 389 OFFCURVE",
"520 420 CURVE",
"589 420 OFFCURVE",
"637 349 OFFCURVE",
"627 275 CURVE",
"760 296 LINE",
"761 431 OFFCURVE",
"656 496 OFFCURVE",
"555 496 CURVE SMOOTH",
"495 496 OFFCURVE",
"440 473 OFFCURVE",
"398 434 CURVE",
"361 234 LINE",
"308 231 LINE",
"308 78 OFFCURVE",
"428 -29 OFFCURVE",
"592 -13 CURVE",
"749 68 LINE"
);
}
);
width = 778;
}
);
leftKerningGroup = a;
leftMetricsKey = a;
rightKerningGroup = e;
rightMetricsKey = e;
unicode = 00E6;
},
{
color = 3;
glyphname = eth;
layers = (
{
layerId = "C1B4D31E-EC41-4663-B02D-6CE46EF34CA2";
name = Regular;
paths = (
{
closed = 1;
nodes = (
"192 717 LINE",
"274 608 OFFCURVE",
"310 527 OFFCURVE",
"343 431 CURVE",
"377 420 LINE",
"339 457 OFFCURVE",
"298 479 OFFCURVE",
"241 479 CURVE SMOOTH",
"122 479 OFFCURVE",
"18 383 OFFCURVE",
"18 235 CURVE SMOOTH",
"18 76 OFFCURVE",
"138 -26 OFFCURVE",
"269 -26 CURVE SMOOTH",
"402 -26 OFFCURVE",
"509 79 OFFCURVE",
"509 258 CURVE SMOOTH",
"509 405 OFFCURVE",
"434 612 OFFCURVE",
"295 770 CURVE"
);
},
{
closed = 1;
nodes = (
"210 54 OFFCURVE",
"165 143 OFFCURVE",
"165 229 CURVE SMOOTH",
"165 296 OFFCURVE",
"192 368 OFFCURVE",
"233 398 CURVE",
"297 393 OFFCURVE",
"339 364 OFFCURVE",
"396 307 CURVE",
"341 405 LINE",
"387 286 OFFCURVE",
"375 126 OFFCURVE",
"310 61 CURVE"
);
},
{
closed = 1;
nodes = (
"486 654 LINE",
"442 739 LINE",
"145 599 LINE",
"154 564 LINE",
"213 529 LINE"
);
}
);
width = 524;
}
);
leftKerningGroup = o;
leftMetricsKey = d;
unicode = 00F0;
},
{
color = 3;
glyphname = divide;
layers = (
{
layerId = "C1B4D31E-EC41-4663-B02D-6CE46EF34CA2";
name = Regular;
paths = (
{
closed = 1;
nodes = (
"56 292 LINE",
"56 204 LINE",
"542 204 LINE",
"542 292 LINE"
);
},
{
closed = 1;
nodes = (
"375 82 OFFCURVE",
"356 123 OFFCURVE",
"296 148 CURVE",
"277 137 OFFCURVE",
"229 107 OFFCURVE",
"222 51 CURVE",
"232 33 OFFCURVE",
"255 -7 OFFCURVE",
"310 -21 CURVE",
"358 2 OFFCURVE",
"375 45 OFFCURVE",
"381 63 CURVE"
);
},
{
closed = 1;
nodes = (
"375 449 OFFCURVE",
"356 490 OFFCURVE",
"296 514 CURVE",
"277 503 OFFCURVE",
"229 473 OFFCURVE",
"222 417 CURVE",
"232 400 OFFCURVE",
"255 360 OFFCURVE",
"310 346 CURVE",
"358 369 OFFCURVE",
"375 411 OFFCURVE",
"381 430 CURVE"
);
}
);
width = 598;
}
);
leftMetricsKey = minus;
rightMetricsKey = minus;
unicode = 00F7;
},
{
color = 3;
glyphname = oslash;
layers = (
{
anchors = (
{
name = top;
position = "{255, 468}";
}
);
layerId = "C1B4D31E-EC41-4663-B02D-6CE46EF34CA2";
name = Regular;
paths = (
{
closed = 1;
nodes = (
"109 -82 LINE",
"481 485 LINE",
"406 533 LINE",
"35 -31 LINE"
);
},
{
closed = 1;
nodes = (
"14 78 OFFCURVE",
"130 -20 OFFCURVE",
"260 -20 CURVE SMOOTH",
"386 -20 OFFCURVE",
"496 69 OFFCURVE",
"496 236 CURVE SMOOTH",
"496 403 OFFCURVE",
"384 496 OFFCURVE",
"257 496 CURVE SMOOTH",
"129 496 OFFCURVE",
"14 404 OFFCURVE",
"14 241 CURVE SMOOTH"
);
},
{
closed = 1;
nodes = (
"288 63 OFFCURVE",
"277 62 OFFCURVE",
"267 62 CURVE SMOOTH",
"192 62 OFFCURVE",
"162 145 OFFCURVE",
"162 243 CURVE SMOOTH",
"162 306 OFFCURVE",
"173 364 OFFCURVE",
"198 397 CURVE",
"210 405 OFFCURVE",
"229 411 OFFCURVE",
"249 411 CURVE SMOOTH",
"320 411 OFFCURVE",
"348 325 OFFCURVE",
"348 224 CURVE SMOOTH",
"348 162 OFFCURVE",
"339 94 OFFCURVE",
"301 67 CURVE"
);
}
);
width = 521;
}
);
leftKerningGroup = o;
leftMetricsKey = o;
rightKerningGroup = o;
rightMetricsKey = o;
unicode = 00F8;
},
{
color = 3;
glyphname = thorn;
layers = (
{
layerId = "C1B4D31E-EC41-4663-B02D-6CE46EF34CA2";
name = Regular;
paths = (
{
closed = 1;
nodes = (
"-15 652 LINE",
"102 631 LINE",
"167 681 LINE",
"163 736 LINE",
"99 733 OFFCURVE",
"33 721 OFFCURVE",
"-22 700 CURVE"
);
},
{
closed = 1;
nodes = (
"163 736 LINE",
"66 689 LINE",
"66 18 LINE",
"212 44 LINE",
"212 691 LINE"
);
},
{
closed = 1;
nodes = (
"66 -203 LINE",
"211 -203 LINE",
"211 446 LINE",
"162 490 LINE",
"66 442 LINE"
);
},
{
closed = 1;
nodes = (
"104 -203 LINE",
"115 -125 LINE",
"82 -137 OFFCURVE",
"33 -154 OFFCURVE",
"0 -168 CURVE",
"3 -203 LINE"
);
},
{
closed = 1;
nodes = (
"298 -203 LINE",
"302 -154 LINE",
"269 -138 OFFCURVE",
"226 -124 OFFCURVE",
"187 -112 CURVE",
"170 -203 LINE"
);
},
{
closed = 1;
nodes = (
"166 331 LINE",
"209 360 OFFCURVE",
"250 383 OFFCURVE",
"287 383 CURVE SMOOTH",
"354 383 OFFCURVE",
"394 311 OFFCURVE",
"394 231 CURVE SMOOTH",
"394 168 OFFCURVE",
"369 101 OFFCURVE",
"325 67 CURVE",
"244 55 OFFCURVE",
"182 90 OFFCURVE",
"153 129 CURVE",
"68 22 LINE",
"135 -4 OFFCURVE",
"205 -19 OFFCURVE",
"265 -19 CURVE SMOOTH",
"445 -19 OFFCURVE",
"545 111 OFFCURVE",
"545 258 CURVE SMOOTH",
"545 394 OFFCURVE",
"460 513 OFFCURVE",
"324 488 CURVE",
"157 372 LINE"
);
}
);
width = 564;
}
);
leftKerningGroup = b;
leftMetricsKey = b;
rightKerningGroup = o;
rightMetricsKey = p;
unicode = 00FE;
},
{
color = 3;
glyphname = Dcroat;
layers = (
{
components = (
{
name = D;
}
);
layerId = "C1B4D31E-EC41-4663-B02D-6CE46EF34CA2";
name = Regular;
paths = (
{
closed = 1;
nodes = (
"405 317 LINE",
"399 350 LINE",
"57 350 LINE",
"14 307 LINE",
"20 274 LINE",
"362 274 LINE"
);
}
);
width = 729;
}
);
leftKerningGroup = I;
rightKerningGroup = O;
rightMetricsKey = D;
unicode = 0110;
},
{
color = 3;
glyphname = dcroat;
layers = (
{
components = (
{
name = d;
}
);
layerId = "C1B4D31E-EC41-4663-B02D-6CE46EF34CA2";
name = Regular;
paths = (
{
closed = 1;
nodes = (
"581 570 LINE",
"575 603 LINE",
"262 603 LINE",
"219 570 LINE",
"225 537 LINE",
"538 537 LINE"
);
}
);
width = 586;
}
);
leftKerningGroup = o;
leftMetricsKey = d;
rightKerningGroup = l;
unicode = 0111;
},
{
color = 3;
glyphname = eogonek;
layers = (
{
components = (
{
name = e;
}
);
layerId = "C1B4D31E-EC41-4663-B02D-6CE46EF34CA2";
name = Regular;
paths = (
{
closed = 1;
nodes = (
"407 74 LINE",
"260 29 OFFCURVE",
"180 -49 OFFCURVE",
"180 -122 CURVE SMOOTH",
"180 -183 OFFCURVE",
"234 -239 OFFCURVE",
"319 -231 CURVE",
"442 -169 LINE",
"421 -122 LINE",
"336 -170 OFFCURVE",
"284 -144 OFFCURVE",
"284 -93 CURVE SMOOTH",
"284 -42 OFFCURVE",
"337 2 OFFCURVE",
"411 44 CURVE SMOOTH",
"455 68 LINE"
);
}
);
width = 500;
}
);
leftKerningGroup = o;
leftMetricsKey = e;
rightKerningGroup = e;
unicode = 0119;
},
{
color = 3;
glyphname = Imacron;
layers = (
{
components = (
{
name = I;
transform = "{1, 0, 0, 1, 8, 0}";
}
);
layerId = "C1B4D31E-EC41-4663-B02D-6CE46EF34CA2";
name = Regular;
paths = (
{
closed = 1;
nodes = (
"114 815 OFFCURVE",
"71 810 OFFCURVE",
"32 790 CURVE",
"38 726 LINE",
"326 726 LINE",
"373 768 LINE",
"368 815 LINE",
"145 815 LINE"
);
}
);
width = 401;
}
);
leftKerningGroup = I;
leftMetricsKey = I;
rightKerningGroup = I;
rightMetricsKey = I;
unicode = 012A;
},
{
color = 3;
glyphname = imacron;
layers = (
{
components = (
{
name = dotlessi;
transform = "{1, 0, 0, 1, 16, 0}";
}
);
layerId = "C1B4D31E-EC41-4663-B02D-6CE46EF34CA2";
name = Regular;
paths = (
{
closed = 1;
nodes = (
"96 662 OFFCURVE",
"53 657 OFFCURVE",
"14 637 CURVE",
"20 573 LINE",
"278 573 LINE",
"325 615 LINE",
"320 662 LINE",
"127 662 LINE"
);
}
);
width = 341;
}
);
leftKerningGroup = n;
leftMetricsKey = i;
rightKerningGroup = i;
rightMetricsKey = i;
unicode = 012B;
},
{
color = 3;
glyphname = dotlessi;
layers = (
{
anchors = (
{
name = ogonek;
position = "{298, 10}";
},
{
name = top;
position = "{149, 468}";
}
);
layerId = "C1B4D31E-EC41-4663-B02D-6CE46EF34CA2";
name = Regular;
paths = (
{
closed = 1;
nodes = (
"125 394 LINE",
"191 434 LINE",
"187 490 LINE",
"126 488 OFFCURVE",
"61 475 OFFCURVE",
"9 455 CURVE",
"16 407 LINE"
);
},
{
closed = 1;
nodes = (
"91 0 LINE",
"236 0 LINE",
"236 446 LINE",
"187 490 LINE",
"91 442 LINE"
);
},
{
closed = 1;
nodes = (
"293 0 LINE",
"297 49 LINE",
"264 69 OFFCURVE",
"221 83 OFFCURVE",
"182 91 CURVE",
"165 0 LINE"
);
},
{
closed = 1;
nodes = (
"122 0 LINE",
"133 78 LINE",
"100 70 OFFCURVE",
"51 53 OFFCURVE",
"18 34 CURVE",
"21 0 LINE"
);
}
);
width = 313;
}
);
leftKerningGroup = n;
leftMetricsKey = i;
rightKerningGroup = i;
rightMetricsKey = i;
unicode = 0131;
},
{
color = 3;
glyphname = Lslash;
layers = (
{
components = (
{
name = L;
transform = "{1, 0, 0, 1, 18, 0}";
}
);
layerId = "C1B4D31E-EC41-4663-B02D-6CE46EF34CA2";
name = Regular;
paths = (
{
closed = 1;
nodes = (
"28 271 LINE",
"58 210 LINE",
"405 384 LINE",
"419 436 LINE",
"402 460 LINE"
);
}
);
width = 611;
}
);
leftKerningGroup = I;
leftMetricsKey = L;
rightKerningGroup = L;
rightMetricsKey = L;
unicode = 0141;
},
{
color = 3;
glyphname = lslash;
layers = (
{
components = (
{
name = l;
transform = "{1, 0, 0, 1, 22, 0}";
}
);
layerId = "C1B4D31E-EC41-4663-B02D-6CE46EF34CA2";
name = Regular;
paths = (
{
closed = 1;
nodes = (
"9 323 LINE",
"42 260 LINE",
"353 422 LINE",
"354 474 LINE",
"329 491 LINE"
);
}
);
width = 407;
}
);
leftKerningGroup = l;
leftMetricsKey = l;
rightKerningGroup = l;
unicode = 0142;
},
{
color = 3;
glyphname = OE;
layers = (
{
layerId = "C1B4D31E-EC41-4663-B02D-6CE46EF34CA2";
name = Regular;
paths = (
{
closed = 1;
nodes = (
"497 118 LINE",
"474 86 OFFCURVE",
"423 73 OFFCURVE",
"377 73 CURVE SMOOTH",
"247 73 OFFCURVE",
"190 200 OFFCURVE",
"190 333 CURVE SMOOTH",
"190 431 OFFCURVE",
"221 527 OFFCURVE",
"276 571 CURVE",
"303 580 OFFCURVE",
"333 584 OFFCURVE",
"363 584 CURVE SMOOTH",
"423 584 OFFCURVE",
"489 567 OFFCURVE",
"515 521 CURVE",
"548 634 LINE",
"499 661 OFFCURVE",
"440 674 OFFCURVE",
"381 674 CURVE SMOOTH",
"213 674 OFFCURVE",
"35 563 OFFCURVE",
"35 332 CURVE SMOOTH",
"35 90 OFFCURVE",
"205 -15 OFFCURVE",
"368 -15 CURVE SMOOTH",
"431 -15 OFFCURVE",
"494 -4 OFFCURVE",
"547 32 CURVE"
);
},
{
closed = 1;
nodes = (
"610 0 LINE",
"610 658 LINE",
"458 658 LINE",
"458 0 LINE"
);
},
{
closed = 1;
nodes = (
"888 560 LINE",
"911 658 LINE",
"498 658 LINE",
"573 577 LINE"
);
},
{
closed = 1;
nodes = (
"577 85 LINE",
"499 0 LINE",
"907 0 LINE",
"892 102 LINE"
);
},
{
closed = 1;
nodes = (
"780 24 LINE",
"907 0 LINE",
"915 54 OFFCURVE",
"921 143 OFFCURVE",
"919 199 CURVE",
"835 205 LINE"
);
},
{
closed = 1;
nodes = (
"895 468 LINE",
"908 533 OFFCURVE",
"913 619 OFFCURVE",
"911 658 CURVE",
"783 631 LINE",
"811 468 LINE"
);
},
{
closed = 1;
nodes = (
"581 363 LINE",
"581 291 LINE",
"821 281 LINE",
"821 382 LINE"
);
}
);
width = 954;
}
);
leftKerningGroup = O;
leftMetricsKey = O;
rightKerningGroup = E;
rightMetricsKey = E;
unicode = 0152;
},
{
color = 3;
glyphname = oe;
layers = (
{
anchors = (
{
name = bottom;
position = "{601, 0}";
},
{
name = ogonek;
position = "{796, 35}";
},
{
name = top;
position = "{599, 468}";
}
);
layerId = "C1B4D31E-EC41-4663-B02D-6CE46EF34CA2";
name = Regular;
paths = (
{
closed = 1;
nodes = (
"288 63 OFFCURVE",
"277 62 OFFCURVE",
"267 62 CURVE SMOOTH",
"192 62 OFFCURVE",
"162 145 OFFCURVE",
"162 243 CURVE SMOOTH",
"162 306 OFFCURVE",
"173 364 OFFCURVE",
"198 397 CURVE",
"210 405 OFFCURVE",
"229 411 OFFCURVE",
"249 411 CURVE SMOOTH",
"320 411 OFFCURVE",
"348 326 OFFCURVE",
"348 225 CURVE SMOOTH",
"348 162 OFFCURVE",
"339 94 OFFCURVE",
"301 67 CURVE"
);
},
{
closed = 1;
nodes = (
"446 400 LINE",
"402 463 OFFCURVE",
"332 496 OFFCURVE",
"257 496 CURVE SMOOTH",
"129 496 OFFCURVE",
"14 404 OFFCURVE",
"14 241 CURVE SMOOTH",
"14 78 OFFCURVE",
"130 -20 OFFCURVE",
"260 -20 CURVE SMOOTH",
"334 -20 OFFCURVE",
"402 12 OFFCURVE",
"446 72 CURVE"
);
},
{
closed = 1;
nodes = (
"385 107 LINE",
"433 31 OFFCURVE",
"517 -24 OFFCURVE",
"633 -13 CURVE",
"790 68 LINE",
"768 121 LINE",
"722 98 OFFCURVE",
"683 85 OFFCURVE",
"639 85 CURVE SMOOTH",
"550 85 OFFCURVE",
"484 139 OFFCURVE",
"484 247 CURVE SMOOTH",
"484 314 OFFCURVE",
"509 390 OFFCURVE",
"560 420 CURVE",
"630 420 OFFCURVE",
"678 349 OFFCURVE",
"668 275 CURVE",
"800 296 LINE",
"802 431 OFFCURVE",
"696 496 OFFCURVE",
"595 496 CURVE SMOOTH",
"506 496 OFFCURVE",
"429 445 OFFCURVE",
"385 369 CURVE"
);
},
{
closed = 1;
nodes = (
"454 241 LINE",
"742 238 LINE",
"800 296 LINE",
"740 323 LINE",
"446 307 LINE"
);
}
);
width = 818;
}
);
leftKerningGroup = o;
leftMetricsKey = o;
rightKerningGroup = e;
rightMetricsKey = e;
unicode = 0153;
},
{
color = 3;
glyphname = pi;
layers = (
{
layerId = "C1B4D31E-EC41-4663-B02D-6CE46EF34CA2";
name = Regular;
paths = (
{
closed = 1;
nodes = (
"114 460 OFFCURVE",
"55 411 OFFCURVE",
"30 376 CURVE",
"63 329 LINE",
"153 391 LINE",
"662 366 LINE",
"701 395 LINE",
"697 471 LINE",
"151 471 LINE"
);
},
{
closed = 1;
nodes = (
"611 0 LINE",
"573 442 LINE",
"455 439 LINE",
"459 31 LINE",
"505 -3 LINE"
);
},
{
closed = 1;
nodes = (
"99 -8 OFFCURVE",
"150 -16 OFFCURVE",
"187 -16 CURVE SMOOTH",
"315 -16 OFFCURVE",
"338 88 OFFCURVE",
"343 230 CURVE SMOOTH",
"351 448 LINE",
"209 450 LINE",
"200 195 LINE SMOOTH",
"198 143 OFFCURVE",
"195 78 OFFCURVE",
"184 56 CURVE",
"152 77 OFFCURVE",
"119 100 OFFCURVE",
"89 124 CURVE",
"44 13 LINE"
);
}
);
width = 727;
}
);
unicode = 03C0;
},
{
color = 3;
glyphname = endash;
layers = (
{
layerId = "C1B4D31E-EC41-4663-B02D-6CE46EF34CA2";
name = Regular;
paths = (
{
closed = 1;
nodes = (
"120 312 OFFCURVE",
"76 304 OFFCURVE",
"37 285 CURVE",
"44 218 LINE",
"474 218 LINE",
"522 269 LINE",
"517 312 LINE",
"150 312 LINE"
);
}
);
width = 569;
}
);
leftMetricsKey = hyphen;
rightMetricsKey = hyphen;
unicode = 2013;
},
{
color = 3;
glyphname = emdash;
layers = (
{
layerId = "C1B4D31E-EC41-4663-B02D-6CE46EF34CA2";
name = Regular;
paths = (
{
closed = 1;
nodes = (
"120 312 OFFCURVE",
"76 304 OFFCURVE",
"37 285 CURVE",
"44 218 LINE",
"916 218 LINE",
"963 269 LINE",
"959 312 LINE",
"151 312 LINE"
);
}
);
width = 1010;
}
);
leftMetricsKey = hyphen;
rightMetricsKey = hyphen;
unicode = 2014;
},
{
color = 3;
glyphname = quoteleft;
layers = (
{
layerId = "C1B4D31E-EC41-4663-B02D-6CE46EF34CA2";
name = Regular;
paths = (
{
closed = 1;
nodes = (
"169 756 LINE",
"83 713 OFFCURVE",
"26 640 OFFCURVE",
"26 570 CURVE SMOOTH",
"26 532 OFFCURVE",
"44 485 OFFCURVE",
"110 459 CURVE",
"152 473 OFFCURVE",
"185 515 OFFCURVE",
"192 553 CURVE",
"136 601 LINE",
"142 644 OFFCURVE",
"168 683 OFFCURVE",
"204 712 CURVE"
);
}
);
width = 244;
}
);
unicode = 2018;
},
{
color = 3;
glyphname = quoteright;
layers = (
{
layerId = "C1B4D31E-EC41-4663-B02D-6CE46EF34CA2";
name = Regular;
paths = (
{
closed = 1;
nodes = (
"75 459 LINE",
"161 502 OFFCURVE",
"219 574 OFFCURVE",
"219 644 CURVE SMOOTH",
"219 681 OFFCURVE",
"201 731 OFFCURVE",
"134 756 CURVE",
"93 743 OFFCURVE",
"59 700 OFFCURVE",
"53 663 CURVE",
"108 615 LINE",
"102 572 OFFCURVE",
"77 533 OFFCURVE",
"40 503 CURVE"
);
}
);
width = 245;
}
);
unicode = 2019;
},
{
color = 3;
glyphname = dagger;
layers = (
{
layerId = "C1B4D31E-EC41-4663-B02D-6CE46EF34CA2";
name = Regular;
paths = (
{
closed = 1;
nodes = (
"192 649 LINE",
"218 -180 LINE",
"319 -180 LINE",
"351 685 LINE",
"230 689 LINE"
);
},
{
closed = 1;
nodes = (
"513 436 LINE",
"507 469 LINE",
"85 469 LINE",
"42 417 LINE",
"48 384 LINE",
"470 384 LINE"
);
}
);
width = 555;
}
);
unicode = 2020;
},
{
color = 3;
glyphname = daggerdbl;
layers = (
{
layerId = "C1B4D31E-EC41-4663-B02D-6CE46EF34CA2";
name = Regular;
paths = (
{
closed = 1;
nodes = (
"198 649 LINE",
"224 -180 LINE",
"325 -180 LINE",
"357 685 LINE",
"236 689 LINE"
);
},
{
closed = 1;
nodes = (
"518 436 LINE",
"512 469 LINE",
"90 469 LINE",
"47 417 LINE",
"53 384 LINE",
"475 384 LINE"
);
},
{
closed = 1;
nodes = (
"513 181 LINE",
"507 214 LINE",
"85 214 LINE",
"42 163 LINE",
"48 130 LINE",
"470 130 LINE"
);
}
);
width = 561;
}
);
leftMetricsKey = dagger;
rightMetricsKey = dagger;
unicode = 2021;
},
{
color = 3;
glyphname = bullet;
layers = (
{
layerId = "C1B4D31E-EC41-4663-B02D-6CE46EF34CA2";
name = Regular;
paths = (
{
closed = 1;
nodes = (
"324 328 OFFCURVE",
"269 379 OFFCURVE",
"198 407 CURVE",
"129 371 OFFCURVE",
"81 314 OFFCURVE",
"67 235 CURVE",
"97 172 OFFCURVE",
"150 130 OFFCURVE",
"222 109 CURVE",
"288 142 OFFCURVE",
"330 192 OFFCURVE",
"348 258 CURVE"
);
}
);
width = 415;
}
);
unicode = 2022;
},
{
color = 3;
glyphname = ellipsis;
layers = (
{
layerId = "C1B4D31E-EC41-4663-B02D-6CE46EF34CA2";
name = Regular;
paths = (
{
closed = 1;
nodes = (
"256 113 OFFCURVE",
"221 145 OFFCURVE",
"175 164 CURVE",
"131 141 OFFCURVE",
"101 107 OFFCURVE",
"94 58 CURVE",
"113 19 OFFCURVE",
"145 -7 OFFCURVE",
"190 -19 CURVE",
"228 1 OFFCURVE",
"254 31 OFFCURVE",
"267 73 CURVE"
);
},
{
closed = 1;
nodes = (
"560 113 OFFCURVE",
"525 145 OFFCURVE",
"479 164 CURVE",
"435 141 OFFCURVE",
"405 107 OFFCURVE",
"398 58 CURVE",
"417 19 OFFCURVE",
"449 -7 OFFCURVE",
"494 -19 CURVE",
"532 1 OFFCURVE",
"558 31 OFFCURVE",
"571 73 CURVE"
);
},
{
closed = 1;
nodes = (
"864 113 OFFCURVE",
"829 145 OFFCURVE",
"783 164 CURVE",
"739 141 OFFCURVE",
"709 107 OFFCURVE",
"702 58 CURVE",
"721 19 OFFCURVE",
"753 -7 OFFCURVE",
"798 -19 CURVE",
"836 1 OFFCURVE",
"862 31 OFFCURVE",
"875 73 CURVE"
);
}
);
width = 935;
}
);
leftMetricsKey = period;
rightMetricsKey = period;
unicode = 2026;
},
{
color = 3;
glyphname = perthousand;
layers = (
{
layerId = "C1B4D31E-EC41-4663-B02D-6CE46EF34CA2";
name = Regular;
paths = (
{
closed = 1;
nodes = (
"228 -38 LINE",
"637 538 LINE",
"573 585 LINE",
"165 11 LINE"
);
},
{
closed = 1;
nodes = (
"228 351 OFFCURVE",
"222 350 OFFCURVE",
"215 350 CURVE SMOOTH",
"163 350 OFFCURVE",
"139 402 OFFCURVE",
"139 447 CURVE SMOOTH",
"139 472 OFFCURVE",
"147 496 OFFCURVE",
"162 513 CURVE",
"172 517 OFFCURVE",
"181 519 OFFCURVE",
"189 519 CURVE SMOOTH",
"234 519 OFFCURVE",
"263 473 OFFCURVE",
"263 423 CURVE SMOOTH",
"263 399 OFFCURVE",
"256 372 OFFCURVE",
"235 352 CURVE"
);
},
{
closed = 1;
nodes = (
"48 343 OFFCURVE",
"121 271 OFFCURVE",
"205 271 CURVE SMOOTH",
"292 271 OFFCURVE",
"355 342 OFFCURVE",
"355 435 CURVE SMOOTH",
"355 521 OFFCURVE",
"287 600 OFFCURVE",
"200 600 CURVE SMOOTH",
"115 600 OFFCURVE",
"48 521 OFFCURVE",
"48 435 CURVE SMOOTH"
);
},
{
closed = 1;
nodes = (
"653 55 OFFCURVE",
"647 54 OFFCURVE",
"641 54 CURVE SMOOTH",
"591 54 OFFCURVE",
"564 102 OFFCURVE",
"564 150 CURVE SMOOTH",
"564 173 OFFCURVE",
"571 198 OFFCURVE",
"587 218 CURVE",
"597 221 OFFCURVE",
"606 223 OFFCURVE",
"614 223 CURVE SMOOTH",
"660 223 OFFCURVE",
"688 175 OFFCURVE",
"688 128 CURVE SMOOTH",
"688 102 OFFCURVE",
"681 76 OFFCURVE",
"660 57 CURVE"
);
},
{
closed = 1;
nodes = (
"473 48 OFFCURVE",
"546 -24 OFFCURVE",
"630 -24 CURVE SMOOTH",
"717 -24 OFFCURVE",
"780 47 OFFCURVE",
"780 140 CURVE SMOOTH",
"780 225 OFFCURVE",
"712 305 OFFCURVE",
"625 305 CURVE SMOOTH",
"540 305 OFFCURVE",
"473 225 OFFCURVE",
"473 140 CURVE SMOOTH"
);
},
{
closed = 1;
nodes = (
"1014 55 OFFCURVE",
"1008 54 OFFCURVE",
"1002 54 CURVE SMOOTH",
"952 54 OFFCURVE",
"925 102 OFFCURVE",
"925 150 CURVE SMOOTH",
"925 172 OFFCURVE",
"932 198 OFFCURVE",
"948 218 CURVE",
"958 221 OFFCURVE",
"967 223 OFFCURVE",
"975 223 CURVE SMOOTH",
"1021 223 OFFCURVE",
"1049 175 OFFCURVE",
"1049 128 CURVE SMOOTH",
"1049 103 OFFCURVE",
"1042 76 OFFCURVE",
"1021 57 CURVE"
);
},
{
closed = 1;
nodes = (
"834 48 OFFCURVE",
"907 -24 OFFCURVE",
"991 -24 CURVE SMOOTH",
"1078 -24 OFFCURVE",
"1141 47 OFFCURVE",
"1141 140 CURVE SMOOTH",
"1141 225 OFFCURVE",
"1073 305 OFFCURVE",
"986 305 CURVE SMOOTH",
"901 305 OFFCURVE",
"834 225 OFFCURVE",
"834 140 CURVE SMOOTH"
);
}
);
width = 1189;
}
);
leftMetricsKey = percent;
rightMetricsKey = percent;
unicode = 2030;
},
{
color = 3;
glyphname = guilsinglleft;
layers = (
{
layerId = "C1B4D31E-EC41-4663-B02D-6CE46EF34CA2";
name = Regular;
paths = (
{
closed = 1;
nodes = (
"56 220 LINE",
"214 38 LINE",
"291 90 LINE",
"190 253 LINE",
"285 424 LINE",
"211 472 LINE",
"56 286 LINE"
);
}
);
width = 347;
}
);
unicode = 2039;
},
{
color = 3;
glyphname = guilsinglright;
layers = (
{
layerId = "C1B4D31E-EC41-4663-B02D-6CE46EF34CA2";
name = Regular;
paths = (
{
closed = 1;
nodes = (
"136 472 LINE",
"62 424 LINE",
"157 253 LINE",
"56 90 LINE",
"133 38 LINE",
"291 220 LINE",
"291 286 LINE"
);
}
);
width = 347;
}
);
leftMetricsKey = "=|";
rightMetricsKey = "=|guilsinglleft";
unicode = 203A;
},
{
color = 3;
glyphname = fraction;
layers = (
{
layerId = "C1B4D31E-EC41-4663-B02D-6CE46EF34CA2";
name = Regular;
paths = (
{
closed = 1;
nodes = (
"-158 15 LINE",
"424 624 LINE",
"366 681 LINE",
"-217 71 LINE"
);
}
);
width = 163;
}
);
unicode = 2044;
},
{
color = 3;
glyphname = euro;
layers = (
{
anchors = (
{
name = bottom;
position = "{412, 0}";
},
{
name = top;
position = "{412, 650}";
}
);
layerId = "C1B4D31E-EC41-4663-B02D-6CE46EF34CA2";
name = Regular;
paths = (
{
closed = 1;
nodes = (
"588 123 LINE",
"443 83 LINE",
"291 93 OFFCURVE",
"236 190 OFFCURVE",
"236 321 CURVE SMOOTH",
"236 434 OFFCURVE",
"277 532 OFFCURVE",
"348 583 CURVE",
"425 590 OFFCURVE",
"501 561 OFFCURVE",
"574 500 CURVE",
"614 608 LINE",
"564 648 OFFCURVE",
"495 670 OFFCURVE",
"416 670 CURVE SMOOTH",
"190 670 OFFCURVE",
"85 484 OFFCURVE",
"85 311 CURVE SMOOTH",
"85 147 OFFCURVE",
"178 -22 OFFCURVE",
"428 -21 CURVE",
"612 54 LINE"
);
},
{
closed = 1;
nodes = (
"585 455 LINE",
"597 493 OFFCURVE",
"608 549 OFFCURVE",
"614 608 CURVE",
"493 594 LINE",
"512 455 LINE"
);
},
{
closed = 1;
nodes = (
"558 385 LINE",
"552 408 LINE",
"35 408 LINE",
"-3 366 LINE",
"3 343 LINE",
"521 343 LINE"
);
},
{
closed = 1;
nodes = (
"517 246 LINE",
"511 269 LINE",
"9 269 LINE",
"-28 227 LINE",
"-22 204 LINE",
"480 204 LINE"
);
}
);
width = 633;
}
);
rightMetricsKey = C;
unicode = 20AC;
},
{
color = 3;
glyphname = ruble;
layers = (
{
layerId = "C1B4D31E-EC41-4663-B02D-6CE46EF34CA2";
name = Regular;
paths = (
{
closed = 1;
nodes = (
"41 658 LINE",
"252 578 LINE",
"405 590 LINE",
"446 567 OFFCURVE",
"466 501 OFFCURVE",
"466 447 CURVE SMOOTH",
"466 379 OFFCURVE",
"430 314 OFFCURVE",
"343 314 CURVE SMOOTH",
"238 314 LINE",
"235 237 LINE",
"373 237 LINE SMOOTH",
"528 237 OFFCURVE",
"623 335 OFFCURVE",
"623 449 CURVE SMOOTH",
"623 559 OFFCURVE",
"535 667 OFFCURVE",
"364 666 CURVE SMOOTH"
);
},
{
closed = 1;
nodes = (
"97 65 OFFCURVE",
"62 50 OFFCURVE",
"33 32 CURVE",
"39 0 LINE",
"133 0 LINE",
"132 79 LINE"
);
},
{
closed = 1;
nodes = (
"245 0 LINE",
"385 0 LINE",
"386 51 LINE",
"248 71 LINE"
);
},
{
closed = 1;
nodes = (
"114 658 LINE",
"114 0 LINE",
"266 0 LINE",
"266 658 LINE"
);
},
{
closed = 1;
nodes = (
"41 658 LINE",
"40 607 LINE",
"153 593 LINE",
"153 658 LINE"
);
},
{
closed = 1;
nodes = (
"395 157 LINE",
"390 192 LINE",
"71 192 LINE",
"28 158 LINE",
"34 125 LINE",
"353 125 LINE"
);
},
{
closed = 1;
nodes = (
"396 273 LINE",
"390 313 LINE",
"71 313 LINE",
"28 274 LINE",
"34 241 LINE",
"353 241 LINE"
);
}
);
width = 651;
}
);
leftKerningGroup = I;
leftMetricsKey = P;
rightMetricsKey = P;
unicode = 20BD;
},
{
color = 3;
glyphname = trademark;
layers = (
{
anchors = (
{
name = bottom;
position = "{254, 180}";
},
{
name = center;
position = "{182, 323}";
},
{
name = top;
position = "{254, 466}";
}
);
layerId = "C1B4D31E-EC41-4663-B02D-6CE46EF34CA2";
name = Regular;
paths = (
{
closed = 1;
nodes = (
"123 731 LINE",
"123 449 LINE",
"220 449 LINE",
"220 731 LINE"
);
},
{
closed = 1;
nodes = (
"111 481 OFFCURVE",
"90 473 OFFCURVE",
"77 463 CURVE",
"80 449 LINE",
"129 449 LINE",
"129 490 LINE"
);
},
{
closed = 1;
nodes = (
"201 449 LINE",
"266 449 LINE",
"267 473 LINE",
"203 484 LINE"
);
},
{
closed = 1;
nodes = (
"192 735 OFFCURVE",
"153 735 OFFCURVE",
"6 738 CURVE",
"26 686 LINE",
"171 696 LINE",
"317 686 LINE",
"337 738 LINE"
);
},
{
closed = 1;
nodes = (
"326 617 LINE",
"333 639 OFFCURVE",
"338 717 OFFCURVE",
"336 738 CURVE",
"254 729 LINE",
"273 617 LINE SMOOTH"
);
},
{
closed = 1;
nodes = (
"87 729 LINE",
"6 738 LINE",
"3 717 OFFCURVE",
"9 639 OFFCURVE",
"16 617 CURVE",
"69 617 LINE"
);
},
{
closed = 1;
nodes = (
"367 735 LINE",
"366 711 LINE",
"430 700 LINE",
"432 735 LINE"
);
},
{
closed = 1;
nodes = (
"402 735 LINE",
"392 449 LINE",
"456 449 LINE",
"460 594 LINE",
"452 685 LINE",
"514 735 LINE"
);
},
{
closed = 1;
nodes = (
"381 482 OFFCURVE",
"365 473 OFFCURVE",
"352 463 CURVE",
"355 449 LINE",
"399 449 LINE",
"398 490 LINE"
);
},
{
closed = 1;
nodes = (
"432 449 LINE",
"497 449 LINE",
"497 473 LINE SMOOTH",
"434 484 LINE"
);
},
{
closed = 1;
nodes = (
"430 715 LINE",
"535 446 LINE",
"601 456 LINE",
"601 511 LINE",
"513 735 LINE"
);
},
{
closed = 1;
nodes = (
"561 465 LINE",
"602 456 LINE",
"705 719 LINE",
"666 735 LINE"
);
},
{
closed = 1;
nodes = (
"666 735 LINE",
"682 685 LINE",
"675 592 LINE",
"680 449 LINE",
"768 449 LINE",
"758 735 LINE"
);
},
{
closed = 1;
nodes = (
"749 735 LINE",
"749 694 LINE",
"767 703 OFFCURVE",
"783 711 OFFCURVE",
"796 721 CURVE",
"793 735 LINE"
);
},
{
closed = 1;
nodes = (
"668 482 OFFCURVE",
"652 473 OFFCURVE",
"639 463 CURVE",
"642 449 LINE",
"686 449 LINE",
"685 490 LINE"
);
},
{
closed = 1;
nodes = (
"742 449 LINE",
"807 449 LINE",
"807 473 LINE",
"743 484 LINE"
);
}
);
width = 833;
}
);
leftMetricsKey = T;
rightMetricsKey = M;
unicode = 2122;
},
{
color = 3;
glyphname = Ohm;
layers = (
{
layerId = "C1B4D31E-EC41-4663-B02D-6CE46EF34CA2";
name = Regular;
paths = (
{
closed = 1;
nodes = (
"441 14 LINE",
"591 78 OFFCURVE",
"691 213 OFFCURVE",
"691 362 CURVE SMOOTH",
"691 534 OFFCURVE",
"552 670 OFFCURVE",
"367 670 CURVE SMOOTH",
"176 670 OFFCURVE",
"35 524 OFFCURVE",
"35 353 CURVE SMOOTH",
"35 200 OFFCURVE",
"142 83 OFFCURVE",
"306 18 CURVE",
"343 79 LINE",
"238 151 OFFCURVE",
"192 271 OFFCURVE",
"192 374 CURVE SMOOTH",
"192 495 OFFCURVE",
"254 592 OFFCURVE",
"367 592 CURVE SMOOTH",
"486 592 OFFCURVE",
"549 493 OFFCURVE",
"549 370 CURVE SMOOTH",
"549 271 OFFCURVE",
"506 154 OFFCURVE",
"408 75 CURVE"
);
},
{
closed = 1;
nodes = (
"239 74 OFFCURVE",
"124 58 OFFCURVE",
"63 32 CURVE",
"69 0 LINE",
"343 0 LINE",
"343 79 LINE"
);
},
{
closed = 1;
nodes = (
"408 0 LINE",
"669 0 LINE",
"670 51 LINE",
"408 75 LINE"
);
}
);
width = 724;
}
);
leftMetricsKey = O;
rightMetricsKey = O;
unicode = 2126;
},
{
color = 3;
glyphname = partialdiff;
layers = (
{
layerId = "C1B4D31E-EC41-4663-B02D-6CE46EF34CA2";
name = Regular;
paths = (
{
closed = 1;
nodes = (
"446 414 LINE",
"302 473 LINE",
"176 473 OFFCURVE",
"68 354 OFFCURVE",
"68 207 CURVE SMOOTH",
"68 72 OFFCURVE",
"156 -34 OFFCURVE",
"298 -34 CURVE SMOOTH",
"454 -34 OFFCURVE",
"553 102 OFFCURVE",
"553 292 CURVE SMOOTH",
"553 492 OFFCURVE",
"445 688 OFFCURVE",
"205 761 CURVE",
"176 692 LINE",
"330 641 OFFCURVE",
"417 475 OFFCURVE",
"417 308 CURVE SMOOTH",
"417 195 OFFCURVE",
"378 88 OFFCURVE",
"302 50 CURVE",
"236 56 OFFCURVE",
"203 119 OFFCURVE",
"205 190 CURVE SMOOTH",
"207 295 OFFCURVE",
"286 406 OFFCURVE",
"445 371 CURVE"
);
}
);
width = 600;
}
);
unicode = 2202;
},
{
color = 3;
glyphname = increment;
layers = (
{
layerId = "C1B4D31E-EC41-4663-B02D-6CE46EF34CA2";
name = Regular;
paths = (
{
closed = 1;
nodes = (
"40 33 LINE",
"46 0 LINE",
"631 0 LINE",
"672 29 LINE",
"667 65 LINE",
"101 65 LINE"
);
},
{
closed = 1;
nodes = (
"40 33 LINE",
"135 16 LINE",
"360 613 LINE",
"279 638 LINE"
);
},
{
closed = 1;
nodes = (
"279 638 LINE",
"533 0 LINE",
"667 65 LINE",
"410 674 LINE"
);
}
);
width = 708;
}
);
unicode = 2206;
},
{
color = 3;
glyphname = product;
layers = (
{
layerId = "C1B4D31E-EC41-4663-B02D-6CE46EF34CA2";
name = Regular;
paths = (
{
closed = 1;
nodes = (
"98 735 OFFCURVE",
"63 724 OFFCURVE",
"28 704 CURVE",
"38 649 LINE",
"745 649 LINE",
"787 688 LINE",
"783 735 LINE",
"129 735 LINE"
);
},
{
closed = 1;
nodes = (
"147 680 LINE",
"147 -100 LINE",
"299 -100 LINE",
"299 680 LINE"
);
},
{
closed = 1;
nodes = (
"514 680 LINE",
"514 -100 LINE",
"666 -100 LINE",
"666 680 LINE"
);
},
{
closed = 1;
nodes = (
"126 -35 OFFCURVE",
"91 -50 OFFCURVE",
"62 -68 CURVE",
"68 -100 LINE",
"162 -100 LINE",
"161 -21 LINE"
);
},
{
closed = 1;
nodes = (
"251 -100 LINE",
"391 -100 LINE",
"392 -49 LINE",
"254 -29 LINE"
);
},
{
closed = 1;
nodes = (
"493 -35 OFFCURVE",
"458 -50 OFFCURVE",
"429 -68 CURVE",
"435 -100 LINE",
"529 -100 LINE",
"528 -21 LINE"
);
},
{
closed = 1;
nodes = (
"617 -100 LINE",
"757 -100 LINE",
"758 -49 LINE",
"620 -29 LINE"
);
}
);
width = 815;
}
);
leftMetricsKey = H;
rightMetricsKey = H;
unicode = 220F;
},
{
color = 3;
glyphname = summation;
layers = (
{
layerId = "C1B4D31E-EC41-4663-B02D-6CE46EF34CA2";
name = Regular;
paths = (
{
closed = 1;
nodes = (
"579 735 LINE",
"31 735 LINE",
"30 671 LINE",
"235 642 LINE",
"562 629 LINE"
);
},
{
closed = 1;
nodes = (
"562 531 LINE",
"575 587 OFFCURVE",
"582 696 OFFCURVE",
"578 735 CURVE",
"425 708 LINE",
"474 532 LINE"
);
},
{
closed = 1;
nodes = (
"30 671 LINE",
"232 251 LINE",
"353 306 LINE",
"158 721 LINE"
);
},
{
closed = 1;
nodes = (
"38 -40 LINE",
"114 -82 LINE",
"353 306 LINE",
"280 352 LINE"
);
},
{
closed = 1;
nodes = (
"223 -11 LINE",
"38 -40 LINE",
"39 -100 LINE",
"603 -100 LINE",
"586 2 LINE"
);
},
{
closed = 1;
nodes = (
"449 -73 LINE",
"602 -100 LINE",
"606 -61 OFFCURVE",
"599 48 OFFCURVE",
"586 104 CURVE",
"498 103 LINE"
);
}
);
width = 649;
}
);
unicode = 2211;
},
{
color = 3;
glyphname = minus;
layers = (
{
layerId = "C1B4D31E-EC41-4663-B02D-6CE46EF34CA2";
name = Regular;
paths = (
{
closed = 1;
nodes = (
"56 292 LINE",
"56 205 LINE",
"542 205 LINE",
"542 292 LINE"
);
}
);
width = 598;
}
);
unicode = 2212;
},
{
color = 3;
glyphname = bulletoperator;
layers = (
{
layerId = "C1B4D31E-EC41-4663-B02D-6CE46EF34CA2";
name = Regular;
paths = (
{
closed = 1;
nodes = (
"155 192 OFFCURVE",
"186 232 OFFCURVE",
"199 266 CURVE",
"181 291 OFFCURVE",
"141 327 OFFCURVE",
"107 340 CURVE",
"78 323 OFFCURVE",
"49 283 OFFCURVE",
"30 246 CURVE",
"50 218 OFFCURVE",
"96 184 OFFCURVE",
"126 172 CURVE"
);
}
);
width = 254;
}
);
unicode = 2219;
},
{
color = 3;
glyphname = radical;
layers = (
{
layerId = "C1B4D31E-EC41-4663-B02D-6CE46EF34CA2";
name = Regular;
paths = (
{
closed = 1;
nodes = (
"264 471 LINE",
"411 -45 LINE",
"338 -44 LINE",
"561 751 LINE",
"667 713 LINE",
"445 -72 LINE",
"409 -86 OFFCURVE",
"352 -91 OFFCURVE",
"312 -89 CURVE",
"157 410 LINE",
"231 369 LINE",
"85 274 LINE",
"30 347 LINE",
"172 471 LINE"
);
}
);
width = 745;
}
);
unicode = 221A;
},
{
color = 3;
glyphname = infinity;
layers = (
{
layerId = "C1B4D31E-EC41-4663-B02D-6CE46EF34CA2";
name = Regular;
paths = (
{
closed = 1;
nodes = (
"122 523 OFFCURVE",
"30 447 OFFCURVE",
"30 331 CURVE SMOOTH",
"30 212 OFFCURVE",
"125 152 OFFCURVE",
"204 152 CURVE SMOOTH",
"281 152 OFFCURVE",
"348 211 OFFCURVE",
"395 305 CURVE",
"354 346 LINE",
"324 295 OFFCURVE",
"285 266 OFFCURVE",
"235 266 CURVE SMOOTH",
"177 266 OFFCURVE",
"138 306 OFFCURVE",
"138 360 CURVE SMOOTH",
"138 380 OFFCURVE",
"146 398 OFFCURVE",
"158 413 CURVE",
"224 447 OFFCURVE",
"288 383 OFFCURVE",
"351 291 CURVE",
"402 223 OFFCURVE",
"458 150 OFFCURVE",
"554 150 CURVE SMOOTH",
"642 150 OFFCURVE",
"734 212 OFFCURVE",
"734 335 CURVE SMOOTH",
"734 447 OFFCURVE",
"656 521 OFFCURVE",
"571 521 CURVE SMOOTH",
"494 521 OFFCURVE",
"425 456 OFFCURVE",
"376 373 CURVE",
"414 330 LINE",
"451 381 OFFCURVE",
"503 415 OFFCURVE",
"547 415 CURVE SMOOTH",
"598 415 OFFCURVE",
"627 367 OFFCURVE",
"627 324 CURVE SMOOTH",
"627 302 OFFCURVE",
"619 278 OFFCURVE",
"604 261 CURVE",
"536 235 OFFCURVE",
"492 295 OFFCURVE",
"420 386 CURVE SMOOTH",
"368 450 OFFCURVE",
"306 523 OFFCURVE",
"214 523 CURVE SMOOTH"
);
}
);
width = 756;
}
);
unicode = 221E;
},
{
color = 3;
glyphname = integral;
layers = (
{
layerId = "C1B4D31E-EC41-4663-B02D-6CE46EF34CA2";
name = Regular;
paths = (
{
closed = 1;
nodes = (
"335 -72 OFFCURVE",
"219 -177 OFFCURVE",
"110 -178 CURVE SMOOTH",
"65 -179 OFFCURVE",
"17 -162 OFFCURVE",
"-39 -129 CURVE",
"36 -1 LINE",
"61 -26 OFFCURVE",
"124 -82 OFFCURVE",
"195 -79 CURVE",
"45 508 LINE",
"45 646 OFFCURVE",
"159 749 OFFCURVE",
"268 751 CURVE SMOOTH",
"317 752 OFFCURVE",
"362 737 OFFCURVE",
"417 702 CURVE",
"342 574 LINE",
"317 599 OFFCURVE",
"256 654 OFFCURVE",
"185 652 CURVE",
"335 65 LINE"
);
}
);
width = 379;
}
);
unicode = 222B;
},
{
color = 3;
glyphname = notequal;
layers = (
{
components = (
{
name = equal;
}
);
layerId = "C1B4D31E-EC41-4663-B02D-6CE46EF34CA2";
name = Regular;
paths = (
{
closed = 1;
nodes = (
"169 -17 LINE",
"478 482 LINE",
"428 510 LINE",
"119 12 LINE"
);
}
);
width = 584;
}
);
leftMetricsKey = minus;
rightMetricsKey = minus;
unicode = 2260;
},
{
color = 3;
glyphname = lessequal;
layers = (
{
layerId = "C1B4D31E-EC41-4663-B02D-6CE46EF34CA2";
name = Regular;
paths = (
{
closed = 1;
nodes = (
"78 396 LINE",
"86 326 LINE",
"475 138 LINE",
"515 210 LINE",
"198 361 LINE",
"197 367 LINE",
"517 536 LINE",
"475 604 LINE"
);
},
{
closed = 1;
nodes = (
"56 81 LINE",
"56 0 LINE",
"542 0 LINE",
"542 81 LINE"
);
}
);
width = 598;
}
);
leftMetricsKey = minus;
rightMetricsKey = minus;
unicode = 2264;
},
{
color = 3;
glyphname = greaterequal;
layers = (
{
layerId = "C1B4D31E-EC41-4663-B02D-6CE46EF34CA2";
name = Regular;
paths = (
{
closed = 1;
nodes = (
"81 536 LINE",
"401 367 LINE",
"400 361 LINE",
"83 210 LINE",
"123 138 LINE",
"512 326 LINE",
"520 396 LINE",
"123 604 LINE"
);
},
{
closed = 1;
nodes = (
"56 0 LINE",
"542 0 LINE",
"542 81 LINE",
"56 81 LINE"
);
}
);
width = 598;
}
);
leftMetricsKey = minus;
rightMetricsKey = minus;
unicode = 2265;
},
{
color = 3;
glyphname = lozenge;
layers = (
{
layerId = "C1B4D31E-EC41-4663-B02D-6CE46EF34CA2";
name = Regular;
paths = (
{
closed = 1;
nodes = (
"128 413 LINE",
"42 368 LINE",
"246 -8 LINE",
"332 0 LINE",
"516 367 LINE",
"426 410 LINE",
"290 123 LINE",
"284 122 LINE"
);
},
{
closed = 1;
nodes = (
"430 322 LINE",
"516 367 LINE",
"312 743 LINE",
"226 735 LINE",
"42 368 LINE",
"132 325 LINE",
"268 612 LINE",
"274 613 LINE"
);
}
);
width = 558;
}
);
unicode = 25CA;
},
{
color = 3;
glyphname = f_b.liga;
layers = (
{
components = (
{
name = b;
transform = "{1, 0, 0, 1, 373, 0}";
}
);
layerId = "C1B4D31E-EC41-4663-B02D-6CE46EF34CA2";
name = Regular;
paths = (
{
closed = 1;
nodes = (
"528 736 LINE",
"286 736 LINE SMOOTH",
"179 736 OFFCURVE",
"82 662 OFFCURVE",
"82 535 CURVE SMOOTH",
"82 0 LINE",
"228 0 LINE",
"228 436 LINE",
"231 463 LINE",
"192 635 LINE",
"492 615 LINE"
);
},
{
closed = 1;
nodes = (
"166 373 LINE",
"189 435 LINE",
"137 484 LINE",
"96 467 OFFCURVE",
"53 449 OFFCURVE",
"9 423 CURVE",
"13 371 LINE SMOOTH"
);
},
{
closed = 1;
nodes = (
"177 370 LINE",
"287 370 LINE",
"337 429 LINE",
"335 471 LINE",
"177 471 LINE"
);
},
{
closed = 1;
nodes = (
"119 0 LINE",
"130 78 LINE",
"97 70 OFFCURVE",
"48 53 OFFCURVE",
"15 34 CURVE",
"18 0 LINE"
);
},
{
closed = 1;
nodes = (
"311 0 LINE",
"315 49 LINE",
"282 69 OFFCURVE",
"239 83 OFFCURVE",
"200 91 CURVE",
"183 0 LINE"
);
}
);
width = 943;
}
);
leftKerningGroup = f;
leftMetricsKey = f;
rightKerningGroup = o;
rightMetricsKey = b;
},
{
color = 3;
glyphname = f_h.liga;
layers = (
{
components = (
{
name = h;
transform = "{1, 0, 0, 1, 365, 0}";
}
);
layerId = "C1B4D31E-EC41-4663-B02D-6CE46EF34CA2";
name = Regular;
paths = (
{
closed = 1;
nodes = (
"166 373 LINE",
"189 435 LINE",
"137 484 LINE",
"96 467 OFFCURVE",
"53 449 OFFCURVE",
"9 423 CURVE",
"13 371 LINE"
);
},
{
closed = 1;
nodes = (
"119 0 LINE",
"130 78 LINE",
"97 70 OFFCURVE",
"48 53 OFFCURVE",
"15 34 CURVE",
"18 0 LINE"
);
},
{
closed = 1;
nodes = (
"311 0 LINE",
"315 49 LINE",
"282 69 OFFCURVE",
"239 83 OFFCURVE",
"200 91 CURVE",
"183 0 LINE"
);
},
{
closed = 1;
nodes = (
"177 370 LINE",
"287 370 LINE",
"337 429 LINE",
"335 471 LINE",
"177 471 LINE"
);
},
{
closed = 1;
nodes = (
"551 736 LINE",
"286 736 LINE SMOOTH",
"179 736 OFFCURVE",
"82 662 OFFCURVE",
"82 535 CURVE SMOOTH",
"82 0 LINE",
"228 0 LINE",
"228 436 LINE",
"231 463 LINE",
"192 635 LINE",
"501 615 LINE"
);
}
);
width = 987;
}
);
leftKerningGroup = f;
leftMetricsKey = f;
rightKerningGroup = n;
rightMetricsKey = h;
},
{
color = 3;
glyphname = f_k.liga;
layers = (
{
components = (
{
name = k;
transform = "{1, 0, 0, 1, 363, 0}";
}
);
layerId = "C1B4D31E-EC41-4663-B02D-6CE46EF34CA2";
name = Regular;
paths = (
{
closed = 1;
nodes = (
"166 373 LINE",
"189 435 LINE",
"137 484 LINE",
"96 467 OFFCURVE",
"53 449 OFFCURVE",
"9 423 CURVE",
"13 371 LINE"
);
},
{
closed = 1;
nodes = (
"177 471 LINE",
"177 370 LINE",
"287 370 LINE",
"337 429 LINE",
"335 471 LINE"
);
},
{
closed = 1;
nodes = (
"119 0 LINE",
"130 78 LINE",
"97 70 OFFCURVE",
"48 53 OFFCURVE",
"15 34 CURVE",
"18 0 LINE"
);
},
{
closed = 1;
nodes = (
"311 0 LINE",
"315 49 LINE",
"282 69 OFFCURVE",
"239 83 OFFCURVE",
"200 91 CURVE",
"183 0 LINE"
);
},
{
closed = 1;
nodes = (
"550 736 LINE",
"286 736 LINE SMOOTH",
"179 736 OFFCURVE",
"82 662 OFFCURVE",
"82 535 CURVE SMOOTH",
"82 0 LINE",
"228 0 LINE",
"228 436 LINE",
"231 463 LINE",
"192 635 LINE",
"501 615 LINE"
);
}
);
width = 973;
}
);
leftKerningGroup = f;
leftMetricsKey = f;
rightKerningGroup = k;
rightMetricsKey = k;
},
{
color = 3;
glyphname = f_l.liga;
layers = (
{
components = (
{
name = l;
transform = "{1, 0, 0, 1, 365, 0}";
}
);
layerId = "C1B4D31E-EC41-4663-B02D-6CE46EF34CA2";
name = Regular;
paths = (
{
closed = 1;
nodes = (
"166 373 LINE",
"189 435 LINE",
"137 484 LINE",
"96 467 OFFCURVE",
"53 449 OFFCURVE",
"9 423 CURVE",
"13 371 LINE"
);
},
{
closed = 1;
nodes = (
"177 471 LINE",
"177 370 LINE",
"287 370 LINE",
"337 429 LINE",
"335 471 LINE"
);
},
{
closed = 1;
nodes = (
"119 0 LINE",
"130 78 LINE",
"97 70 OFFCURVE",
"48 53 OFFCURVE",
"15 34 CURVE",
"18 0 LINE"
);
},
{
closed = 1;
nodes = (
"311 0 LINE",
"315 49 LINE",
"282 69 OFFCURVE",
"239 83 OFFCURVE",
"200 91 CURVE",
"183 0 LINE"
);
},
{
closed = 1;
nodes = (
"551 736 LINE",
"286 736 LINE SMOOTH",
"179 736 OFFCURVE",
"82 662 OFFCURVE",
"82 535 CURVE SMOOTH",
"82 0 LINE",
"228 0 LINE",
"228 436 LINE",
"231 463 LINE",
"192 635 LINE",
"501 615 LINE"
);
}
);
width = 699;
}
);
leftKerningGroup = f;
leftMetricsKey = f;
rightKerningGroup = l;
rightMetricsKey = l;
},
{
color = 3;
glyphname = acutecomb;
layers = (
{
anchors = (
{
name = _top;
position = "{0, 471}";
}
);
layerId = "C1B4D31E-EC41-4663-B02D-6CE46EF34CA2";
name = Regular;
paths = (
{
closed = 1;
nodes = (
"37 586 OFFCURVE",
"92 639 OFFCURVE",
"152 688 CURVE",
"56 771 LINE",
"-94 593 LINE",
"-19 533 LINE"
);
}
);
width = 0;
}
);
unicode = 0301;
},
{
color = 3;
glyphname = brevecomb;
layers = (
{
anchors = (
{
name = _top;
position = "{-1, 471}";
}
);
layerId = "C1B4D31E-EC41-4663-B02D-6CE46EF34CA2";
name = Regular;
paths = (
{
closed = 1;
nodes = (
"63 717 LINE",
"63 665 OFFCURVE",
"36 635 OFFCURVE",
"-2 635 CURVE SMOOTH",
"-35 635 OFFCURVE",
"-66 658 OFFCURVE",
"-73 718 CURVE",
"-160 711 LINE",
"-152 600 OFFCURVE",
"-73 550 OFFCURVE",
"5 550 CURVE SMOOTH",
"87 550 OFFCURVE",
"159 605 OFFCURVE",
"162 712 CURVE"
);
}
);
width = 0;
}
);
unicode = 0306;
},
{
color = 3;
glyphname = caroncomb;
layers = (
{
anchors = (
{
name = _top;
position = "{0, 471}";
}
);
layerId = "C1B4D31E-EC41-4663-B02D-6CE46EF34CA2";
name = Regular;
paths = (
{
closed = 1;
nodes = (
"-198 692 LINE",
"-56 541 LINE",
"54 543 LINE",
"182 708 LINE",
"116 764 LINE",
"2 625 LINE",
"-119 763 LINE"
);
}
);
width = 0;
}
);
unicode = 030C;
},
{
color = 3;
glyphname = acutecomb.case;
layers = (
{
anchors = (
{
name = _top;
position = "{1, 650}";
}
);
layerId = "C1B4D31E-EC41-4663-B02D-6CE46EF34CA2";
name = Regular;
paths = (
{
closed = 1;
nodes = (
"-87 688 LINE",
"-4 723 OFFCURVE",
"81 755 OFFCURVE",
"165 787 CURVE",
"107 898 LINE",
"-130 761 LINE"
);
}
);
width = 0;
}
);
},
{
color = 3;
glyphname = brevecomb.case;
layers = (
{
anchors = (
{
name = _top;
position = "{-1, 650}";
}
);
layerId = "C1B4D31E-EC41-4663-B02D-6CE46EF34CA2";
name = Regular;
paths = (
{
closed = 1;
nodes = (
"62 873 LINE",
"58 822 OFFCURVE",
"30 799 OFFCURVE",
"-4 799 CURVE SMOOTH",
"-39 799 OFFCURVE",
"-66 824 OFFCURVE",
"-72 874 CURVE",
"-161 866 LINE",
"-149 768 OFFCURVE",
"-79 715 OFFCURVE",
"4 715 CURVE SMOOTH",
"83 715 OFFCURVE",
"153 764 OFFCURVE",
"161 868 CURVE"
);
}
);
width = 0;
}
);
},
{
color = 3;
glyphname = caroncomb.case;
layers = (
{
anchors = (
{
name = _top;
position = "{-1, 580}";
}
);
layerId = "C1B4D31E-EC41-4663-B02D-6CE46EF34CA2";
name = Regular;
paths = (
{
closed = 1;
nodes = (
"-201 765 LINE",
"-58 638 LINE",
"49 640 LINE",
"193 778 LINE",
"135 836 LINE",
"0 720 LINE",
"-130 834 LINE"
);
}
);
width = 0;
}
);
},
{
color = 3;
glyphname = circumflexcomb.case;
layers = (
{
anchors = (
{
name = _top;
position = "{-1, 580}";
}
);
layerId = "C1B4D31E-EC41-4663-B02D-6CE46EF34CA2";
name = Regular;
paths = (
{
closed = 1;
nodes = (
"-148 632 LINE",
"-1 742 LINE",
"153 632 LINE",
"206 684 LINE",
"55 839 LINE",
"-56 839 LINE",
"-204 684 LINE"
);
}
);
width = 0;
}
);
},
{
color = 3;
glyphname = gravecomb.case;
layers = (
{
anchors = (
{
name = _top;
position = "{-1, 650}";
}
);
layerId = "C1B4D31E-EC41-4663-B02D-6CE46EF34CA2";
name = Regular;
paths = (
{
closed = 1;
nodes = (
"-91 898 LINE",
"-149 787 LINE",
"-65 755 OFFCURVE",
"20 723 OFFCURVE",
"103 688 CURVE",
"146 761 LINE"
);
}
);
width = 0;
}
);
},
{
color = 3;
glyphname = hungarumlautcomb.case;
layers = (
{
anchors = (
{
name = _top;
position = "{-1, 471}";
}
);
layerId = "C1B4D31E-EC41-4663-B02D-6CE46EF34CA2";
name = Regular;
paths = (
{
closed = 1;
nodes = (
"-100 532 LINE",
"-44 580 OFFCURVE",
"17 631 OFFCURVE",
"75 676 CURVE",
"-16 749 LINE",
"-165 589 LINE"
);
},
{
closed = 1;
nodes = (
"101 523 LINE",
"157 571 OFFCURVE",
"217 622 OFFCURVE",
"275 667 CURVE",
"185 740 LINE",
"35 580 LINE"
);
}
);
width = 0;
}
);
},
{
color = 3;
glyphname = macroncomb.case;
layers = (
{
anchors = (
{
name = _top;
position = "{1, 650}";
}
);
layerId = "C1B4D31E-EC41-4663-B02D-6CE46EF34CA2";
name = Regular;
paths = (
{
closed = 1;
nodes = (
"-112 831 OFFCURVE",
"-155 826 OFFCURVE",
"-194 806 CURVE",
"-188 742 LINE",
"168 742 LINE",
"215 784 LINE",
"210 831 LINE",
"-81 831 LINE"
);
}
);
width = 0;
}
);
},
{
color = 3;
glyphname = ogonekcomb.case;
layers = (
{
anchors = (
{
name = _ogonek;
position = "{-1, 10}";
}
);
layerId = "C1B4D31E-EC41-4663-B02D-6CE46EF34CA2";
name = Regular;
paths = (
{
closed = 1;
nodes = (
"-45 30 LINE",
"-177 -16 OFFCURVE",
"-247 -88 OFFCURVE",
"-247 -156 CURVE SMOOTH",
"-247 -217 OFFCURVE",
"-193 -273 OFFCURVE",
"-108 -265 CURVE",
"15 -203 LINE",
"-7 -156 LINE",
"-91 -204 OFFCURVE",
"-144 -178 OFFCURVE",
"-144 -127 CURVE SMOOTH",
"-144 -76 OFFCURVE",
"-91 -32 OFFCURVE",
"-16 10 CURVE SMOOTH"
);
}
);
width = 0;
}
);
},
{
color = 3;
glyphname = tildecomb.case;
layers = (
{
anchors = (
{
name = _top;
position = "{-1, 650}";
}
);
layerId = "C1B4D31E-EC41-4663-B02D-6CE46EF34CA2";
name = Regular;
paths = (
{
closed = 1;
nodes = (
"-172 722 LINE",
"-137 759 OFFCURVE",
"-111 783 OFFCURVE",
"-92 783 CURVE SMOOTH",
"-56 783 OFFCURVE",
"64 702 OFFCURVE",
"112 702 CURVE SMOOTH",
"148 702 OFFCURVE",
"179 747 OFFCURVE",
"236 838 CURVE",
"197 872 LINE",
"111 801 LINE",
"4 856 OFFCURVE",
"-60 889 OFFCURVE",
"-92 889 CURVE SMOOTH",
"-130 889 OFFCURVE",
"-166 839 OFFCURVE",
"-219 758 CURVE"
);
}
);
width = 0;
}
);
},
{
color = 3;
glyphname = cedillacomb;
layers = (
{
anchors = (
{
name = _bottom;
position = "{0, 0}";
}
);
layerId = "C1B4D31E-EC41-4663-B02D-6CE46EF34CA2";
name = Regular;
paths = (
{
closed = 1;
nodes = (
"33 6 LINE",
"-28 6 LINE",
"-91 -69 LINE",
"-64 -112 LINE",
"42 -103 OFFCURVE",
"35 -194 OFFCURVE",
"-91 -235 CURVE",
"-74 -269 LINE",
"47 -260 OFFCURVE",
"114 -207 OFFCURVE",
"120 -150 CURVE SMOOTH",
"126 -105 OFFCURVE",
"79 -58 OFFCURVE",
"-5 -58 CURVE"
);
}
);
width = 0;
}
);
unicode = 0327;
},
{
color = 3;
glyphname = circumflexcomb;
layers = (
{
anchors = (
{
name = _top;
position = "{0, 471}";
}
);
layerId = "C1B4D31E-EC41-4663-B02D-6CE46EF34CA2";
name = Regular;
paths = (
{
closed = 1;
nodes = (
"-120 531 LINE",
"1 643 LINE",
"134 535 LINE",
"186 584 LINE",
"57 734 LINE",
"-48 734 LINE",
"-178 577 LINE"
);
}
);
width = 0;
}
);
unicode = 0302;
},
{
color = 3;
glyphname = commaaccentcomb;
layers = (
{
anchors = (
{
name = _bottom;
position = "{0, 0}";
}
);
layerId = "C1B4D31E-EC41-4663-B02D-6CE46EF34CA2";
name = Regular;
paths = (
{
closed = 1;
nodes = (
"-63 -140 LINE",
"-24 -168 OFFCURVE",
"-32 -215 OFFCURVE",
"-70 -265 CURVE",
"-21 -298 LINE",
"40 -253 OFFCURVE",
"126 -117 OFFCURVE",
"20 -64 CURVE",
"-65 -107 LINE"
);
}
);
width = 0;
}
);
unicode = 0326;
},
{
color = 3;
glyphname = dieresiscomb;
layers = (
{
anchors = (
{
name = _top;
position = "{0, 471}";
}
);
layerId = "C1B4D31E-EC41-4663-B02D-6CE46EF34CA2";
name = Regular;
paths = (
{
closed = 1;
nodes = (
"-45 673 OFFCURVE",
"-80 703 OFFCURVE",
"-120 719 CURVE",
"-158 698 OFFCURVE",
"-188 666 OFFCURVE",
"-194 621 CURVE",
"-176 585 OFFCURVE",
"-148 562 OFFCURVE",
"-107 550 CURVE",
"-70 568 OFFCURVE",
"-47 596 OFFCURVE",
"-35 634 CURVE"
);
},
{
closed = 1;
nodes = (
"185 673 OFFCURVE",
"150 703 OFFCURVE",
"110 719 CURVE",
"72 698 OFFCURVE",
"42 666 OFFCURVE",
"36 621 CURVE",
"54 585 OFFCURVE",
"82 562 OFFCURVE",
"124 550 CURVE",
"160 568 OFFCURVE",
"183 596 OFFCURVE",
"195 634 CURVE"
);
}
);
width = 0;
}
);
unicode = 0308;
},
{
color = 3;
glyphname = dotaccentcomb;
layers = (
{
anchors = (
{
name = _top;
position = "{0, 471}";
}
);
layerId = "C1B4D31E-EC41-4663-B02D-6CE46EF34CA2";
name = Regular;
paths = (
{
closed = 1;
nodes = (
"73 669 OFFCURVE",
"36 703 OFFCURVE",
"-4 719 CURVE",
"-42 698 OFFCURVE",
"-72 666 OFFCURVE",
"-78 621 CURVE",
"-60 584 OFFCURVE",
"-32 562 OFFCURVE",
"10 550 CURVE",
"46 568 OFFCURVE",
"70 596 OFFCURVE",
"81 634 CURVE"
);
}
);
width = 0;
}
);
unicode = 0307;
},
{
color = 3;
glyphname = dotbelowcomb;
layers = (
{
anchors = (
{
name = _bottom;
position = "{0, 0}";
}
);
layerId = "C1B4D31E-EC41-4663-B02D-6CE46EF34CA2";
name = Regular;
paths = (
{
closed = 1;
nodes = (
"73 -148 OFFCURVE",
"36 -115 OFFCURVE",
"-4 -98 CURVE",
"-42 -119 OFFCURVE",
"-72 -151 OFFCURVE",
"-78 -197 CURVE",
"-60 -233 OFFCURVE",
"-32 -255 OFFCURVE",
"10 -268 CURVE",
"46 -249 OFFCURVE",
"70 -221 OFFCURVE",
"81 -183 CURVE"
);
}
);
width = 0;
}
);
unicode = 0323;
},
{
color = 3;
glyphname = gravecomb;
layers = (
{
anchors = (
{
name = _top;
position = "{0, 471}";
}
);
layerId = "C1B4D31E-EC41-4663-B02D-6CE46EF34CA2";
name = Regular;
paths = (
{
closed = 1;
nodes = (
"95 593 LINE",
"-55 771 LINE",
"-151 688 LINE",
"-91 640 OFFCURVE",
"-36 587 OFFCURVE",
"20 533 CURVE"
);
}
);
width = 0;
}
);
unicode = 0300;
},
{
color = 3;
glyphname = hungarumlautcomb;
layers = (
{
anchors = (
{
name = _top;
position = "{0, 471}";
}
);
layerId = "C1B4D31E-EC41-4663-B02D-6CE46EF34CA2";
name = Regular;
paths = (
{
closed = 1;
nodes = (
"-99 534 LINE",
"-46 588 OFFCURVE",
"11 647 OFFCURVE",
"66 698 CURVE",
"-33 763 LINE",
"-169 585 LINE"
);
},
{
closed = 1;
nodes = (
"102 534 LINE",
"154 588 OFFCURVE",
"211 647 OFFCURVE",
"266 698 CURVE",
"168 763 LINE",
"31 585 LINE"
);
}
);
width = 0;
}
);
unicode = 030B;
},
{
color = 3;
glyphname = macronbelowcomb;
layers = (
{
anchors = (
{
name = _bottom;
position = "{0, 0}";
}
);
layerId = "C1B4D31E-EC41-4663-B02D-6CE46EF34CA2";
name = Regular;
paths = (
{
closed = 1;
nodes = (
"-105 -142 OFFCURVE",
"-148 -148 OFFCURVE",
"-187 -167 CURVE",
"-181 -231 LINE",
"139 -231 LINE",
"186 -189 LINE",
"181 -142 LINE",
"-74 -142 LINE"
);
}
);
width = 0;
}
);
unicode = 0331;
},
{
color = 3;
glyphname = macroncomb;
layers = (
{
anchors = (
{
name = _top;
position = "{1, 471}";
}
);
layerId = "C1B4D31E-EC41-4663-B02D-6CE46EF34CA2";
name = Regular;
paths = (
{
closed = 1;
nodes = (
"-82 654 OFFCURVE",
"-125 649 OFFCURVE",
"-164 629 CURVE",
"-158 565 LINE",
"148 565 LINE",
"195 607 LINE",
"190 654 LINE",
"-51 654 LINE"
);
}
);
width = 0;
}
);
unicode = 0304;
},
{
color = 3;
glyphname = ogonekcomb;
layers = (
{
anchors = (
{
name = _ogonek;
position = "{0, 9}";
}
);
layerId = "C1B4D31E-EC41-4663-B02D-6CE46EF34CA2";
name = Regular;
paths = (
{
closed = 1;
nodes = (
"-22 43 LINE",
"-155 -3 OFFCURVE",
"-225 -75 OFFCURVE",
"-225 -144 CURVE SMOOTH",
"-225 -204 OFFCURVE",
"-171 -260 OFFCURVE",
"-86 -252 CURVE",
"37 -190 LINE",
"16 -143 LINE",
"-69 -191 OFFCURVE",
"-122 -165 OFFCURVE",
"-122 -114 CURVE SMOOTH",
"-122 -63 OFFCURVE",
"-69 -20 OFFCURVE",
"6 23 CURVE SMOOTH"
);
}
);
width = 0;
}
);
unicode = 0328;
},
{
color = 3;
glyphname = ringcomb;
layers = (
{
anchors = (
{
name = _top;
position = "{0, 650}";
}
);
layerId = "C1B4D31E-EC41-4663-B02D-6CE46EF34CA2";
name = Regular;
paths = (
{
closed = 1;
nodes = (
"-118 757 OFFCURVE",
"-63 710 OFFCURVE",
"4 710 CURVE SMOOTH",
"71 710 OFFCURVE",
"118 758 OFFCURVE",
"118 825 CURVE SMOOTH",
"118 896 OFFCURVE",
"66 947 OFFCURVE",
"-1 947 CURVE SMOOTH",
"-68 947 OFFCURVE",
"-118 895 OFFCURVE",
"-118 828 CURVE SMOOTH"
);
},
{
closed = 1;
nodes = (
"-58 847 OFFCURVE",
"-33 872 OFFCURVE",
"0 872 CURVE SMOOTH",
"33 872 OFFCURVE",
"58 847 OFFCURVE",
"58 813 CURVE SMOOTH",
"58 779 OFFCURVE",
"35 756 OFFCURVE",
"2 756 CURVE SMOOTH",
"-31 756 OFFCURVE",
"-58 779 OFFCURVE",
"-58 814 CURVE SMOOTH"
);
}
);
width = 0;
}
);
unicode = 030A;
},
{
color = 3;
glyphname = tildecomb;
layers = (
{
anchors = (
{
name = _top;
position = "{0, 471}";
}
);
layerId = "C1B4D31E-EC41-4663-B02D-6CE46EF34CA2";
name = Regular;
paths = (
{
closed = 1;
nodes = (
"-153 551 LINE",
"-110 603 OFFCURVE",
"-86 627 OFFCURVE",
"-68 627 CURVE SMOOTH",
"-34 627 OFFCURVE",
"48 544 OFFCURVE",
"95 544 CURVE SMOOTH",
"133 544 OFFCURVE",
"177 600 OFFCURVE",
"223 687 CURVE",
"175 722 LINE",
"96 640 LINE",
"41 680 OFFCURVE",
"-35 730 OFFCURVE",
"-63 730 CURVE",
"-109 730 OFFCURVE",
"-143 690 OFFCURVE",
"-203 590 CURVE"
);
}
);
width = 0;
}
);
unicode = 0303;
},
{
color = 3;
glyphname = caroncomb.calt;
layers = (
{
anchors = (
{
name = _topright;
position = "{0, 597}";
}
);
layerId = "C1B4D31E-EC41-4663-B02D-6CE46EF34CA2";
name = Regular;
paths = (
{
closed = 1;
nodes = (
"1 666 LINE",
"52 647 OFFCURVE",
"34 579 OFFCURVE",
"-17 505 CURVE",
"30 465 LINE",
"129 549 OFFCURVE",
"184 671 OFFCURVE",
"113 759 CURVE",
"-1 707 LINE"
);
}
);
width = 0;
}
);
},
{
glyphname = dvA;
lastChange = "2016-03-11 15:53:37 +0000";
layers = (
{
anchors = (
{
name = abvmBINDU;
position = "{668, 650}";
},
{
name = abvmCANDRABINDU;
position = "{650, 650}";
}
);
layerId = "C1B4D31E-EC41-4663-B02D-6CE46EF34CA2";
name = Regular;
paths = (
{
closed = 1;
nodes = (
"17 273 LINE",
"122 47 OFFCURVE",
"246 2 OFFCURVE",
"332 2 CURVE SMOOTH",
"449 2 OFFCURVE",
"510 84 OFFCURVE",
"510 170 CURVE SMOOTH",
"510 241 OFFCURVE",
"469 328 OFFCURVE",
"359 376 CURVE",
"322 401 LINE",
"272 410 OFFCURVE",
"208 391 OFFCURVE",
"165 355 CURVE",
"240 238 LINE",
"382 320 LINE",
"294 303 LINE",
"371 307 OFFCURVE",
"401 254 OFFCURVE",
"401 211 CURVE SMOOTH",
"401 165 OFFCURVE",
"365 117 OFFCURVE",
"295 117 CURVE SMOOTH",
"209 117 OFFCURVE",
"144 189 OFFCURVE",
"85 316 CURVE"
);
},
{
closed = 1;
nodes = (
"168 464 LINE",
"226 520 OFFCURVE",
"299 557 OFFCURVE",
"351 552 CURVE",
"361 544 OFFCURVE",
"368 529 OFFCURVE",
"368 513 CURVE SMOOTH",
"368 468 OFFCURVE",
"323 408 OFFCURVE",
"229 378 CURVE",
"360 318 LINE",
"435 355 OFFCURVE",
"472 422 OFFCURVE",
"472 475 CURVE SMOOTH",
"472 555 OFFCURVE",
"387 650 OFFCURVE",
"281 650 CURVE SMOOTH",
"211 650 OFFCURVE",
"143 609 OFFCURVE",
"95 561 CURVE"
);
},
{
closed = 1;
nodes = (
"397 296 LINE",
"494 217 OFFCURVE",
"566 200 OFFCURVE",
"614 224 CURVE",
"619 364 LINE",
"586 313 OFFCURVE",
"479 293 OFFCURVE",
"406 359 CURVE"
);
},
{
closed = 1;
nodes = (
"850 538 LINE",
"867 573 LINE",
"820 639 LINE",
"492 639 LINE",
"475 605 LINE",
"523 538 LINE"
);
},
{
closed = 1;
nodes = (
"605 14 LINE",
"701 -40 LINE",
"740 -23 LINE",
"740 493 LINE",
"651 560 LINE",
"605 581 LINE"
);
}
);
width = 820;
}
);
unicode = 0905;
},
{
glyphname = dvI;
lastChange = "2016-03-11 15:53:37 +0000";
layers = (
{
anchors = (
{
name = abvmBINDU;
position = "{389, 650}";
},
{
name = abvmCANDRABINDU;
position = "{364, 650}";
}
);
layerId = "C1B4D31E-EC41-4663-B02D-6CE46EF34CA2";
name = Regular;
paths = (
{
closed = 1;
nodes = (
"163 19 LINE",
"328 -239 LINE",
"434 -161 LINE",
"226 22 LINE"
);
},
{
closed = 1;
nodes = (
"599 538 LINE",
"616 573 LINE",
"569 639 LINE",
"-31 639 LINE",
"-48 605 LINE",
"-1 538 LINE"
);
},
{
closed = 1;
nodes = (
"351 378 LINE",
"473 363 LINE",
"473 493 LINE",
"384 560 LINE",
"351 581 LINE"
);
},
{
closed = 1;
nodes = (
"75 22 LINE",
"140 -27 OFFCURVE",
"209 -53 OFFCURVE",
"282 -53 CURVE SMOOTH",
"380 -53 OFFCURVE",
"534 -7 OFFCURVE",
"534 125 CURVE SMOOTH",
"534 201 OFFCURVE",
"479 273 OFFCURVE",
"383 309 CURVE",
"180 264 LINE",
"164 279 OFFCURVE",
"154 293 OFFCURVE",
"154 310 CURVE SMOOTH",
"154 341 OFFCURVE",
"187 363 OFFCURVE",
"235 363 CURVE SMOOTH",
"473 363 LINE",
"388 475 LINE",
"212 475 LINE SMOOTH",
"95 475 OFFCURVE",
"40 417 OFFCURVE",
"40 353 CURVE SMOOTH",
"40 272 OFFCURVE",
"131 179 OFFCURVE",
"262 145 CURVE",
"425 189 LINE",
"438 110 OFFCURVE",
"323 27 OFFCURVE",
"192 58 CURVE",
"248 30 LINE",
"171 148 LINE",
"108 149 LINE"
);
}
);
width = 569;
}
);
leftKerningGroup = Dda;
rightKerningGroup = Da;
unicode = 0907;
},
{
glyphname = dvU;
lastChange = "2016-03-11 15:53:37 +0000";
layers = (
{
anchors = (
{
name = abvmBINDU;
position = "{329, 650}";
},
{
name = abvmCANDRABINDU;
position = "{315, 650}";
}
);
layerId = "C1B4D31E-EC41-4663-B02D-6CE46EF34CA2";
name = Regular;
paths = (
{
closed = 1;
nodes = (
"273 556 LINE",
"319 531 OFFCURVE",
"339 502 OFFCURVE",
"339 469 CURVE SMOOTH",
"339 423 OFFCURVE",
"301 388 OFFCURVE",
"225 369 CURVE",
"359 302 LINE",
"435 335 OFFCURVE",
"459 389 OFFCURVE",
"459 435 CURVE SMOOTH",
"459 500 OFFCURVE",
"410 549 OFFCURVE",
"341 585 CURVE"
);
},
{
closed = 1;
nodes = (
"596 538 LINE",
"613 573 LINE",
"566 639 LINE",
"-31 639 LINE",
"-48 605 LINE",
"-1 538 LINE"
);
},
{
closed = 1;
nodes = (
"3 251 LINE",
"109 21 OFFCURVE",
"227 -35 OFFCURVE",
"325 -35 CURVE SMOOTH",
"446 -35 OFFCURVE",
"524 51 OFFCURVE",
"524 150 CURVE SMOOTH",
"524 236 OFFCURVE",
"466 325 OFFCURVE",
"358 364 CURVE",
"319 390 LINE",
"267 399 OFFCURVE",
"201 380 OFFCURVE",
"157 342 CURVE",
"234 221 LINE",
"380 305 LINE",
"291 287 LINE",
"365 290 OFFCURVE",
"403 235 OFFCURVE",
"403 186 CURVE SMOOTH",
"403 131 OFFCURVE",
"358 86 OFFCURVE",
"291 86 CURVE SMOOTH",
"200 86 OFFCURVE",
"132 169 OFFCURVE",
"74 291 CURVE"
);
}
);
width = 566;
}
);
unicode = 0909;
},
{
glyphname = dvUu;
lastChange = "2016-03-11 15:53:37 +0000";
layers = (
{
anchors = (
{
name = abvmBINDU;
position = "{373, 650}";
},
{
name = abvmCANDRABINDU;
position = "{385, 650}";
}
);
components = (
{
name = dvU;
}
);
layerId = "C1B4D31E-EC41-4663-B02D-6CE46EF34CA2";
name = Regular;
paths = (
{
closed = 1;
nodes = (
"845 538 LINE",
"862 573 LINE",
"815 639 LINE",
"309 639 LINE",
"292 605 LINE",
"340 538 LINE"
);
},
{
closed = 1;
nodes = (
"670 13 LINE",
"753 72 OFFCURVE",
"803 137 OFFCURVE",
"803 213 CURVE SMOOTH",
"803 309 OFFCURVE",
"724 404 OFFCURVE",
"623 404 CURVE SMOOTH",
"556 404 OFFCURVE",
"494 362 OFFCURVE",
"430 285 CURVE",
"503 183 LINE",
"563 257 OFFCURVE",
"622 298 OFFCURVE",
"661 298 CURVE SMOOTH",
"687 298 OFFCURVE",
"701 281 OFFCURVE",
"701 261 CURVE SMOOTH",
"701 219 OFFCURVE",
"638 160 OFFCURVE",
"579 113 CURVE"
);
}
);
width = 815;
}
);
rightKerningGroup = Ka;
unicode = 090A;
},
{
glyphname = dvVocalicR;
lastChange = "2016-03-11 15:53:37 +0000";
layers = (
{
anchors = (
{
name = abvmBINDU;
position = "{480, 650}";
},
{
name = abvmCANDRABINDU;
position = "{482, 650}";
},
{
name = abvmTOP;
position = "{478, 472}";
},
{
name = blwmBOTTOM;
position = "{383, 3}";
}
);
components = (
{
name = dvTRa;
transform = "{1, 0, 0, 1, 8, 0}";
}
);
layerId = "C1B4D31E-EC41-4663-B02D-6CE46EF34CA2";
name = Regular;
paths = (
{
closed = 1;
nodes = (
"661 52 LINE",
"730 -24 LINE",
"834 -4 OFFCURVE",
"878 68 OFFCURVE",
"878 129 CURVE SMOOTH",
"878 197 OFFCURVE",
"825 268 OFFCURVE",
"753 342 CURVE",
"713 282 LINE",
"745 250 OFFCURVE",
"766 214 OFFCURVE",
"766 181 CURVE SMOOTH",
"766 143 OFFCURVE",
"739 109 OFFCURVE",
"670 89 CURVE"
);
},
{
closed = 1;
nodes = (
"501 181 LINE",
"527 170 OFFCURVE",
"555 165 OFFCURVE",
"581 165 CURVE SMOOTH",
"674 165 OFFCURVE",
"763 227 OFFCURVE",
"777 294 CURVE",
"729 390 LINE",
"722 321 OFFCURVE",
"664 278 OFFCURVE",
"597 278 CURVE SMOOTH",
"565 278 OFFCURVE",
"532 288 OFFCURVE",
"501 309 CURVE"
);
},
{
closed = 1;
nodes = (
"718 322 LINE",
"771 285 LINE",
"807 325 OFFCURVE",
"807 397 OFFCURVE",
"781 443 CURVE",
"652 446 LINE",
"627 401 LINE",
"728 259 LINE"
);
},
{
closed = 1;
nodes = (
"922 538 LINE",
"939 573 LINE",
"891 639 LINE",
"407 639 LINE",
"390 605 LINE",
"438 538 LINE"
);
}
);
width = 891;
}
);
unicode = 090B;
},
{
glyphname = dvVocalicR.ss06;
lastChange = "2016-03-11 15:53:37 +0000";
layers = (
{
anchors = (
{
name = abvmBINDU;
position = "{480, 650}";
},
{
name = abvmCANDRABINDU;
position = "{482, 650}";
},
{
name = abvmTOP;
position = "{478, 472}";
},
{
name = blwmBOTTOM;
position = "{383, 3}";
}
);
components = (
{
name = dvTRa;
transform = "{1, 0, 0, 1, 8, 0}";
}
);
layerId = "C1B4D31E-EC41-4663-B02D-6CE46EF34CA2";
name = Regular;
paths = (
{
closed = 1;
nodes = (
"877 150 LINE",
"759 348 LINE",
"712 287 LINE",
"798 156 LINE"
);
},
{
closed = 1;
nodes = (
"496 196 LINE",
"522 185 OFFCURVE",
"555 180 OFFCURVE",
"581 180 CURVE SMOOTH",
"674 180 OFFCURVE",
"763 242 OFFCURVE",
"777 309 CURVE",
"729 395 LINE",
"722 323 OFFCURVE",
"660 282 OFFCURVE",
"594 282 CURVE SMOOTH",
"560 282 OFFCURVE",
"525 292 OFFCURVE",
"496 314 CURVE"
);
},
{
closed = 1;
nodes = (
"718 327 LINE",
"771 290 LINE",
"807 330 OFFCURVE",
"807 402 OFFCURVE",
"781 448 CURVE",
"652 451 LINE",
"627 406 LINE",
"727 263 LINE"
);
},
{
closed = 1;
nodes = (
"941 538 LINE",
"958 573 LINE",
"910 639 LINE",
"407 639 LINE",
"390 605 LINE",
"438 538 LINE"
);
},
{
closed = 1;
nodes = (
"823 218 LINE",
"693 190 OFFCURVE",
"623 136 OFFCURVE",
"623 63 CURVE SMOOTH",
"623 -27 OFFCURVE",
"717 -108 OFFCURVE",
"813 -108 CURVE SMOOTH",
"869 -108 OFFCURVE",
"925 -80 OFFCURVE",
"964 -39 CURVE",
"900 65 LINE",
"864 29 OFFCURVE",
"797 -5 OFFCURVE",
"758 -5 CURVE SMOOTH",
"734 -5 OFFCURVE",
"720 8 OFFCURVE",
"720 26 CURVE SMOOTH",
"720 61 OFFCURVE",
"790 88 OFFCURVE",
"856 106 CURVE",
"877 150 LINE"
);
}
);
width = 910;
}
);
},
{
glyphname = dvVocalicRr;
lastChange = "2016-03-11 15:53:37 +0000";
layers = (
{
anchors = (
{
name = abvmBINDU;
position = "{480, 650}";
},
{
name = abvmCANDRABINDU;
position = "{482, 650}";
},
{
name = abvmTOP;
position = "{477, 472}";
},
{
name = blwmBOTTOM;
position = "{383, 3}";
}
);
components = (
{
name = dvTRa;
transform = "{1, 0, 0, 1, 8, 0}";
}
);
layerId = "C1B4D31E-EC41-4663-B02D-6CE46EF34CA2";
name = Regular;
paths = (
{
closed = 1;
nodes = (
"877 155 LINE",
"759 348 LINE",
"712 287 LINE",
"810 138 LINE"
);
},
{
closed = 1;
nodes = (
"496 201 LINE",
"522 190 OFFCURVE",
"555 185 OFFCURVE",
"582 185 CURVE SMOOTH",
"673 185 OFFCURVE",
"763 242 OFFCURVE",
"777 309 CURVE",
"729 395 LINE",
"722 323 OFFCURVE",
"659 287 OFFCURVE",
"595 287 CURVE SMOOTH",
"559 287 OFFCURVE",
"525 297 OFFCURVE",
"496 319 CURVE"
);
},
{
closed = 1;
nodes = (
"718 327 LINE",
"771 290 LINE",
"807 330 OFFCURVE",
"807 402 OFFCURVE",
"781 448 CURVE",
"652 451 LINE",
"627 406 LINE",
"727 263 LINE"
);
},
{
closed = 1;
nodes = (
"951 538 LINE",
"968 573 LINE",
"920 639 LINE",
"407 639 LINE",
"390 605 LINE",
"438 538 LINE"
);
},
{
closed = 1;
nodes = (
"879 72 LINE",
"752 44 OFFCURVE",
"686 -5 OFFCURVE",
"686 -68 CURVE SMOOTH",
"686 -141 OFFCURVE",
"770 -218 OFFCURVE",
"866 -218 CURVE SMOOTH",
"925 -218 OFFCURVE",
"977 -189 OFFCURVE",
"1014 -150 CURVE",
"953 -53 LINE",
"920 -89 OFFCURVE",
"853 -125 OFFCURVE",
"813 -125 CURVE SMOOTH",
"792 -125 OFFCURVE",
"783 -114 OFFCURVE",
"783 -104 CURVE SMOOTH",
"783 -82 OFFCURVE",
"824 -54 OFFCURVE",
"915 -35 CURVE",
"933 2 LINE"
);
},
{
closed = 1;
nodes = (
"744 -1 LINE",
"719 6 OFFCURVE",
"705 18 OFFCURVE",
"705 34 CURVE SMOOTH",
"705 71 OFFCURVE",
"786 96 OFFCURVE",
"856 111 CURVE",
"878 155 LINE",
"823 216 LINE",
"695 190 OFFCURVE",
"606 145 OFFCURVE",
"606 71 CURVE SMOOTH",
"606 19 OFFCURVE",
"649 -20 OFFCURVE",
"714 -48 CURVE"
);
}
);
width = 914;
}
);
unicode = 0960;
},
{
glyphname = dvVocalicL;
lastChange = "2016-03-11 15:53:37 +0000";
layers = (
{
anchors = (
{
name = abvmBINDU;
position = "{504, 650}";
},
{
name = abvmCANDRABINDU;
position = "{467, 650}";
},
{
name = abvmTOP;
position = "{492, 472}";
},
{
name = blwmBOTTOM;
position = "{354, 3}";
}
);
layerId = "C1B4D31E-EC41-4663-B02D-6CE46EF34CA2";
name = Regular;
paths = (
{
closed = 1;
nodes = (
"389 313 LINE",
"253 438 LINE",
"233 448 OFFCURVE",
"210 453 OFFCURVE",
"187 453 CURVE SMOOTH",
"109 453 OFFCURVE",
"23 395 OFFCURVE",
"23 286 CURVE SMOOTH",
"23 180 OFFCURVE",
"104 69 OFFCURVE",
"295 -47 CURVE",
"348 23 LINE",
"238 92 OFFCURVE",
"163 156 OFFCURVE",
"163 234 CURVE SMOOTH",
"163 289 OFFCURVE",
"201 328 OFFCURVE",
"250 328 CURVE SMOOTH",
"277 328 OFFCURVE",
"310 316 OFFCURVE",
"337 288 CURVE",
"365 254 LINE"
);
},
{
closed = 1;
nodes = (
"792 538 LINE",
"809 573 LINE",
"761 639 LINE",
"-31 639 LINE",
"-48 605 LINE",
"-1 538 LINE"
);
},
{
closed = 1;
nodes = (
"443 396 LINE",
"574 373 LINE",
"574 493 LINE",
"485 560 LINE",
"443 581 LINE"
);
},
{
closed = 1;
nodes = (
"691 36 LINE",
"665 -16 OFFCURVE",
"626 -74 OFFCURVE",
"585 -74 CURVE SMOOTH",
"565 -74 OFFCURVE",
"548 -59 OFFCURVE",
"548 -36 CURVE SMOOTH",
"548 25 OFFCURVE",
"699 123 OFFCURVE",
"699 253 CURVE SMOOTH",
"699 351 OFFCURVE",
"613 448 OFFCURVE",
"496 448 CURVE SMOOTH",
"387 448 OFFCURVE",
"274 364 OFFCURVE",
"288 184 CURVE",
"387 120 LINE",
"418 138 LINE",
"410 255 OFFCURVE",
"458 354 OFFCURVE",
"516 354 CURVE SMOOTH",
"555 354 OFFCURVE",
"574 322 OFFCURVE",
"574 285 CURVE SMOOTH",
"574 185 OFFCURVE",
"438 118 OFFCURVE",
"438 13 CURVE SMOOTH",
"438 -76 OFFCURVE",
"535 -170 OFFCURVE",
"630 -170 CURVE SMOOTH",
"699 -170 OFFCURVE",
"751 -122 OFFCURVE",
"785 -46 CURVE"
);
}
);
width = 762;
}
);
leftKerningGroup = La;
rightKerningGroup = LaMAR;
unicode = 090C;
},
{
glyphname = dvVocalicLl;
lastChange = "2016-03-11 15:53:37 +0000";
layers = (
{
anchors = (
{
name = abvmBINDU;
position = "{504, 650}";
},
{
name = abvmCANDRABINDU;
position = "{467, 650}";
},
{
name = abvmTOP;
position = "{492, 472}";
},
{
name = blwmBOTTOM;
position = "{354, 3}";
}
);
layerId = "C1B4D31E-EC41-4663-B02D-6CE46EF34CA2";
name = Regular;
paths = (
{
closed = 1;
nodes = (
"389 313 LINE",
"253 438 LINE",
"233 448 OFFCURVE",
"210 453 OFFCURVE",
"187 453 CURVE SMOOTH",
"109 453 OFFCURVE",
"23 395 OFFCURVE",
"23 286 CURVE SMOOTH",
"23 180 OFFCURVE",
"104 69 OFFCURVE",
"295 -47 CURVE",
"348 23 LINE",
"238 92 OFFCURVE",
"163 156 OFFCURVE",
"163 234 CURVE SMOOTH",
"163 289 OFFCURVE",
"201 328 OFFCURVE",
"250 328 CURVE SMOOTH",
"277 328 OFFCURVE",
"310 316 OFFCURVE",
"337 288 CURVE",
"365 254 LINE"
);
},
{
closed = 1;
nodes = (
"792 538 LINE",
"809 573 LINE",
"761 639 LINE",
"-31 639 LINE",
"-48 605 LINE",
"-1 538 LINE"
);
},
{
closed = 1;
nodes = (
"443 396 LINE",
"574 373 LINE",
"574 493 LINE",
"485 560 LINE",
"443 581 LINE"
);
},
{
closed = 1;
nodes = (
"601 -88 LINE",
"565 -83 OFFCURVE",
"542 -66 OFFCURVE",
"542 -37 CURVE SMOOTH",
"542 24 OFFCURVE",
"699 122 OFFCURVE",
"699 254 CURVE SMOOTH",
"699 351 OFFCURVE",
"613 448 OFFCURVE",
"496 448 CURVE SMOOTH",
"387 448 OFFCURVE",
"274 364 OFFCURVE",
"288 184 CURVE",
"387 120 LINE",
"418 138 LINE",
"410 255 OFFCURVE",
"458 354 OFFCURVE",
"516 354 CURVE SMOOTH",
"555 354 OFFCURVE",
"574 322 OFFCURVE",
"574 285 CURVE SMOOTH",
"574 182 OFFCURVE",
"435 116 OFFCURVE",
"435 5 CURVE SMOOTH",
"435 -65 OFFCURVE",
"489 -122 OFFCURVE",
"572 -148 CURVE"
);
},
{
closed = 1;
nodes = (
"782 -100 LINE",
"746 -161 OFFCURVE",
"693 -194 OFFCURVE",
"666 -194 CURVE SMOOTH",
"649 -194 OFFCURVE",
"641 -183 OFFCURVE",
"641 -171 CURVE SMOOTH",
"641 -151 OFFCURVE",
"667 -116 OFFCURVE",
"746 -77 CURVE",
"752 -41 LINE",
"681 21 LINE",
"589 -21 OFFCURVE",
"538 -77 OFFCURVE",
"538 -132 CURVE SMOOTH",
"538 -198 OFFCURVE",
"608 -280 OFFCURVE",
"704 -280 CURVE SMOOTH",
"765 -280 OFFCURVE",
"819 -246 OFFCURVE",
"859 -176 CURVE"
);
}
);
width = 762;
}
);
leftKerningGroup = La;
rightKerningGroup = LaMAR;
unicode = 0961;
},
{
glyphname = dvE;
lastChange = "2016-03-11 15:53:37 +0000";
layers = (
{
anchors = (
{
name = abvmBINDU;
position = "{298, 650}";
},
{
name = abvmCANDRABINDU;
position = "{313, 650}";
}
);
layerId = "C1B4D31E-EC41-4663-B02D-6CE46EF34CA2";
name = Regular;
paths = (
{
closed = 1;
nodes = (
"386 261 LINE",
"316 213 LINE",
"378 125 LINE",
"481 166 OFFCURVE",
"520 212 OFFCURVE",
"520 349 CURVE SMOOTH",
"520 493 LINE",
"429 561 LINE",
"386 581 LINE"
);
},
{
closed = 1;
nodes = (
"618 538 LINE",
"635 573 LINE",
"587 639 LINE",
"-31 639 LINE",
"-48 605 LINE",
"-1 538 LINE"
);
},
{
closed = 1;
nodes = (
"569 -208 LINE",
"595 -180 OFFCURVE",
"610 -144 OFFCURVE",
"610 -108 CURVE SMOOTH",
"610 -40 OFFCURVE",
"558 6 OFFCURVE",
"417 74 CURVE SMOOTH",
"195 180 LINE",
"195 493 LINE",
"104 561 LINE",
"59 581 LINE",
"59 299 LINE",
"59 189 OFFCURVE",
"127 113 OFFCURVE",
"218 70 CURVE SMOOTH",
"423 -31 LINE SMOOTH",
"479 -61 OFFCURVE",
"488 -92 OFFCURVE",
"445 -150 CURVE"
);
}
);
width = 588;
}
);
unicode = 090F;
},
{
glyphname = dvOE;
layers = (
{
components = (
{
name = dvA;
}
);
layerId = "C1B4D31E-EC41-4663-B02D-6CE46EF34CA2";
name = Regular;
paths = (
{
closed = 1;
nodes = (
"616 815 LINE",
"616 593 LINE",
"682 559 LINE",
"709 572 LINE",
"709 815 LINE"
);
}
);
width = 820;
}
);
unicode = 0973;
},
{
glyphname = dvOOE;
layers = (
{
components = (
{
name = dvAa;
}
);
layerId = "C1B4D31E-EC41-4663-B02D-6CE46EF34CA2";
name = Regular;
paths = (
{
closed = 1;
nodes = (
"904 815 LINE",
"904 593 LINE",
"970 559 LINE",
"997 572 LINE",
"997 815 LINE"
);
}
);
width = 1110;
}
);
unicode = 0974;
},
{
glyphname = dvKa;
lastChange = "2016-03-11 15:53:37 +0000";
layers = (
{
anchors = (
{
name = abvmBINDU;
position = "{393, 650}";
},
{
name = abvmCANDRABINDU;
position = "{423, 650}";
},
{
name = abvmCANDRABINDU2;
position = "{710, 650}";
},
{
name = abvmTOP;
position = "{415, 472}";
},
{
name = blwmBOTTOM;
position = "{309, 3}";
}
);
layerId = "C1B4D31E-EC41-4663-B02D-6CE46EF34CA2";
name = Regular;
paths = (
{
closed = 1;
nodes = (
"234 458 LINE",
"113 483 OFFCURVE",
"22 403 OFFCURVE",
"22 302 CURVE SMOOTH",
"22 175 OFFCURVE",
"164 93 OFFCURVE",
"264 93 CURVE SMOOTH",
"326 93 OFFCURVE",
"370 125 OFFCURVE",
"406 172 CURVE",
"350 299 LINE",
"313 222 OFFCURVE",
"230 180 OFFCURVE",
"170 198 CURVE",
"124 260 OFFCURVE",
"164 358 OFFCURVE",
"256 358 CURVE SMOOTH",
"298 358 OFFCURVE",
"340 338 OFFCURVE",
"386 307 CURVE",
"399 373 LINE"
);
},
{
closed = 1;
nodes = (
"815 538 LINE",
"832 573 LINE",
"785 639 LINE",
"-31 639 LINE",
"-48 605 LINE",
"-1 538 LINE"
);
},
{
closed = 1;
nodes = (
"327 14 LINE",
"423 -40 LINE",
"462 -23 LINE",
"462 493 LINE",
"373 560 LINE",
"327 581 LINE"
);
},
{
closed = 1;
nodes = (
"425 163 LINE",
"482 248 OFFCURVE",
"552 308 OFFCURVE",
"602 308 CURVE SMOOTH",
"636 308 OFFCURVE",
"649 285 OFFCURVE",
"649 261 CURVE SMOOTH",
"649 209 OFFCURVE",
"590 157 OFFCURVE",
"507 96 CURVE",
"602 -5 LINE",
"699 60 OFFCURVE",
"761 139 OFFCURVE",
"761 230 CURVE SMOOTH",
"761 336 OFFCURVE",
"676 430 OFFCURVE",
"576 430 CURVE SMOOTH",
"487 430 OFFCURVE",
"418 357 OFFCURVE",
"375 277 CURVE"
);
}
);
width = 785;
}
);
leftKerningGroup = Ka;
rightKerningGroup = Ka;
unicode = 0915;
},
{
color = 5;
glyphname = dvKha;
lastChange = "2016-03-11 15:53:37 +0000";
layers = (
{
anchors = (
{
name = abvmBINDU;
position = "{502, 650}";
},
{
name = abvmCANDRABINDU;
position = "{521, 650}";
},
{
name = abvmCANDRABINDU2;
position = "{926, 650}";
},
{
name = abvmTOP;
position = "{696, 472}";
},
{
name = blwmBOTTOM;
position = "{619, -65}";
}
);
layerId = "C1B4D31E-EC41-4663-B02D-6CE46EF34CA2";
name = Regular;
paths = (
{
closed = 1;
nodes = (
"653 312 LINE",
"633 236 OFFCURVE",
"550 205 OFFCURVE",
"488 225 CURVE",
"443 277 OFFCURVE",
"474 373 OFFCURVE",
"567 373 CURVE SMOOTH",
"603 373 OFFCURVE",
"644 359 OFFCURVE",
"683 329 CURVE",
"705 375 LINE",
"547 468 LINE",
"432 492 OFFCURVE",
"354 407 OFFCURVE",
"354 321 CURVE SMOOTH",
"354 209 OFFCURVE",
"483 127 OFFCURVE",
"583 127 CURVE SMOOTH",
"646 127 OFFCURVE",
"684 161 OFFCURVE",
"718 212 CURVE"
);
},
{
closed = 1;
nodes = (
"882 538 LINE",
"899 573 LINE",
"851 639 LINE",
"208 639 LINE",
"191 605 LINE",
"240 538 LINE"
);
},
{
closed = 1;
nodes = (
"636 14 LINE",
"732 -40 LINE",
"771 -23 LINE",
"771 493 LINE",
"682 560 LINE",
"636 581 LINE"
);
},
{
closed = 1;
nodes = (
"482 538 LINE",
"499 573 LINE",
"451 639 LINE",
"-31 639 LINE",
"-48 605 LINE",
"-1 538 LINE"
);
},
{
closed = 1;
nodes = (
"333 494 LINE",
"249 556 LINE",
"200 577 LINE",
"201 380 LINE SMOOTH",
"201 317 OFFCURVE",
"151 289 OFFCURVE",
"86 270 CURVE",
"177 163 LINE",
"254 230 LINE SMOOTH",
"304 271 OFFCURVE",
"333 304 OFFCURVE",
"333 367 CURVE SMOOTH"
);
},
{
closed = 1;
nodes = (
"618 95 OFFCURVE",
"542 61 OFFCURVE",
"454 61 CURVE",
"341 61 OFFCURVE",
"220 124 OFFCURVE",
"180 249 CURVE",
"250 347 LINE",
"69 347 LINE",
"39 277 LINE",
"121 78 OFFCURVE",
"298 -38 OFFCURVE",
"465 -38 CURVE",
"554 -38 OFFCURVE",
"643 -9 OFFCURVE",
"697 54 CURVE",
"662 145 LINE"
);
}
);
width = 851;
}
);
leftKerningGroup = Ra;
unicode = 0916;
},
{
glyphname = dvGa;
lastChange = "2016-03-11 15:53:37 +0000";
layers = (
{
anchors = (
{
name = abvmBINDU;
position = "{353, 650}";
},
{
name = abvmCANDRABINDU;
position = "{370, 650}";
},
{
name = abvmCANDRABINDU2;
position = "{715, 650}";
},
{
name = abvmTOP;
position = "{485, 472}";
},
{
name = blwmBOTTOM;
position = "{408, 3}";
}
);
layerId = "C1B4D31E-EC41-4663-B02D-6CE46EF34CA2";
name = Regular;
paths = (
{
closed = 1;
nodes = (
"26 286 LINE",
"50 215 OFFCURVE",
"139 136 OFFCURVE",
"208 108 CURVE",
"264 137 LINE",
"264 296 LINE",
"200 334 LINE",
"58 334 LINE"
);
},
{
closed = 1;
nodes = (
"425 14 LINE",
"521 -40 LINE",
"560 -23 LINE",
"560 493 LINE",
"471 560 LINE",
"425 581 LINE"
);
},
{
closed = 1;
nodes = (
"670 538 LINE",
"687 573 LINE",
"640 639 LINE",
"-31 639 LINE",
"-48 605 LINE",
"-1 538 LINE"
);
},
{
closed = 1;
nodes = (
"134 250 LINE",
"265 214 LINE",
"265 493 LINE",
"176 560 LINE",
"130 581 LINE"
);
}
);
width = 640;
}
);
leftKerningGroup = Ma;
unicode = 0917;
},
{
glyphname = dvGha;
lastChange = "2016-03-11 15:53:37 +0000";
layers = (
{
anchors = (
{
name = abvmBINDU;
position = "{367, 650}";
},
{
name = abvmCANDRABINDU;
position = "{394, 650}";
},
{
name = abvmCANDRABINDU2;
position = "{764, 650}";
},
{
name = abvmTOP;
position = "{534, 472}";
},
{
name = blwmBOTTOM;
position = "{457, 3}";
}
);
layerId = "C1B4D31E-EC41-4663-B02D-6CE46EF34CA2";
name = Regular;
paths = (
{
closed = 1;
nodes = (
"68 590 LINE",
"40 565 OFFCURVE",
"27 536 OFFCURVE",
"27 507 CURVE SMOOTH",
"27 435 OFFCURVE",
"97 366 OFFCURVE",
"223 322 CURVE",
"249 371 LINE",
"191 390 OFFCURVE",
"161 430 OFFCURVE",
"161 468 CURVE SMOOTH",
"161 501 OFFCURVE",
"182 533 OFFCURVE",
"224 550 CURVE"
);
},
{
closed = 1;
nodes = (
"408 341 LINE",
"347 429 LINE",
"196 457 OFFCURVE",
"107 367 OFFCURVE",
"107 280 CURVE SMOOTH",
"107 215 OFFCURVE",
"156 157 OFFCURVE",
"211 121 CURVE SMOOTH",
"256 91 OFFCURVE",
"310 71 OFFCURVE",
"367 71 CURVE SMOOTH",
"430 71 OFFCURVE",
"489 95 OFFCURVE",
"529 150 CURVE",
"479 293 LINE",
"441 201 OFFCURVE",
"312 159 OFFCURVE",
"251 182 CURVE",
"203 238 OFFCURVE",
"258 327 OFFCURVE",
"390 306 CURVE"
);
},
{
closed = 1;
nodes = (
"474 14 LINE",
"570 -40 LINE",
"609 -23 LINE",
"609 493 LINE",
"520 560 LINE",
"474 581 LINE"
);
},
{
closed = 1;
nodes = (
"719 538 LINE",
"736 573 LINE",
"689 639 LINE",
"-41 639 LINE",
"-58 605 LINE",
"-11 538 LINE"
);
}
);
width = 689;
}
);
leftKerningGroup = Gha;
unicode = 0918;
},
{
glyphname = dvNga;
lastChange = "2016-03-11 15:53:37 +0000";
layers = (
{
anchors = (
{
name = abvmBINDU;
position = "{431, 650}";
},
{
name = abvmCANDRABINDU;
position = "{419, 650}";
},
{
name = abvmCANDRABINDU2;
position = "{714, 650}";
},
{
name = abvmTOP;
position = "{443, 472}";
},
{
name = blwmBOTTOM;
position = "{317, -56}";
}
);
layerId = "C1B4D31E-EC41-4663-B02D-6CE46EF34CA2";
name = Regular;
paths = (
{
closed = 1;
nodes = (
"672 219 OFFCURVE",
"703 259 OFFCURVE",
"716 292 CURVE",
"697 316 OFFCURVE",
"658 352 OFFCURVE",
"625 365 CURVE",
"597 348 OFFCURVE",
"567 309 OFFCURVE",
"549 273 CURVE",
"569 245 OFFCURVE",
"613 211 OFFCURVE",
"643 200 CURVE"
);
},
{
closed = 1;
nodes = (
"21 188 LINE",
"137 18 OFFCURVE",
"249 -56 OFFCURVE",
"364 -56 CURVE SMOOTH",
"486 -56 OFFCURVE",
"561 25 OFFCURVE",
"561 118 CURVE SMOOTH",
"561 201 OFFCURVE",
"499 282 OFFCURVE",
"396 313 CURVE",
"222 261 LINE",
"206 275 OFFCURVE",
"195 290 OFFCURVE",
"195 307 CURVE SMOOTH",
"195 339 OFFCURVE",
"230 358 OFFCURVE",
"279 358 CURVE SMOOTH",
"501 358 LINE",
"416 473 LINE",
"251 473 LINE SMOOTH",
"136 473 OFFCURVE",
"80 414 OFFCURVE",
"80 351 CURVE SMOOTH",
"80 267 OFFCURVE",
"176 177 OFFCURVE",
"304 141 CURVE",
"450 193 LINE",
"470 136 OFFCURVE",
"415 64 OFFCURVE",
"319 64 CURVE SMOOTH",
"238 64 OFFCURVE",
"159 113 OFFCURVE",
"78 236 CURVE"
);
},
{
closed = 1;
nodes = (
"383 373 LINE",
"505 358 LINE",
"505 493 LINE",
"416 560 LINE",
"383 581 LINE"
);
},
{
closed = 1;
nodes = (
"749 538 LINE",
"766 573 LINE",
"718 639 LINE",
"-31 639 LINE",
"-48 605 LINE",
"-1 538 LINE"
);
}
);
width = 719;
}
);
leftKerningGroup = Dda;
rightKerningGroup = Nga;
unicode = 0919;
},
{
glyphname = dvCa;
lastChange = "2016-03-11 15:53:37 +0000";
layers = (
{
anchors = (
{
name = abvmBINDU;
position = "{544, 650}";
},
{
name = abvmCANDRABINDU;
position = "{526, 650}";
},
{
name = abvmCANDRABINDU2;
position = "{771, 650}";
},
{
name = abvmTOP;
position = "{541, 472}";
},
{
name = blwmBOTTOM;
position = "{464, 3}";
}
);
layerId = "C1B4D31E-EC41-4663-B02D-6CE46EF34CA2";
name = Regular;
paths = (
{
closed = 1;
nodes = (
"219 426 LINE",
"158 398 OFFCURVE",
"116 350 OFFCURVE",
"116 289 CURVE SMOOTH",
"116 225 OFFCURVE",
"161 168 OFFCURVE",
"215 132 CURVE SMOOTH",
"259 102 OFFCURVE",
"318 79 OFFCURVE",
"380 79 CURVE SMOOTH",
"454 79 OFFCURVE",
"518 114 OFFCURVE",
"557 182 CURVE",
"492 307 LINE",
"456 219 OFFCURVE",
"343 167 OFFCURVE",
"259 190 CURVE",
"228 249 OFFCURVE",
"263 337 OFFCURVE",
"338 356 CURVE"
);
},
{
closed = 1;
nodes = (
"481 14 LINE",
"577 -40 LINE",
"616 -23 LINE",
"616 493 LINE",
"527 560 LINE",
"481 581 LINE"
);
},
{
closed = 1;
nodes = (
"726 538 LINE",
"743 573 LINE",
"696 639 LINE",
"-31 639 LINE",
"-48 605 LINE",
"-1 538 LINE"
);
},
{
closed = 1;
nodes = (
"170 351 LINE",
"199 341 LINE",
"412 341 LINE",
"429 375 LINE",
"378 452 LINE",
"10 452 LINE",
"-7 417 LINE",
"39 351 LINE"
);
}
);
width = 696;
}
);
unicode = 091A;
},
{
glyphname = dvCha;
lastChange = "2016-03-11 15:53:37 +0000";
layers = (
{
anchors = (
{
name = abvmBINDU;
position = "{393, 650}";
},
{
name = abvmCANDRABINDU;
position = "{415, 650}";
},
{
name = abvmCANDRABINDU2;
position = "{780, 650}";
},
{
name = abvmTOP;
position = "{562, 472}";
},
{
name = blwmBOTTOM;
position = "{370, -61}";
}
);
layerId = "C1B4D31E-EC41-4663-B02D-6CE46EF34CA2";
name = Regular;
paths = (
{
closed = 1;
nodes = (
"412 190 LINE",
"352 280 LINE",
"218 312 OFFCURVE",
"122 238 OFFCURVE",
"122 147 CURVE SMOOTH",
"122 43 OFFCURVE",
"248 -66 OFFCURVE",
"406 -66 CURVE SMOOTH",
"592 -66 OFFCURVE",
"731 86 OFFCURVE",
"731 249 CURVE SMOOTH",
"731 385 OFFCURVE",
"634 495 OFFCURVE",
"524 495 CURVE SMOOTH",
"443 495 OFFCURVE",
"383 435 OFFCURVE",
"383 364 CURVE SMOOTH",
"383 282 OFFCURVE",
"464 202 OFFCURVE",
"592 139 CURVE",
"620 191 LINE",
"535 230 OFFCURVE",
"503 283 OFFCURVE",
"503 330 CURVE SMOOTH",
"503 383 OFFCURVE",
"546 420 OFFCURVE",
"600 394 CURVE",
"615 375 OFFCURVE",
"622 335 OFFCURVE",
"622 302 CURVE SMOOTH",
"622 163 OFFCURVE",
"499 34 OFFCURVE",
"331 34 CURVE SMOOTH",
"307 34 OFFCURVE",
"293 37 OFFCURVE",
"277 41 CURVE",
"257 56 OFFCURVE",
"248 78 OFFCURVE",
"248 99 CURVE SMOOTH",
"248 145 OFFCURVE",
"299 182 OFFCURVE",
"387 156 CURVE"
);
},
{
closed = 1;
nodes = (
"502 423 LINE",
"624 397 LINE",
"624 493 LINE",
"535 560 LINE",
"502 581 LINE"
);
},
{
closed = 1;
nodes = (
"800 538 LINE",
"817 573 LINE",
"770 639 LINE",
"-31 639 LINE",
"-48 605 LINE",
"-1 538 LINE"
);
},
{
closed = 1;
nodes = (
"332 401 LINE",
"274 487 LINE",
"179 487 LINE SMOOTH",
"70 487 OFFCURVE",
"25 426 OFFCURVE",
"25 365 CURVE SMOOTH",
"25 300 OFFCURVE",
"78 241 OFFCURVE",
"165 196 CURVE",
"219 234 LINE",
"162 268 OFFCURVE",
"143 289 OFFCURVE",
"143 316 CURVE SMOOTH",
"143 355 OFFCURVE",
"185 368 OFFCURVE",
"230 368 CURVE SMOOTH",
"314 368 LINE"
);
}
);
width = 770;
}
);
rightKerningGroup = Cha;
unicode = 091B;
},
{
glyphname = dvJa;
lastChange = "2016-03-11 15:53:37 +0000";
layers = (
{
anchors = (
{
name = abvmBINDU;
position = "{566, 650}";
},
{
name = abvmCANDRABINDU;
position = "{549, 650}";
},
{
name = abvmCANDRABINDU2;
position = "{794, 650}";
},
{
name = abvmTOP;
position = "{564, 472}";
},
{
name = blwmBOTTOM;
position = "{486, 3}";
}
);
layerId = "C1B4D31E-EC41-4663-B02D-6CE46EF34CA2";
name = Regular;
paths = (
{
closed = 1;
nodes = (
"1 399 LINE",
"56 195 OFFCURVE",
"148 37 OFFCURVE",
"291 37 CURVE SMOOTH",
"382 37 OFFCURVE",
"438 100 OFFCURVE",
"438 179 CURVE SMOOTH",
"438 271 OFFCURVE",
"360 362 OFFCURVE",
"217 394 CURVE",
"194 399 LINE",
"194 366 LINE",
"274 334 LINE",
"349 275 OFFCURVE",
"332 173 OFFCURVE",
"252 173 CURVE SMOOTH",
"174 173 OFFCURVE",
"131 272 OFFCURVE",
"84 426 CURVE"
);
},
{
closed = 1;
nodes = (
"544 435 LINE",
"194 435 LINE",
"194 389 LINE",
"322 319 LINE",
"539 319 LINE"
);
},
{
closed = 1;
nodes = (
"504 14 LINE",
"600 -40 LINE",
"639 -23 LINE",
"639 493 LINE",
"550 560 LINE",
"504 581 LINE"
);
},
{
closed = 1;
nodes = (
"749 538 LINE",
"766 573 LINE",
"718 639 LINE",
"-31 639 LINE",
"-48 605 LINE",
"-1 538 LINE"
);
}
);
width = 719;
}
);
leftKerningGroup = Ja;
unicode = 091C;
},
{
glyphname = dvJha;
lastChange = "2016-03-11 15:53:37 +0000";
layers = (
{
anchors = (
{
name = abvmBINDU;
position = "{544, 650}";
},
{
name = abvmCANDRABINDU;
position = "{562, 650}";
},
{
name = abvmCANDRABINDU2;
position = "{912, 650}";
},
{
name = abvmTOP;
position = "{682, 472}";
},
{
name = blwmBOTTOM;
position = "{604, 3}";
}
);
components = (
{
name = dvI;
}
);
layerId = "C1B4D31E-EC41-4663-B02D-6CE46EF34CA2";
name = Regular;
paths = (
{
closed = 1;
nodes = (
"622 14 LINE",
"718 -40 LINE",
"757 -23 LINE",
"757 493 LINE",
"668 560 LINE",
"622 581 LINE"
);
},
{
closed = 1;
nodes = (
"867 538 LINE",
"884 573 LINE",
"836 639 LINE",
"504 639 LINE",
"487 605 LINE",
"535 538 LINE"
);
},
{
closed = 1;
nodes = (
"371 265 LINE",
"475 187 OFFCURVE",
"571 156 OFFCURVE",
"636 182 CURVE",
"633 314 LINE",
"580 262 OFFCURVE",
"474 271 OFFCURVE",
"383 309 CURVE"
);
}
);
width = 837;
}
);
leftKerningGroup = Dda;
unicode = 091D;
},
{
glyphname = dvJha.NEP;
lastChange = "2016-03-11 15:53:37 +0000";
layers = (
{
anchors = (
{
name = abvmBINDU;
position = "{527, 650}";
},
{
name = abvmCANDRABINDU;
position = "{509, 650}";
},
{
name = abvmCANDRABINDU2;
position = "{802, 650}";
},
{
name = abvmTOP;
position = "{517, 472}";
},
{
name = blwmBOTTOM;
position = "{438, 3}";
}
);
layerId = "C1B4D31E-EC41-4663-B02D-6CE46EF34CA2";
name = Regular;
paths = (
{
closed = 1;
nodes = (
"80 286 LINE",
"105 216 OFFCURVE",
"198 126 OFFCURVE",
"264 99 CURVE",
"321 127 LINE",
"321 296 LINE",
"254 335 LINE",
"112 335 LINE"
);
},
{
closed = 1;
nodes = (
"455 14 LINE",
"551 -40 LINE",
"590 -23 LINE",
"590 493 LINE",
"501 560 LINE",
"455 581 LINE"
);
},
{
closed = 1;
nodes = (
"901 538 LINE",
"918 573 LINE",
"870 639 LINE",
"372 639 LINE",
"355 605 LINE",
"403 538 LINE"
);
},
{
closed = 1;
nodes = (
"527 335 LINE",
"199 335 LINE",
"230 219 LINE",
"549 219 LINE"
);
},
{
closed = 1;
nodes = (
"36 663 OFFCURVE",
"-15 612 OFFCURVE",
"-15 551 CURVE SMOOTH",
"-15 506 OFFCURVE",
"12 457 OFFCURVE",
"97 401 CURVE",
"143 444 LINE",
"64 498 OFFCURVE",
"100 573 OFFCURVE",
"165 568 CURVE",
"185 550 OFFCURVE",
"189 522 OFFCURVE",
"189 491 CURVE SMOOTH",
"189 251 LINE",
"319 227 LINE",
"319 448 LINE",
"317 549 OFFCURVE",
"216 663 OFFCURVE",
"108 663 CURVE SMOOTH"
);
},
{
closed = 1;
nodes = (
"572 232 LINE",
"675 232 LINE",
"726 232 OFFCURVE",
"752 212 OFFCURVE",
"752 179 CURVE SMOOTH",
"752 142 OFFCURVE",
"720 95 OFFCURVE",
"650 46 CURVE",
"747 -49 LINE",
"829 12 OFFCURVE",
"869 78 OFFCURVE",
"869 147 CURVE SMOOTH",
"869 257 OFFCURVE",
"766 354 OFFCURVE",
"656 354 CURVE",
"552 354 LINE"
);
}
);
width = 870;
}
);
leftKerningGroup = Ma;
rightKerningGroup = Ka;
},
{
glyphname = dvNya;
lastChange = "2016-03-11 15:53:37 +0000";
layers = (
{
anchors = (
{
name = abvmBINDU;
position = "{640, 650}";
},
{
name = abvmCANDRABINDU;
position = "{623, 650}";
},
{
name = abvmCANDRABINDU2;
position = "{868, 650}";
},
{
name = abvmTOP;
position = "{638, 472}";
},
{
name = blwmBOTTOM;
position = "{560, 3}";
}
);
layerId = "C1B4D31E-EC41-4663-B02D-6CE46EF34CA2";
name = Regular;
paths = (
{
closed = 1;
nodes = (
"226 301 LINE",
"360 410 LINE",
"293 392 LINE",
"352 391 OFFCURVE",
"390 345 OFFCURVE",
"390 295 CURVE SMOOTH",
"390 242 OFFCURVE",
"349 191 OFFCURVE",
"275 191 CURVE SMOOTH",
"189 191 OFFCURVE",
"126 260 OFFCURVE",
"51 383 CURVE",
"-15 337 LINE",
"100 131 OFFCURVE",
"229 70 OFFCURVE",
"322 70 CURVE SMOOTH",
"427 70 OFFCURVE",
"511 147 OFFCURVE",
"511 255 CURVE SMOOTH",
"511 378 OFFCURVE",
"403 477 OFFCURVE",
"289 477 CURVE SMOOTH",
"243 477 OFFCURVE",
"189 460 OFFCURVE",
"143 410 CURVE"
);
},
{
closed = 1;
nodes = (
"578 14 LINE",
"674 -40 LINE",
"713 -23 LINE",
"713 493 LINE",
"624 560 LINE",
"578 581 LINE"
);
},
{
closed = 1;
nodes = (
"823 538 LINE",
"840 573 LINE",
"792 639 LINE",
"-31 639 LINE",
"-48 605 LINE",
"-1 538 LINE"
);
},
{
closed = 1;
nodes = (
"400 281 LINE",
"484 215 OFFCURVE",
"577 185 OFFCURVE",
"634 209 CURVE",
"633 339 LINE",
"586 289 OFFCURVE",
"489 292 OFFCURVE",
"412 330 CURVE"
);
}
);
width = 793;
}
);
unicode = 091E;
},
{
glyphname = dvTta;
lastChange = "2016-03-11 15:53:37 +0000";
layers = (
{
anchors = (
{
name = abvmBINDU;
position = "{362, 650}";
},
{
name = abvmCANDRABINDU;
position = "{350, 650}";
},
{
name = abvmCANDRABINDU2;
position = "{585, 650}";
},
{
name = abvmTOP;
position = "{385, 472}";
},
{
name = blwmBOTTOM;
position = "{309, -19}";
}
);
layerId = "C1B4D31E-EC41-4663-B02D-6CE46EF34CA2";
name = Regular;
paths = (
{
closed = 1;
nodes = (
"470 186 LINE",
"405 110 OFFCURVE",
"281 77 OFFCURVE",
"199 111 CURVE",
"174 135 OFFCURVE",
"160 164 OFFCURVE",
"160 193 CURVE SMOOTH",
"160 245 OFFCURVE",
"200 290 OFFCURVE",
"285 290 CURVE SMOOTH",
"448 290 LINE",
"366 419 LINE",
"257 419 LINE SMOOTH",
"100 419 OFFCURVE",
"33 338 OFFCURVE",
"33 243 CURVE SMOOTH",
"33 89 OFFCURVE",
"208 -24 OFFCURVE",
"344 -24 CURVE SMOOTH",
"409 -24 OFFCURVE",
"492 3 OFFCURVE",
"551 77 CURVE"
);
},
{
closed = 1;
nodes = (
"317 332 LINE",
"448 291 LINE",
"448 493 LINE",
"359 560 LINE",
"317 581 LINE"
);
},
{
closed = 1;
nodes = (
"600 538 LINE",
"617 573 LINE",
"569 639 LINE",
"-31 639 LINE",
"-48 605 LINE",
"-1 538 LINE"
);
}
);
width = 570;
}
);
leftKerningGroup = Da;
rightKerningGroup = Tta;
unicode = 091F;
},
{
glyphname = dvTtha;
lastChange = "2016-03-11 15:53:37 +0000";
layers = (
{
anchors = (
{
name = abvmBINDU;
position = "{377, 650}";
},
{
name = abvmCANDRABINDU;
position = "{359, 650}";
},
{
name = abvmCANDRABINDU2;
position = "{619, 650}";
},
{
name = abvmTOP;
position = "{383, 472}";
},
{
name = blwmBOTTOM;
position = "{319, -29}";
}
);
layerId = "C1B4D31E-EC41-4663-B02D-6CE46EF34CA2";
name = Regular;
paths = (
{
closed = 1;
nodes = (
"389 312 LINE",
"429 277 OFFCURVE",
"453 235 OFFCURVE",
"453 194 CURVE SMOOTH",
"453 132 OFFCURVE",
"400 76 OFFCURVE",
"309 76 CURVE SMOOTH",
"275 76 OFFCURVE",
"241 84 OFFCURVE",
"209 101 CURVE",
"182 126 OFFCURVE",
"168 158 OFFCURVE",
"168 188 CURVE SMOOTH",
"168 242 OFFCURVE",
"209 289 OFFCURVE",
"296 289 CURVE SMOOTH",
"447 289 LINE",
"367 414 LINE",
"267 414 LINE SMOOTH",
"117 414 OFFCURVE",
"41 335 OFFCURVE",
"41 235 CURVE SMOOTH",
"41 91 OFFCURVE",
"200 -34 OFFCURVE",
"366 -34 CURVE SMOOTH",
"492 -34 OFFCURVE",
"578 39 OFFCURVE",
"578 144 CURVE SMOOTH",
"578 233 OFFCURVE",
"515 324 OFFCURVE",
"418 379 CURVE"
);
},
{
closed = 1;
nodes = (
"320 318 LINE",
"451 294 LINE",
"451 493 LINE",
"362 560 LINE",
"320 581 LINE"
);
},
{
closed = 1;
nodes = (
"649 538 LINE",
"666 573 LINE",
"619 639 LINE",
"-31 639 LINE",
"-48 605 LINE",
"-1 538 LINE"
);
}
);
width = 619;
}
);
leftKerningGroup = Da;
rightKerningGroup = Tta;
unicode = 0920;
},
{
glyphname = dvDda;
lastChange = "2016-03-11 15:53:37 +0000";
layers = (
{
anchors = (
{
name = abvmBINDU;
position = "{439, 650}";
},
{
name = abvmCANDRABINDU;
position = "{426, 650}";
},
{
name = abvmCANDRABINDU2;
position = "{662, 650}";
},
{
name = abvmTOP;
position = "{453, 472}";
},
{
name = blwmBOTTOM;
position = "{294, -58}";
}
);
layerId = "C1B4D31E-EC41-4663-B02D-6CE46EF34CA2";
name = Regular;
paths = (
{
closed = 1;
nodes = (
"19 189 LINE",
"136 13 OFFCURVE",
"254 -58 OFFCURVE",
"369 -58 CURVE SMOOTH",
"491 -58 OFFCURVE",
"569 21 OFFCURVE",
"569 113 CURVE SMOOTH",
"569 192 OFFCURVE",
"511 275 OFFCURVE",
"404 308 CURVE",
"225 262 LINE",
"205 278 OFFCURVE",
"197 296 OFFCURVE",
"197 311 CURVE SMOOTH",
"197 340 OFFCURVE",
"224 361 OFFCURVE",
"277 361 CURVE SMOOTH",
"515 361 LINE",
"428 478 LINE",
"259 478 LINE SMOOTH",
"135 478 OFFCURVE",
"82 419 OFFCURVE",
"82 353 CURVE SMOOTH",
"82 264 OFFCURVE",
"179 172 OFFCURVE",
"309 137 CURVE",
"461 186 LINE",
"479 123 OFFCURVE",
"416 61 OFFCURVE",
"328 61 CURVE SMOOTH",
"240 61 OFFCURVE",
"153 116 OFFCURVE",
"77 236 CURVE"
);
},
{
closed = 1;
nodes = (
"393 375 LINE",
"515 361 LINE",
"515 493 LINE",
"426 560 LINE",
"393 581 LINE"
);
},
{
closed = 1;
nodes = (
"642 538 LINE",
"659 573 LINE",
"611 639 LINE",
"-31 639 LINE",
"-48 605 LINE",
"-1 538 LINE"
);
}
);
width = 612;
}
);
leftKerningGroup = Dda;
rightKerningGroup = Da;
unicode = 0921;
},
{
glyphname = dvDdha;
lastChange = "2016-03-11 15:53:37 +0000";
layers = (
{
anchors = (
{
name = abvmBINDU;
position = "{412, 650}";
},
{
name = abvmCANDRABINDU;
position = "{398, 650}";
},
{
name = abvmCANDRABINDU2;
position = "{624, 650}";
},
{
name = abvmTOP;
position = "{428, 472}";
},
{
name = blwmBOTTOM;
position = "{346, -55}";
}
);
layerId = "C1B4D31E-EC41-4663-B02D-6CE46EF34CA2";
name = Regular;
paths = (
{
closed = 1;
nodes = (
"428 35 LINE",
"400 71 OFFCURVE",
"389 100 OFFCURVE",
"389 128 CURVE SMOOTH",
"389 171 OFFCURVE",
"416 193 OFFCURVE",
"440 193 CURVE SMOOTH",
"463 193 OFFCURVE",
"480 174 OFFCURVE",
"480 145 CURVE SMOOTH",
"480 89 OFFCURVE",
"414 53 OFFCURVE",
"337 53 CURVE SMOOTH",
"292 53 OFFCURVE",
"251 65 OFFCURVE",
"214 81 CURVE",
"180 114 OFFCURVE",
"163 155 OFFCURVE",
"163 193 CURVE SMOOTH",
"163 257 OFFCURVE",
"210 320 OFFCURVE",
"306 320 CURVE SMOOTH",
"491 320 LINE",
"416 445 LINE",
"276 445 LINE SMOOTH",
"107 445 OFFCURVE",
"37 341 OFFCURVE",
"37 243 CURVE SMOOTH",
"37 87 OFFCURVE",
"215 -59 OFFCURVE",
"382 -59 CURVE SMOOTH",
"506 -59 OFFCURVE",
"572 22 OFFCURVE",
"572 98 CURVE SMOOTH",
"572 178 OFFCURVE",
"500 275 OFFCURVE",
"395 275 CURVE SMOOTH",
"326 275 OFFCURVE",
"271 231 OFFCURVE",
"271 162 CURVE SMOOTH",
"271 140 OFFCURVE",
"277 116 OFFCURVE",
"290 92 CURVE",
"401 18 LINE"
);
},
{
closed = 1;
nodes = (
"362 336 LINE",
"491 320 LINE",
"491 493 LINE",
"402 560 LINE",
"362 581 LINE"
);
},
{
closed = 1;
nodes = (
"634 538 LINE",
"651 573 LINE",
"603 639 LINE",
"-31 639 LINE",
"-48 605 LINE",
"-1 538 LINE"
);
}
);
width = 604;
}
);
leftKerningGroup = Da;
rightKerningGroup = Tta;
unicode = 0922;
},
